<svg width="1920" height="631" viewBox="0 0 1920 631" fill="none" xmlns="http://www.w3.org/2000/svg">
<rect width="1920" height="631" fill="#043873"/>
<g opacity="0.3">
<path d="M734.661 631C727.803 631 721.129 630.484 714.714 629.456C701.261 627.298 688.832 622.866 677.772 616.284C665.885 609.212 655.459 599.575 646.781 587.642C629.341 563.658 620.616 534.935 612.177 507.156C610.519 501.702 608.805 496.062 607.065 490.589C595.191 453.291 580.138 420.619 561.051 390.708C522.974 331.039 469.425 280.117 406.191 243.446C333.062 201.038 254.435 179.913 184.794 183.963C143.863 186.345 89.7812 208.994 65.6107 247.674C51.2665 270.63 50.1099 296.105 62.2681 321.342L62.0266 321.448C55.6518 308.213 52.8742 294.945 53.7735 282.011C54.5986 270.147 58.5036 258.55 65.3826 247.542C76.3231 230.033 94.3653 214.514 117.56 202.663C138.992 191.713 162.863 184.981 184.778 183.706C221.224 181.589 259.985 186.289 299.985 197.681C336.245 208.008 372.024 223.331 406.329 243.225C469.6 279.916 523.181 330.867 561.279 390.57C580.377 420.502 595.437 453.192 607.32 490.511C609.063 495.983 610.776 501.626 612.432 507.08C620.863 534.838 629.583 563.541 646.999 587.49C663.842 610.654 686.641 624.687 714.759 629.197C753.698 635.444 800.983 622.379 841.243 594.245C899.262 553.703 939.527 494.693 978.469 437.628C985.295 427.625 992.352 417.282 999.339 407.295C1017.48 381.36 1042.05 347.754 1071.25 317.814C1101.09 287.212 1131.42 264.728 1163.96 249.075C1183.88 239.494 1205 233.039 1226.71 229.89C1246.77 226.98 1268 226.8 1289.82 229.35C1327.24 233.725 1367.55 246.084 1413.06 267.131C1502.68 308.576 1592.2 358.881 1679.13 416.652C1761.76 471.562 1842.8 533.696 1920 601.322L1919.82 601.51C1759.79 461.323 1589.26 348.899 1412.95 267.359C1313.34 221.292 1234.26 215.553 1164.08 249.301C1092.69 283.634 1042.82 345.593 999.56 407.434C992.574 417.419 985.518 427.762 978.692 437.765C939.74 494.85 899.461 553.879 841.402 594.448C822.641 607.559 801.535 617.785 780.367 624.019C769.186 627.313 758.07 629.466 747.326 630.421C743.044 630.809 738.818 631 734.661 631Z" fill="#A1A1A1"/>
<path d="M741.365 616.777C723.877 616.777 707.679 613.59 693.202 607.3C677.059 600.286 663.129 589.418 651.796 574.999C650.793 573.722 649.798 572.401 648.838 571.07C631.583 547.19 622.471 518.84 613.661 491.422C611.878 485.882 610.037 480.15 608.169 474.589C597.046 441.475 583.651 412.29 567.216 385.37C565.192 382.056 563.096 378.734 560.982 375.499C522.345 316.344 468.362 266.067 404.868 230.101C331.21 188.417 252.361 168.166 182.845 173.079C142.211 175.982 88.3782 199.001 64.1043 237.384C49.5692 260.368 47.9244 285.894 59.3424 311.204L59.0983 311.306C53.1134 298.04 50.6542 284.746 51.7923 271.798C52.8375 259.906 56.9017 248.283 63.8762 237.252C74.9281 219.774 92.9173 204.238 115.894 192.325C137.13 181.314 160.898 174.39 182.821 172.825C219.221 170.253 258.025 174.504 298.153 185.459C334.5 195.383 370.449 210.33 405 229.883C468.532 265.869 522.544 316.177 561.205 375.365C563.319 378.602 565.418 381.926 567.442 385.243C583.887 412.181 597.29 441.381 608.418 474.513C610.289 480.074 612.13 485.805 613.913 491.349C622.72 518.749 631.825 547.078 649.055 570.926C650.013 572.251 651.008 573.572 652.008 574.847C675.428 604.651 707.607 616.777 741.447 616.777C741.633 616.777 741.816 616.777 742.002 616.777C741.79 616.774 741.577 616.777 741.365 616.777ZM748.584 616.599C780.044 615.053 812.508 603.481 840.358 586.266C900.432 548.98 943.608 491.392 985.364 435.701C987.084 433.405 988.803 431.114 990.522 428.824C994.297 423.796 998.772 417.844 1003.34 411.843C1023.83 384.933 1048.64 353.622 1077.2 325.44C1107.59 295.453 1137.95 273.2 1170.02 257.407C1189.72 247.715 1210.54 240.886 1231.91 237.113C1251.7 233.616 1272.62 232.628 1294.07 234.174C1331.14 236.848 1370.99 246.986 1415.91 265.168C1459.7 282.867 1495.7 299.528 1529.2 317.601C1576.65 343.229 1621.86 372.757 1659.82 398.26C1748.07 457.722 1834.66 525.242 1917.18 598.945L1917 599.131C1834.49 525.438 1747.91 457.923 1659.66 398.468C1621.71 372.967 1576.52 343.445 1529.07 317.825C1495.58 299.757 1459.59 283.101 1415.81 265.406C1317.95 225.797 1239.89 223.326 1170.14 257.636C1097.75 293.284 1046.2 356.004 1003.56 411.995C998.984 417.996 994.512 423.946 990.737 428.976C989.017 431.264 987.298 433.557 985.579 435.853C943.81 491.562 900.618 549.171 840.501 586.485C825.594 595.697 809.733 603.016 793.354 608.234C778.108 613.087 763.079 615.893 748.584 616.599Z" fill="#A1A1A1"/>
<path d="M748.757 602.88C746.654 602.88 744.563 602.836 742.488 602.747C725.017 602.009 708.847 598.172 694.431 591.338C678.665 583.865 665.006 572.795 653.834 558.435C652.842 557.155 651.853 555.832 650.898 554.502C633.837 530.738 624.345 502.767 615.169 475.72C613.256 470.082 611.277 464.252 609.271 458.594C597.598 425.592 583.851 396.64 567.239 370.083C565.183 366.8 563.055 363.506 560.909 360.297C521.713 301.657 467.294 252.025 403.54 216.765C329.357 175.805 250.285 156.424 180.891 162.201C141.819 165.505 88.1434 187.212 62.6227 227.06C47.8779 250.082 45.7317 275.677 56.4149 301.075L56.1682 301.169C50.5706 287.863 48.435 274.539 49.8145 261.568C51.0826 249.638 55.3166 237.984 62.3972 226.928C73.5658 209.49 91.4967 193.949 114.253 181.981C135.291 170.916 158.949 163.804 180.867 161.95C217.225 158.926 256.071 162.724 296.323 173.243C332.761 182.765 368.877 197.334 403.672 216.547C467.464 251.829 521.912 301.489 561.132 360.162C563.278 363.374 565.408 366.668 567.464 369.956C584.085 396.529 597.84 425.498 609.518 458.518C611.523 464.178 613.502 470.008 615.415 475.646C624.589 502.678 634.073 530.629 651.112 554.364C652.068 555.695 653.052 557.016 654.044 558.29C699.437 616.641 779.884 610.376 839.47 578.286C902.052 544.286 948.559 487.777 993.536 433.129L993.998 432.568C998.354 427.271 1002.86 421.796 1007.34 416.389C1054.65 359.355 1106.65 300.74 1176.08 265.735C1195.57 255.928 1216.1 248.726 1237.11 244.33C1256.65 240.242 1277.25 238.447 1298.33 238.995C1335.1 239.95 1374.49 247.868 1418.76 263.201C1465.28 279.257 1500.29 294.016 1532.27 311.058C1577.84 335.388 1621.98 366.132 1660.92 393.258C1747.63 453.977 1832.9 522.378 1914.37 596.556L1914.19 596.739C1832.73 522.569 1747.47 454.175 1660.77 393.461C1621.83 366.34 1577.69 335.601 1532.14 311.279C1500.17 294.242 1465.17 279.488 1418.67 263.437C1322.71 230.201 1245.67 231.001 1176.2 265.956C1106.82 300.938 1054.84 359.527 1007.55 416.542C1003.07 421.948 998.561 427.425 994.205 432.72L993.743 433.281C971.329 460.514 948.154 488.673 923.126 513.826C895 542.092 867.678 563.247 839.597 578.501C810.219 594.322 778.218 602.88 748.757 602.88Z" fill="#A1A1A1"/>
<path d="M1911.38 594.345C1830.98 519.697 1747.03 450.425 1661.88 388.453C1658.27 385.848 1654.66 383.23 1651.03 380.604C1614.14 353.885 1576 326.256 1535.22 304.732C1495.65 283.909 1455.55 271.177 1421.54 261.468C1327.66 234.505 1251.63 238.576 1182.27 274.275C1111.06 311.03 1055.89 372.054 1011.55 421.09C1008.89 424.033 1006.24 426.981 1003.58 429.932C1001.61 432.11 999.648 434.289 997.682 436.466C972.44 464.414 949.479 489.402 924.11 512.203C895.127 538.249 867.192 557.325 838.703 570.523C812.004 582.892 783.483 589.436 756.954 589.438C752.12 589.438 747.358 589.223 742.679 588.783C725.594 587.181 709.778 582.679 695.67 575.401C680.275 567.46 666.886 556.18 655.868 541.873C654.884 540.591 653.903 539.265 652.953 537.932C636.094 514.293 626.233 486.715 616.698 460.046C614.645 454.302 612.52 448.36 610.371 442.593C598.141 409.695 584.039 380.975 567.262 354.789C565.174 351.53 563.012 348.267 560.837 345.086C521.078 286.961 466.227 237.974 402.215 203.418C327.507 163.181 248.215 144.677 178.943 151.31C131.586 155.934 83.1605 182.816 61.1787 216.679C46.2031 239.749 43.5475 265.425 53.4932 290.93L53.2439 291.019C48.0362 277.665 46.2217 264.3 47.8505 251.296C49.3494 239.322 53.7585 227.631 60.9531 216.544C72.2385 199.157 90.111 183.616 112.639 171.604C133.475 160.495 157.012 153.196 178.916 151.058C215.232 147.579 254.118 150.929 294.495 161.01C331.02 170.132 367.309 184.324 402.348 203.194C466.399 237.771 521.279 286.786 561.062 344.946C563.24 348.13 565.402 351.396 567.49 354.654C584.278 380.855 598.386 409.591 610.623 442.504C612.772 448.274 614.897 454.213 616.95 459.96C626.48 486.613 636.335 514.173 653.173 537.785C654.123 539.115 655.102 540.438 656.083 541.718C703.472 603.258 784.016 595.571 838.589 570.292C903.698 540.129 953.522 484.968 997.483 436.298C999.449 434.119 1001.41 431.94 1003.38 429.764C1006.04 426.813 1008.69 423.865 1011.36 420.922C1036.66 392.933 1061.65 365.733 1089.12 340.67C1120.72 311.845 1151.15 290.054 1182.15 274.051C1201.43 264.125 1221.68 256.55 1242.32 251.539C1261.61 246.854 1281.89 244.254 1302.61 243.807C1339.14 243.02 1378.07 248.718 1421.62 261.225C1455.64 270.938 1495.76 283.675 1535.35 304.511C1576.15 326.043 1614.3 353.679 1651.19 380.403C1654.82 383.029 1658.43 385.647 1662.04 388.253C1747.2 450.229 1831.16 519.509 1911.57 594.164L1911.38 594.345Z" fill="#A1A1A1"/>
<path d="M1908.57 591.952C1827.71 515.4 1745.08 445.247 1662.98 383.446C1658.07 379.748 1653.05 375.937 1648.19 372.252C1613.38 345.863 1577.39 318.574 1538.29 298.186C1499.26 277.898 1458.82 267.243 1424.41 259.498C1332.81 238.682 1257.8 246.021 1188.33 282.594C1122.07 317.604 1070.16 370.251 1019.96 421.163L1014.45 426.752C1010.1 431.168 1005.6 435.732 1001.16 440.209C950.906 490.829 900.602 538.272 837.805 562.539C822.567 568.428 806.921 572.508 791.295 574.674C774.516 576.998 758.216 577.031 742.848 574.771C726.156 572.315 710.698 567.158 696.903 559.441C681.89 551.043 668.769 539.557 657.908 525.306C656.929 524.016 655.955 522.688 655.014 521.357C638.361 497.858 628.145 470.686 618.266 444.409C616.061 438.545 613.78 432.481 611.477 426.592C598.68 393.796 584.227 365.307 567.291 339.496C565.174 336.271 562.98 333.034 560.77 329.877C520.451 272.268 465.168 223.926 400.894 190.073C325.658 150.566 246.143 132.932 176.99 140.426C130.066 145.619 81.8601 172.689 59.7668 206.257C44.5419 229.386 41.3611 255.161 50.5666 280.796L50.3146 280.88C45.497 267.467 44.0087 254.051 45.8896 241.009C47.6246 228.985 52.2167 217.248 59.5387 206.125C70.9461 188.796 88.7549 173.27 111.044 161.223C131.673 150.073 155.082 142.6 176.958 140.177C213.231 136.246 252.157 139.143 292.661 148.788C329.276 157.508 365.732 171.323 401.018 189.853C465.33 223.723 520.645 272.096 560.987 329.737C563.197 332.896 565.394 336.137 567.511 339.362C584.457 365.185 598.918 393.69 611.721 426.504C614.024 432.392 616.305 438.459 618.51 444.322C628.384 470.585 638.595 497.744 655.229 521.215C656.168 522.541 657.141 523.866 658.117 525.156C704.365 585.84 781.209 584.136 837.702 562.305C900.448 538.059 950.731 490.633 1000.96 440.036C1005.4 435.559 1009.9 430.996 1014.25 426.58L1019.77 420.991C1044.41 396 1069.89 370.157 1097.56 346.117C1128.9 318.889 1158.55 298.038 1188.2 282.37C1207.29 272.319 1227.25 264.371 1247.51 258.749C1266.57 253.462 1286.54 250.054 1306.87 248.619C1343.24 246.052 1381.7 249.531 1424.46 259.249C1458.89 266.999 1499.35 277.657 1538.41 297.962C1577.53 318.358 1613.53 345.654 1648.35 372.051C1653.21 375.736 1658.23 379.545 1663.15 383.245C1745.25 445.051 1827.89 515.21 1908.75 591.77L1908.57 591.952Z" fill="#A1A1A1"/>
<path d="M1905.75 589.56C1825.59 512.157 1744.28 441.125 1664.09 378.44C1658.06 373.73 1651.88 368.831 1645.91 364.095C1612.98 337.99 1578.93 310.996 1541.36 291.644C1502.51 271.704 1461.89 263.21 1427.27 257.532C1338.22 242.699 1264.22 253.309 1194.39 290.917C1133.46 323.876 1083.43 370.586 1035.04 415.756C1029.95 420.51 1024.68 425.424 1019.55 430.185C1013.53 435.777 1008.92 440.025 1004.63 443.956C981.626 464.998 954.238 489.226 925.497 509.379C895.039 530.732 866.061 545.512 836.906 554.562C821.575 559.321 805.995 562.322 790.595 563.48C774.059 564.725 758.049 563.811 743.012 560.761C726.721 557.457 711.623 551.644 698.134 543.485C683.506 534.638 670.658 522.947 659.945 508.741C658.98 507.454 658.011 506.123 657.072 504.787C640.64 481.445 630.082 454.693 619.868 428.822C617.499 422.821 615.05 416.617 612.581 410.591C599.207 377.886 584.402 349.631 567.314 324.204C565.166 321.007 562.94 317.799 560.698 314.668C519.82 257.575 464.101 209.878 399.567 176.729C323.809 137.947 244.071 121.19 175.04 129.539C135.761 134.394 84.4598 156.761 58.3925 195.782C42.8944 218.982 39.175 244.873 47.6404 270.656L47.3883 270.732C42.9607 257.25 41.804 243.776 43.9475 230.683C45.9266 218.598 50.7097 206.81 58.1697 195.645C69.6991 178.387 87.4416 162.886 109.484 150.814C129.906 139.631 153.175 131.987 175.008 129.288C211.239 124.905 250.207 127.35 290.833 136.558C327.536 144.877 364.162 158.316 399.692 176.505C464.263 209.672 520.013 257.397 560.916 314.524C563.157 317.655 565.386 320.867 567.535 324.067C584.63 349.506 599.443 377.777 612.825 410.497C615.297 416.526 617.746 422.73 620.115 428.73C630.32 454.589 640.876 481.326 657.29 504.643C658.229 505.976 659.194 507.304 660.16 508.589C698.635 559.615 764.679 576.711 836.824 554.316C902.159 534.036 955.456 488.584 1004.45 443.768C1008.74 439.837 1013.34 435.589 1019.37 429.997C1024.5 425.236 1029.76 420.322 1034.85 415.569C1058.67 393.331 1083.3 370.337 1109.58 348.805C1139.28 324.455 1166.99 305.445 1194.27 290.691C1213.17 280.508 1232.84 272.187 1252.72 265.96C1271.55 260.061 1291.21 255.848 1311.13 253.433C1347.41 249.04 1385.42 250.297 1427.32 257.276C1461.95 262.959 1502.6 271.456 1541.49 291.413C1579.08 310.778 1613.14 337.779 1646.08 363.892C1652.05 368.628 1658.23 373.526 1664.26 378.237C1744.46 440.929 1825.77 511.966 1905.94 589.375L1905.75 589.56Z" fill="#A1A1A1"/>
<path d="M1902.94 587.168C1823.47 508.909 1743.48 436.996 1665.19 373.433C1658.53 368.026 1651.69 362.351 1645.08 356.863C1613.56 330.723 1580.97 303.694 1544.44 285.098C1505.56 265.397 1464.84 259.112 1430.14 255.562C1345.12 246.631 1269.99 260.917 1200.45 299.237C1145.09 329.887 1097.62 370.891 1051.72 410.546C1042.45 418.555 1032.87 426.839 1023.55 434.734C1017.85 439.566 1012.79 443.809 1008.1 447.705C986.263 465.801 957.217 489.003 926.178 507.965C894.991 527.015 865.493 539.649 836.001 546.584C803.835 554.149 771.732 554.204 743.166 546.749C727.283 542.602 712.544 536.137 699.356 527.531C685.118 518.239 672.543 506.345 661.977 492.182C661.019 490.892 660.059 489.559 659.125 488.223C642.927 465.059 632.039 438.746 621.512 413.301C618.966 407.146 616.334 400.782 613.679 394.599C599.719 361.98 584.56 333.953 567.335 308.92C565.155 305.75 562.897 302.571 560.623 299.468C519.185 242.89 463.034 195.835 398.24 163.395C321.959 125.342 241.999 109.458 173.087 118.663C126.386 125.037 79.756 151.802 57.0579 185.261C41.2626 208.545 36.9941 234.571 44.714 260.526L44.4593 260.595C40.4243 247.032 39.6019 233.487 42.0133 220.338C44.2418 208.184 49.2292 196.336 56.835 185.122C68.4865 167.945 86.16 152.48 107.946 140.398C128.153 129.192 151.275 121.38 173.05 118.409C209.238 113.574 248.249 115.57 289 124.339C325.793 132.257 362.588 145.319 398.362 163.166C463.194 195.627 519.376 242.707 560.841 299.321C563.115 302.424 565.372 305.606 567.555 308.777C584.789 333.826 599.955 361.866 613.923 394.5C616.578 400.683 619.21 407.049 621.757 413.205C632.278 438.637 643.16 464.937 659.343 488.079C660.276 489.414 661.234 490.743 662.192 492.033C700.006 542.729 764.957 563.029 835.937 546.337C900.647 531.119 956.84 489.846 1007.92 447.514C1012.62 443.619 1017.67 439.378 1023.37 434.546C1032.69 426.651 1042.27 418.37 1051.54 410.361C1097.45 370.698 1144.92 329.684 1200.32 299.021C1219.06 288.693 1238.44 280.001 1257.92 273.18C1276.55 266.659 1295.89 261.639 1315.39 258.259C1351.66 251.974 1389.21 251.011 1430.17 255.313C1464.89 258.866 1505.64 265.153 1544.56 284.877C1581.12 303.485 1613.72 330.525 1645.25 356.675C1651.86 362.163 1658.7 367.836 1665.36 373.242C1743.66 436.811 1823.66 508.729 1903.13 586.993L1902.94 587.168Z" fill="#A1A1A1"/>
<path d="M1900.13 584.776C1821.37 505.654 1742.7 432.864 1666.3 368.427C1659.28 362.506 1652.06 356.236 1645.07 350.172C1614.71 323.81 1583.31 296.55 1547.51 278.553C1508.46 259.02 1467.72 254.975 1433.01 253.594C1351.2 250.099 1277.12 267.751 1206.52 307.558C1157.01 335.608 1112.87 371.109 1070.18 405.439C1055.51 417.245 1041.64 428.395 1027.54 439.281C1021.81 443.713 1016.59 447.694 1011.57 451.45C979.22 475.663 952.304 493.17 926.862 506.542C894.946 523.32 864.931 533.808 835.102 538.602C823.53 540.461 812 541.388 800.681 541.388C780.614 541.388 761.198 538.483 743.322 532.729C710.973 522.314 684.29 503.099 664.014 475.615C663.059 474.312 662.107 472.979 661.184 471.649C645.232 448.685 634.039 422.839 623.216 397.841C620.473 391.508 617.639 384.961 614.782 378.595C600.226 346.053 584.712 318.259 567.362 293.625C565.149 290.483 562.86 287.332 560.554 284.257C518.557 228.195 461.97 181.785 396.916 150.047C320.113 112.726 239.932 97.713 171.14 107.774C124.245 114.775 78.9599 141.032 55.7763 174.669C39.66 198.049 34.8265 224.231 41.793 250.384L41.5357 250.447C37.8985 236.79 37.4157 223.164 40.1031 209.946C42.5915 197.712 47.7885 185.797 55.5562 174.53C67.3297 157.447 84.9263 142.033 106.446 129.951C126.436 118.726 149.397 110.763 171.1 107.523C207.246 102.236 246.299 103.78 287.172 112.111C324.055 119.631 361.018 132.317 397.038 149.819C462.13 181.576 518.748 228.012 560.772 284.107C563.077 287.185 565.367 290.336 567.582 293.48C584.942 318.127 600.464 345.936 615.026 378.491C617.883 384.857 620.719 391.406 623.46 397.74C634.278 422.725 645.465 448.56 661.404 471.504C662.327 472.832 663.277 474.165 664.232 475.465C702.094 526.791 764.357 549.712 835.057 538.348C902.358 527.53 961.968 488.249 1011.41 451.247C1016.42 447.491 1021.64 443.512 1027.38 439.081C1041.48 428.195 1055.34 417.047 1070.01 405.241C1112.71 370.903 1156.85 335.398 1206.38 307.337C1224.98 296.85 1244.07 287.784 1263.12 280.389C1281.58 273.228 1300.6 267.4 1319.66 263.071C1356 254.815 1393.09 251.631 1433.02 253.337C1467.76 254.718 1508.54 258.769 1547.63 278.325C1583.46 296.334 1614.87 323.607 1645.25 349.979C1652.23 356.043 1659.45 362.313 1666.47 368.232C1742.87 432.674 1821.55 505.471 1900.32 584.598L1900.13 584.776Z" fill="#A1A1A1"/>
<path d="M1897.32 582.384C1818.17 501.266 1742.96 429.642 1667.41 363.42C1660.2 357.102 1653.1 350.649 1645.58 343.819C1616.21 317.114 1585.83 289.503 1550.58 272.01C1511.05 252.484 1468.51 250.859 1435.88 251.626C1357.8 253.221 1284.75 274.239 1212.58 315.883C1169.28 340.99 1129.29 371.14 1090.63 400.3C1070.31 415.625 1051.11 430.097 1031.54 443.832C1025.73 447.913 1020.33 451.631 1015.04 455.199C982.25 477.281 954.448 493.142 927.542 505.118C894.885 519.654 864.353 527.995 834.2 530.621C818.708 531.97 803.321 531.716 788.467 529.867C772.741 527.909 757.604 524.153 743.477 518.706C712.165 506.632 686.116 486.563 666.053 459.054C665.105 457.748 664.161 456.413 663.243 455.082C647.559 432.354 636.085 407.001 624.988 382.483C622.028 375.942 618.966 369.177 615.886 362.6C600.72 330.129 584.856 302.566 567.386 278.338C565.139 275.225 562.818 272.101 560.486 269.054C517.929 213.507 460.91 167.742 395.596 136.708C335.312 108.183 273.144 93.3 216.136 93.3C200.02 93.3 184.328 94.4884 169.193 96.8932C122.863 104.4 77.8624 130.751 54.5435 164.027C38.085 187.516 32.6651 213.875 38.8702 240.252L38.6102 240.308C35.371 226.544 35.2357 212.824 38.207 199.53C40.9607 187.207 46.3832 175.213 54.3206 163.885C66.2162 146.909 83.7305 131.558 104.975 119.489C125.028 108.094 147.219 100.194 169.146 96.6444C205.249 90.9053 244.344 91.9998 285.342 99.8923C322.313 107.008 359.448 119.316 395.713 136.477C461.064 167.529 518.117 213.319 560.701 268.899C563.036 271.946 565.36 275.072 567.607 278.188C585.084 302.429 600.956 330.004 616.131 362.491C619.211 369.068 622.275 375.833 625.235 382.377C636.327 406.884 647.795 432.227 663.466 454.937C664.384 456.265 665.328 457.601 666.273 458.904C703.792 510.344 764.989 536.388 834.179 530.365C904.192 524.268 967.532 486.878 1014.89 454.985C1020.18 451.418 1025.58 447.7 1031.39 443.622C1050.96 429.891 1070.15 415.417 1090.47 400.094C1129.14 370.932 1169.13 340.774 1212.45 315.659C1249.61 294.219 1286.07 278.594 1323.93 267.888C1360.44 257.563 1397.06 252.159 1435.88 251.367C1458.02 250.846 1476.09 251.75 1492.74 254.209C1514.24 257.383 1533.2 263.129 1550.71 271.779C1585.99 289.288 1616.38 316.914 1645.77 343.631C1653.28 350.462 1660.38 356.912 1667.59 363.23C1743.15 429.454 1818.36 501.083 1897.51 582.206L1897.32 582.384Z" fill="#A1A1A1"/>
<path d="M1894.5 579.992C1816.08 497.984 1742.15 425.508 1668.51 358.412C1661.22 351.774 1654.04 344.935 1646.43 337.696C1617.94 310.57 1588.47 282.517 1553.65 265.463C1513.79 246.029 1471.3 246.806 1438.74 249.652C1365.06 255.871 1293.06 280.257 1218.64 324.199C1181.97 345.954 1147.06 370.85 1113.3 394.928C1086.61 413.961 1061.4 431.94 1035.54 448.372C1029.69 452.09 1023.96 455.645 1018.51 458.936C985.656 478.754 956.122 493.388 928.221 503.678C894.813 515.999 863.764 522.2 833.298 522.632C817.798 522.85 802.472 521.509 787.756 518.642C772.33 515.636 757.484 510.935 743.631 504.668C713.393 490.988 687.976 470.066 668.087 442.481C667.153 441.178 666.214 439.84 665.299 438.502C649.91 416.051 638.186 391.234 626.848 367.234C623.641 360.443 620.322 353.419 616.987 346.591C601.2 314.181 584.983 286.852 567.41 263.037C565.131 259.952 562.778 256.857 560.414 253.837C517.297 198.806 459.844 153.686 394.269 123.356C316.423 87.4995 235.794 74.2337 167.241 86.0012C121.51 93.9876 76.8092 120.407 53.3603 153.305C36.5304 176.919 30.5084 203.476 35.9415 230.109L35.6815 230.157C32.8482 216.275 33.0657 202.448 36.3314 189.062C39.3637 176.637 45.017 164.557 53.1401 153.161C65.1524 136.307 82.5792 121.032 103.537 108.988C123.359 97.5961 145.37 89.5615 167.193 85.7498C203.256 79.5613 242.392 80.2013 283.511 87.6569C320.572 94.3761 357.875 106.309 394.384 123.125C459.997 153.47 517.483 198.618 560.624 253.682C562.99 256.702 565.346 259.8 567.625 262.888C585.208 286.715 601.431 314.056 617.226 346.479C620.563 353.308 623.88 360.332 627.089 367.125C638.423 391.114 650.14 415.921 665.519 438.357C666.434 439.693 667.374 441.031 668.305 442.331C706.22 494.917 764.814 523.348 833.293 522.373C888.858 521.586 947.667 501.357 1018.37 458.715C1023.82 455.424 1029.55 451.872 1035.39 448.154C1061.24 431.724 1086.45 413.75 1113.14 394.718C1146.9 370.637 1181.82 345.735 1218.5 323.975C1256.02 301.819 1291.9 285.049 1328.18 272.7C1364.94 260.191 1401.1 252.565 1438.72 249.391C1471.31 246.539 1513.85 245.765 1553.77 265.229C1588.63 282.304 1618.11 310.369 1646.62 337.508C1654.23 344.747 1661.41 351.583 1668.69 358.219C1742.34 425.317 1816.27 497.799 1894.69 579.811L1894.5 579.992Z" fill="#A1A1A1"/>
<path d="M1891.69 577.599C1814 494.701 1741.36 421.366 1669.62 353.407C1662.34 346.507 1655.14 339.338 1647.53 331.748C1619.84 304.137 1591.21 275.587 1556.73 258.918C1516.49 239.556 1474.07 242.742 1441.61 247.682C1372.29 258.03 1303.36 284.988 1224.7 332.52C1195.2 350.428 1166.38 370.073 1138.5 389.07C1104.64 412.143 1072.65 433.938 1039.54 452.92C1033.57 456.343 1027.66 459.629 1021.98 462.682C988.54 480.645 958.092 493.586 928.903 502.24C912.553 507.088 896.413 510.6 880.931 512.68C864.416 514.897 848.088 515.559 832.399 514.65C800.567 512.804 770.754 504.724 743.79 490.635C714.669 475.419 689.886 453.647 670.13 425.916C669.201 424.603 668.27 423.263 667.36 421.932C652.3 399.811 640.367 375.583 628.829 352.155C625.336 345.062 621.725 337.728 618.093 330.593C601.669 298.236 585.099 271.138 567.436 247.748C565.126 244.688 562.738 241.62 560.345 238.631C516.668 184.113 458.782 139.638 392.948 110.016C314.582 74.8938 233.732 62.5016 165.293 75.1198C92.0125 88.8402 20.6047 148.122 33.0202 219.974L32.7576 220.015C29.6511 202.041 31.471 184.334 38.1642 167.381C44.2764 151.898 54.307 137.327 67.9773 124.077C80.6873 111.756 95.9361 101.118 113.297 92.4588C129.808 84.2235 147.771 78.1392 165.24 74.8684C201.261 68.2279 240.439 68.4184 281.683 75.4372C318.834 81.7578 356.306 93.3146 393.059 109.788C458.931 139.43 516.851 183.93 560.555 238.479C562.95 241.47 565.338 244.538 567.651 247.6C585.322 271.001 601.9 298.114 618.332 330.484C621.964 337.619 625.574 344.953 629.068 352.048C640.603 375.469 652.53 399.687 667.583 421.795C668.49 423.126 669.419 424.466 670.347 425.777C708.318 479.068 765.875 510.539 832.415 514.399C888.746 517.662 950.712 500.676 1021.85 462.463C1027.53 459.411 1033.43 456.128 1039.4 452.704C1072.51 433.728 1104.49 411.934 1138.34 388.864C1166.22 369.864 1195.06 350.217 1224.56 332.307C1303.25 284.754 1372.21 257.786 1441.57 247.43C1463.38 244.111 1481.44 243.05 1498.41 244.093C1520.09 245.427 1539.21 250.201 1556.85 258.69C1591.36 275.376 1620.01 303.944 1647.72 331.57C1655.33 339.158 1662.52 346.327 1669.8 353.224C1741.55 421.188 1814.19 494.526 1891.88 577.429L1891.69 577.599Z" fill="#A1A1A1"/>
<path d="M1888.88 575.208C1811.92 491.405 1740.56 417.217 1670.72 348.399C1663.5 341.279 1656.36 333.821 1648.8 325.921C1621.86 297.782 1594 268.683 1559.8 252.372C1518.69 232.847 1474.3 239.218 1444.48 245.709C1363.56 263.109 1291.04 303.561 1230.77 340.842C1209.11 354.296 1187.5 368.547 1166.61 382.328C1124.69 409.974 1085.1 436.087 1043.54 457.469C1037.42 460.615 1031.34 463.629 1025.46 466.43C991.363 482.629 960.003 493.873 929.59 500.801C895.113 508.655 862.114 510.631 831.503 506.669C800.055 502.599 770.598 492.482 743.952 476.598C716.004 459.939 691.855 437.316 672.17 409.355C671.252 408.042 670.326 406.699 669.422 405.363C654.735 383.649 642.654 360.086 630.968 337.297C627.14 329.829 623.179 322.109 619.2 314.595C601.89 281.832 585.45 255.734 567.466 232.458C565.124 229.426 562.707 226.389 560.279 223.426C516.037 169.426 457.716 125.596 391.622 96.6745C312.736 62.2886 231.664 50.7674 163.341 64.2363C89.7978 78.9267 19.8491 137.404 30.0945 209.84L29.8319 209.873C27.2904 191.902 29.4897 174.212 36.366 157.297C42.6692 141.799 52.7582 127.213 66.3568 113.947C79.0376 101.576 94.2069 90.8593 111.445 82.0908C127.859 73.7412 145.787 67.4816 163.288 63.9849C199.269 56.8924 238.487 56.6334 279.853 63.2129C317.094 69.1348 354.736 80.3157 391.733 96.4434C457.867 125.38 516.22 169.235 560.484 223.268C562.911 226.234 565.33 229.274 567.676 232.306C585.67 255.592 602.115 281.705 619.433 314.481C623.413 321.995 627.374 329.717 631.202 337.185C642.885 359.966 654.964 383.522 669.639 405.226C670.544 406.561 671.467 407.902 672.385 409.215C710.65 463.568 767.17 498.089 831.534 506.418C889.261 513.889 952.655 500.732 1025.34 466.202C1031.22 463.403 1037.3 460.391 1043.41 457.245C1084.96 435.869 1124.55 409.761 1166.46 382.117C1187.35 368.336 1208.96 354.082 1230.62 340.626C1271.15 315.56 1304.86 297.04 1336.71 282.345C1374.21 265.046 1409.44 252.982 1444.42 245.46C1465.74 240.818 1484.33 238.715 1501.24 239.035C1523.02 239.447 1542.21 243.733 1559.92 252.144C1594.16 268.474 1622.03 297.591 1648.99 325.748C1656.55 333.645 1663.69 341.104 1670.91 348.219C1740.76 417.039 1812.12 491.232 1889.08 575.037L1888.88 575.208Z" fill="#A1A1A1"/>
<path d="M1886.06 572.813C1809.85 488.104 1739.78 413.059 1671.83 343.389C1664.71 336.083 1657.65 328.366 1650.19 320.194C1623.96 291.489 1596.84 261.806 1562.88 245.825C1521.31 226.346 1477.04 235.302 1447.35 243.735C1374.03 264.383 1308.63 303.698 1236.83 349.161C1223.89 357.391 1210.79 365.885 1198.12 374.103C1149.4 405.703 1099.03 438.377 1047.53 462.014C1041.28 464.888 1035.02 467.633 1028.93 470.173C994.602 484.475 961.409 494.292 930.272 499.353C894.999 505.087 861.467 504.861 830.598 498.685C799.591 492.481 770.491 480.325 744.106 462.555C717.404 444.571 693.884 421.099 674.199 392.793C673.29 391.477 672.372 390.131 671.472 388.796C657.229 367.589 645.071 344.793 633.313 322.749C629.077 314.805 624.697 306.593 620.295 298.601C602.309 265.871 585.527 239.997 567.482 217.173C565.113 214.177 562.662 211.165 560.2 208.225C515.406 154.732 456.655 111.547 390.296 83.3322C310.892 49.6827 229.6 39.0351 161.389 53.3521C90.1797 68.4615 18.9391 124.887 27.1657 199.702L26.9031 199.728C24.9267 181.756 27.5053 164.087 34.5646 147.211C41.0562 131.695 51.2062 117.096 64.7306 103.815C89.6836 79.3149 124.893 60.8307 161.33 53.1007C197.269 45.5588 236.529 44.8477 278.02 50.988C315.351 56.5137 353.16 67.3163 390.402 83.0986C456.798 111.329 515.583 154.542 560.407 208.059C562.871 211.003 565.322 214.014 567.694 217.013C585.747 239.85 602.537 265.734 620.529 298.477C624.93 306.471 629.313 314.683 633.549 322.627C645.304 344.666 657.46 367.457 671.695 388.653C672.592 389.989 673.51 391.332 674.42 392.648C713.802 449.281 767.825 485.861 830.648 498.434C888.821 510.074 955.493 500.488 1028.82 469.939C1034.9 467.4 1041.16 464.657 1047.41 461.785C1098.89 438.156 1149.26 405.487 1197.96 373.892C1210.63 365.674 1223.73 357.18 1236.68 348.95C1268.11 329.049 1304.68 306.222 1340.97 287.164C1378.94 267.23 1413.71 252.946 1447.27 243.494C1468.4 237.494 1486.98 234.38 1504.08 233.979C1525.64 233.471 1545.45 237.382 1562.99 245.599C1578.2 252.758 1593.51 263.441 1609.8 278.261C1624.18 291.346 1637.5 305.928 1650.38 320.026C1657.84 328.195 1664.9 335.913 1672.02 343.216C1739.97 412.889 1810.05 487.936 1886.26 572.647L1886.06 572.813Z" fill="#A1A1A1"/>
<path d="M1883.25 570.421C1807.79 484.798 1738.99 408.898 1672.94 338.384C1665.94 330.918 1659.01 322.967 1651.67 314.552C1626.13 285.25 1599.72 254.95 1565.95 239.284C1534.39 224.69 1496.54 225.503 1450.22 241.768C1385.45 264.381 1327.56 302.205 1266.27 342.254C1258.64 347.241 1250.75 352.396 1242.9 357.488C1239.82 359.486 1236.74 361.49 1233.67 363.491C1175.27 401.503 1114.88 440.81 1051.53 466.565C1045.13 469.17 1038.69 471.646 1032.4 473.921C997.322 486.601 963.192 494.671 930.965 497.906C894.878 501.527 860.807 499.104 829.704 490.704C799.18 482.459 770.439 468.264 744.279 448.512C718.922 429.368 696.033 405.051 676.245 376.231C675.343 374.913 674.433 373.565 673.539 372.226C659.837 351.685 647.719 329.808 635.996 308.653C631.25 300.085 626.339 291.225 621.408 282.601C602.726 249.894 585.604 224.243 567.517 201.881C565.113 198.91 562.633 195.929 560.139 193.016C514.777 140.042 455.591 97.4998 388.972 69.9906C309.054 37.0801 227.536 27.3034 159.439 42.4686C89.5382 58.1646 18.3983 115.052 24.2426 189.568L23.9773 189.588C22.5687 171.614 25.524 153.966 32.7664 137.132C39.449 121.599 49.6573 106.982 63.1101 93.6907C87.957 69.1399 123.044 50.3814 159.378 42.2223C195.277 34.2283 234.577 33.0653 276.19 38.7688C313.612 43.8932 351.593 54.32 389.078 69.7569C455.735 97.2839 514.958 139.849 560.338 192.851C562.832 195.764 565.318 198.75 567.721 201.721C585.816 224.096 602.949 249.754 621.636 282.474C626.57 291.098 631.478 299.96 636.227 308.528C647.944 329.679 660.063 351.551 673.76 372.084C674.654 373.422 675.561 374.768 676.463 376.086C716.699 434.685 769.712 474.231 829.773 490.453C889.063 506.466 957.205 500.821 1032.31 473.678C1038.59 471.402 1045.03 468.929 1051.43 466.326C1114.75 440.582 1175.13 401.282 1233.52 363.275C1236.6 361.271 1239.67 359.27 1242.75 357.272C1250.6 352.18 1258.49 347.025 1266.12 342.041C1327.43 301.984 1385.33 264.15 1450.12 241.526C1471.05 234.177 1489.63 230.056 1506.92 228.921C1528.56 227.501 1548.46 230.912 1566.06 239.053C1581.19 246.069 1596.31 256.801 1612.29 271.862C1626.39 285.151 1639.35 300.014 1651.88 314.387C1659.21 322.8 1666.14 330.748 1673.13 338.211C1739.19 408.728 1807.99 484.63 1883.45 570.256L1883.25 570.421Z" fill="#A1A1A1"/>
<path d="M1880.44 568.028C1811.56 488.241 1742.12 409.291 1674.04 333.376C1667.11 325.692 1660.24 317.436 1652.97 308.698C1629.32 280.272 1602.51 248.055 1569.02 232.74C1537.1 218.171 1499.17 220.48 1453.08 239.794C1398.28 262.684 1349.78 296.342 1298.44 331.974C1282.36 343.132 1265.73 354.674 1248.96 365.807C1219.68 385.281 1188.01 405.888 1154.82 424.657C1119.27 444.759 1086.79 459.952 1055.52 471.11C1048.96 473.454 1042.34 475.661 1035.87 477.664C1000.04 488.744 964.986 495.049 931.668 496.405C894.785 497.903 860.176 493.302 828.797 482.718C770.853 462.931 720.209 421.531 678.275 359.666C677.381 358.346 676.479 356.995 675.59 355.657C662.583 336.022 650.677 315.308 639.164 295.275C633.744 285.846 628.141 276.095 622.503 266.605C603.111 233.906 585.644 208.481 567.536 186.594C565.098 183.648 562.585 180.695 560.063 177.813C514.149 125.349 454.528 83.4542 387.649 56.6484C307.213 24.4743 225.475 15.5738 157.49 31.5846C87.1642 48.2405 17.8071 104.374 21.3169 179.433L21.0516 179.443C20.2106 161.464 23.548 143.836 30.9681 127.045C37.8444 111.492 48.111 96.8597 61.4869 83.5583C74.0881 71.0264 89.0239 60.069 105.878 50.9881C122.241 42.1739 139.583 35.5613 157.423 31.3358C193.282 22.8923 232.625 21.2772 274.36 26.5414C311.872 31.2723 350.02 41.3206 387.75 56.4122C454.669 83.2333 514.324 125.154 560.264 177.643C562.787 180.528 565.305 183.483 567.743 186.429C585.859 208.329 603.334 233.763 622.734 266.473C628.372 275.965 633.975 285.717 639.394 295.148C650.908 315.179 662.811 335.89 675.813 355.517C676.699 356.858 677.604 358.206 678.495 359.527C720.398 421.343 770.996 462.71 828.885 482.476C888.514 502.588 960.059 500.841 1035.79 477.42C1042.26 475.417 1048.87 473.213 1055.43 470.871C1125.33 445.927 1189.29 405.187 1248.8 365.596C1265.57 354.463 1282.2 342.924 1298.28 331.766C1349.64 296.126 1398.14 262.461 1452.97 239.561C1499.14 220.216 1537.13 217.907 1569.13 232.509C1584.13 239.368 1599.03 250.12 1614.66 265.374C1628.45 278.825 1641.02 293.932 1653.18 308.538C1660.45 317.276 1667.31 325.529 1674.24 333.208C1742.32 409.126 1811.77 488.076 1880.64 567.866L1880.44 568.028Z" fill="#A1A1A1"/>
<path d="M1877.63 565.636C1809.8 485.407 1741.68 405.578 1675.15 328.368C1668.43 320.6 1661.77 312.2 1654.72 303.307C1631.65 274.218 1605.5 241.247 1572.09 226.191C1539.79 211.648 1501.79 215.452 1455.95 237.816C1407.91 261.214 1363.78 294.251 1321.1 326.205C1299.7 342.226 1277.57 358.793 1255.02 374.123C1219.43 398.344 1189.48 416.82 1160.77 432.272C1125.38 451.325 1092.25 465.516 1059.52 475.653C1052.8 477.735 1046.01 479.67 1039.34 481.405C1004.57 490.437 970.437 495.008 937.78 495.011C935.965 495.011 934.161 494.995 932.358 494.967C894.602 494.378 859.456 487.568 827.897 474.728C812.665 468.497 797.747 460.587 783.562 451.216C770.229 442.41 757.126 432.036 744.618 420.386C722.114 399.425 701.076 374.143 680.309 343.099C679.418 341.763 678.529 340.425 677.646 339.082C665.596 320.765 654.197 301.618 643.174 283.101C636.81 272.413 630.231 261.359 623.604 250.599C603.201 217.45 585.917 192.991 567.556 171.297C565.087 168.379 562.542 165.454 559.988 162.599C513.517 110.656 453.464 69.4062 386.325 43.3038C305.374 11.8687 223.413 3.84166 155.539 20.6981C86.5324 37.8847 17.2655 94.4446 18.393 169.293L18.1277 169.296C17.6025 134.432 32.0368 101.281 59.8682 73.426C72.4482 60.8357 87.3044 49.7995 104.028 40.6171C120.301 31.6835 137.608 24.8983 155.473 20.4493C191.29 11.5538 230.674 9.48926 272.532 14.3141C310.134 18.6488 348.452 28.3214 386.423 43.0651C453.604 69.1853 513.692 110.461 560.192 162.434C562.747 165.291 565.296 168.219 567.766 171.137C586.135 192.843 603.426 217.31 623.835 250.472C630.462 261.234 637.044 272.288 643.405 282.977C654.428 301.491 665.825 320.636 677.871 338.947C678.755 340.291 679.641 341.629 680.532 342.962C724.66 408.93 772.898 451.955 828.001 474.495C904.322 505.546 985.015 495.259 1039.27 481.161C1045.94 479.426 1052.72 477.494 1059.44 475.412C1134.73 452.095 1203.42 408.923 1254.86 373.917C1277.41 358.592 1299.54 342.025 1320.94 326.007C1363.63 294.048 1407.77 261.001 1455.83 237.593C1476.34 227.585 1494.91 221.439 1512.59 218.809C1534.39 215.563 1554.45 217.971 1572.2 225.965C1587.16 232.707 1601.91 243.545 1617.3 259.096C1630.85 272.799 1643.09 288.231 1654.93 303.157C1661.98 312.048 1668.64 320.445 1675.35 328.208C1741.88 405.418 1810.01 485.247 1877.83 565.476L1877.63 565.636Z" fill="#A1A1A1"/>
<path d="M1874.81 563.244L1676.25 323.363C1669.77 315.529 1663.33 307.005 1656.51 297.982C1634.01 268.205 1608.51 234.457 1575.17 219.65C1542.93 205.332 1503.78 210.782 1458.82 235.848C1415.59 259.945 1376.17 291.989 1338.04 322.98C1313.19 343.181 1287.49 364.067 1261.08 382.45C1181.72 437.702 1112.36 470.336 1042.81 485.153C1013.96 491.298 985.498 494.391 957.895 494.391C949.528 494.391 941.245 494.107 933.051 493.538C894.403 490.856 858.722 481.842 827.002 466.748C797.602 452.755 770.707 433.004 744.789 406.361C724.091 385.086 704.25 359.722 682.35 326.54C670.792 309.028 659.599 290.834 648.775 273.238C624.278 233.421 598.949 192.247 567.589 156.01C519.487 100.43 456.348 56.8441 384.999 29.9621C303.536 -0.731534 221.353 -7.88754 153.59 9.81456C87.9841 26.9529 16.778 80.9962 15.4674 159.159L15.2021 159.154C15.7884 124.217 30.6738 91.07 58.2479 63.2967C83.1797 38.1846 117.015 19.1036 153.521 9.56824C189.298 0.223279 228.725 -2.29326 270.702 2.09227C308.394 6.02833 346.882 15.3276 385.097 29.7259C420.401 43.0273 453.931 60.5364 484.758 81.7682C515.842 103.178 543.779 128.099 567.791 155.842C599.164 192.092 624.501 233.276 649.003 273.104C659.827 290.697 671.02 308.889 682.576 326.398C714.527 374.814 759.833 434.492 827.121 466.514C904.288 503.236 986.976 496.781 1042.76 484.899C1112.27 470.092 1181.6 437.471 1260.93 382.239C1287.32 363.864 1313.02 342.978 1337.87 322.782C1376 291.786 1415.44 259.734 1458.68 235.625C1503.72 210.515 1542.95 205.061 1575.28 219.416C1590.21 226.046 1604.82 236.978 1619.96 252.842C1633.28 266.806 1645.2 282.578 1656.73 297.83C1663.54 306.852 1669.98 315.372 1676.46 323.203L1875.02 563.084L1874.81 563.244Z" fill="#A1A1A1"/>
<path d="M1873.21 544.804C1822.65 478.012 1779.27 423.814 1736.69 374.243C1716.02 350.162 1694.91 326.459 1673.95 303.792C1667.61 296.936 1661.33 289.643 1654.68 281.921C1637.96 262.512 1620.68 242.443 1600.79 227.55C1590.11 219.538 1579.83 213.802 1569.37 210.013C1537.23 198.268 1499.53 206.034 1457.31 233.096C1435.46 247.08 1415.56 262.995 1398.98 276.718C1381.42 291.245 1364.11 307.266 1347.36 322.759C1323.29 345.03 1298.4 368.057 1271.65 387.834C1255.36 399.903 1238.86 410.688 1222.59 419.891C1190.04 438.301 1155.1 453.472 1118.75 464.98C1096.28 472.012 1073.71 477.327 1051.67 480.775C1032.66 483.736 1013.63 485.445 995.079 485.854C967.322 486.469 940.278 484.125 914.699 478.881C887.502 473.304 861.764 464.404 838.201 452.423C817.19 441.74 797.343 428.289 777.529 411.298C740.606 379.662 711.157 343.082 689.626 314.747C679.049 300.763 668.721 286.502 658.733 272.71C629.973 232.992 602.807 195.477 568.813 162.061C541.088 134.986 509.455 111.622 474.784 92.6117C448.141 78.0025 419.164 66.0547 388.658 57.0983C381.392 54.9677 373.988 52.9819 366.658 51.2018C335.099 43.5506 299.572 38.5683 261.065 36.3921C222.243 34.1473 188.655 36.0899 158.388 42.3368C141.277 45.8412 124.699 51.3389 109.108 58.6752C54.0656 84.577 18.7212 128.059 14.5615 174.992L14.2299 174.964C15.3388 162.453 18.5939 150.129 23.9023 138.331C28.9454 127.125 35.8721 116.317 44.4887 106.208C60.7695 87.1113 83.0643 70.5748 108.962 58.3883C124.577 51.0393 141.181 45.5339 158.319 42.0244C188.617 35.7725 222.232 33.8273 261.086 36.0747C299.614 38.2509 335.16 43.2383 366.74 50.8945C374.078 52.6772 381.485 54.663 388.756 56.7961C419.286 65.7576 448.287 77.7156 474.951 92.3374C509.646 111.36 541.305 134.745 569.044 161.838C603.059 195.274 630.23 232.799 659.001 272.528C668.986 286.319 679.314 300.578 689.888 314.56C711.408 342.881 740.845 379.443 777.747 411.059C797.54 428.032 817.365 441.471 838.352 452.141C884.467 475.587 937.193 486.824 995.068 485.537C1013.6 485.128 1032.62 483.419 1051.61 480.46C1073.64 477.012 1096.2 471.702 1118.64 464.676C1154.97 453.175 1189.89 438.015 1222.42 419.614C1238.68 410.419 1255.17 399.639 1271.44 387.58C1298.18 367.813 1323.07 344.791 1347.13 322.528C1363.88 307.033 1381.2 291.007 1398.76 276.474C1415.35 262.743 1435.25 246.824 1457.12 232.829C1475.92 220.78 1494.12 212.456 1511.22 208.085C1532.23 202.717 1551.84 203.266 1569.48 209.716C1579.98 213.517 1590.29 219.269 1601 227.298C1620.91 242.215 1638.21 262.296 1654.93 281.718C1661.58 289.437 1667.86 296.73 1674.2 303.582C1695.17 326.251 1716.28 349.956 1736.95 374.042C1779.53 423.619 1822.92 477.822 1873.48 544.618L1873.21 544.804Z" fill="#A1A1A1"/>
<path d="M1871.61 526.357C1824.74 458.436 1780.74 401.6 1737.1 352.602C1715.83 328.668 1693.8 305.661 1671.65 284.221C1665.77 278.533 1659.97 272.621 1653.83 266.364C1635.43 247.626 1616.4 228.251 1595.09 214.845C1584.33 208.047 1574.02 203.314 1563.56 200.373C1523.53 189.108 1482.87 210.45 1455.8 230.335C1436.62 244.383 1419.11 260.267 1401.37 276.664C1385.84 291.017 1371.23 306.456 1355.77 322.8C1332.81 347.061 1309.07 372.148 1282.21 393.212C1266.27 405.78 1249.63 416.646 1232.76 425.508C1201.34 442.019 1166.93 454.841 1127.56 464.709C1105.53 470.229 1082.97 474.163 1060.51 476.395C1041.56 478.256 1022.63 478.922 1004.27 478.365C976.952 477.548 950.248 473.871 924.897 467.438C898.273 460.681 872.869 450.808 849.393 438.093C828.825 426.956 808.966 413.136 788.679 395.848C751.836 364.494 720.275 329.735 696.897 302.954C688.244 293.041 679.728 283.066 671.491 273.416C638.688 234.99 607.705 198.692 570.039 168.113C541.889 145.258 510.285 125.934 476.111 110.677C450.253 99.1328 422.846 90.4836 392.327 84.2342C385.284 82.7943 378.118 81.4967 371.033 80.3768C339.909 75.4834 306.692 73.6322 266.504 71.7175C237.534 70.2675 199.611 69.3127 163.179 74.8537C145.924 77.4286 129.246 81.9005 113.602 88.1397C58.5225 110.113 21.1592 148.499 13.6515 190.825L13.2589 190.762C15.2486 179.538 19.2809 168.529 25.2367 158.039C30.9138 148.044 38.3738 138.46 47.4069 129.547C64.5737 112.614 87.4098 98.1729 113.448 87.7868C129.121 81.5348 145.832 77.0553 163.115 74.4753C199.582 68.9267 237.534 69.8841 266.522 71.3341C306.724 73.2488 339.951 75.1 371.096 79.9959C378.187 81.1183 385.358 82.416 392.41 83.8558C422.958 90.1129 450.391 98.7696 476.278 110.326C510.487 125.598 542.117 144.938 570.296 167.816C607.988 198.418 638.985 234.726 671.798 273.167C680.033 282.815 688.549 292.789 697.202 302.701C720.574 329.471 752.122 364.217 788.945 395.556C809.207 412.826 829.046 426.63 849.589 437.756C895.75 462.756 947.799 476.288 1004.28 477.98C1022.63 478.533 1041.53 477.87 1060.47 476.009C1082.91 473.779 1105.46 469.851 1127.46 464.333C1166.8 454.475 1201.18 441.664 1232.57 425.168C1249.42 416.315 1266.04 405.465 1281.96 392.91C1308.8 371.863 1332.53 346.787 1355.47 322.538C1370.95 306.187 1385.56 290.745 1401.1 276.385C1418.84 259.978 1436.37 244.089 1455.56 230.026C1473.11 217.133 1490.42 207.859 1507 202.456C1527.12 195.904 1546.19 195.079 1563.68 200C1574.17 202.953 1584.52 207.702 1595.31 214.52C1616.66 227.951 1635.7 247.344 1654.12 266.098C1660.26 272.352 1666.06 278.261 1671.94 283.947C1694.1 305.395 1716.13 328.409 1737.41 352.351C1781.05 401.361 1825.06 458.208 1871.95 526.144L1871.61 526.357Z" fill="#A1A1A1"/>
<path d="M1870.01 507.911C1826.14 437.938 1782.8 380.057 1737.52 330.963C1715.62 307.177 1692.69 284.868 1669.35 264.652C1664.36 260.33 1659.23 255.744 1654.26 251.31C1633.75 232.991 1612.54 214.05 1589.39 202.143C1578.52 196.515 1568.18 192.782 1557.77 190.733C1517.82 182.863 1479.45 206.424 1454.3 227.572C1437.25 241.848 1421.66 258.029 1406.59 273.68L1403.76 276.61C1390.08 290.808 1377.24 306.379 1363.65 322.868C1342 349.123 1319.62 376.269 1292.77 398.59C1277.15 411.673 1260.38 422.62 1242.93 431.127C1212.5 445.96 1178.64 456.544 1136.38 464.436C1114.52 468.517 1091.97 471.067 1069.35 472.011C1050.44 472.771 1031.64 472.39 1013.46 470.874C958.409 466.305 906.975 450.454 860.581 423.763C840.525 412.224 820.652 398.041 799.83 380.398C764.592 350.603 733.25 319.978 704.172 291.163C700.272 287.301 696.415 283.464 692.587 279.657C652.87 240.172 615.359 202.876 571.273 174.171C542.492 155.43 510.92 140.148 477.438 128.747C452.856 120.377 426.216 114.694 395.999 111.372C389.189 110.628 382.263 110.016 375.41 109.554C358.172 108.411 339.888 108.226 320.53 108.03C304.982 107.873 288.905 107.71 271.94 107.047C239.174 105.658 202.039 104.086 167.965 107.378C150.385 109.076 133.605 112.52 118.091 117.614C63.033 135.694 23.6482 168.988 12.7369 206.675L12.2886 206.556C15.1643 196.619 19.9713 186.926 26.5744 177.747C32.8882 168.968 40.8787 160.603 50.323 152.886C68.3865 138.127 91.7691 125.786 117.937 117.192C133.486 112.086 150.3 108.635 167.915 106.933C202.023 103.64 239.177 105.214 271.956 106.603C288.91 107.263 304.987 107.428 320.53 107.586C339.896 107.781 358.185 107.967 375.44 109.112C382.297 109.577 389.232 110.189 396.047 110.933C426.301 114.257 452.973 119.948 477.589 128.33C511.111 139.745 542.717 155.044 571.53 173.805C615.656 202.536 653.186 239.85 692.918 279.353C696.747 283.159 700.607 286.994 704.504 290.859C733.577 319.668 764.907 350.286 800.135 380.07C820.936 397.693 840.788 411.863 860.82 423.387C907.152 450.046 958.52 465.874 1013.5 470.437C1031.66 471.95 1050.44 472.331 1069.33 471.572C1091.92 470.627 1114.45 468.08 1136.28 464.005C1178.51 456.12 1212.33 445.548 1242.72 430.736C1260.13 422.247 1276.87 411.32 1292.47 398.26C1319.28 375.966 1341.65 348.836 1363.28 322.596C1376.88 306.1 1389.72 290.521 1403.42 276.313L1406.24 273.383C1421.32 257.725 1436.92 241.534 1453.99 227.242C1479.22 206.025 1517.73 182.396 1557.86 190.301C1568.32 192.361 1578.7 196.106 1589.61 201.757C1612.81 213.689 1634.04 232.651 1654.57 250.99C1659.54 255.424 1664.67 260.01 1669.66 264.33C1693.01 284.556 1715.96 306.877 1737.86 330.676C1783.16 379.791 1826.52 437.691 1870.4 507.687L1870.01 507.911Z" fill="#A1A1A1"/>
<path d="M1868.41 489.462C1828.13 418.433 1784.23 357.825 1737.94 309.328C1715.43 285.691 1691.58 264.078 1667.06 245.089C1663.52 242.346 1659.89 239.5 1656.38 236.747C1633.2 218.562 1609.23 199.756 1583.7 189.446C1572.75 184.974 1562.37 182.244 1551.99 181.096C1512.15 176.698 1476.06 202.44 1452.8 224.809C1438.35 238.629 1425.31 253.997 1412.7 268.86C1410.52 271.433 1408.34 274 1406.16 276.557C1394.17 290.605 1382.95 306.298 1371.08 322.911C1350.9 351.154 1330.03 380.357 1303.34 403.974C1287.67 417.841 1271.23 428.562 1253.1 436.755C1215.17 453.888 1177.26 460.229 1145.19 464.175C1123.49 466.841 1100.95 468.009 1078.19 467.639C1059.34 467.296 1040.65 465.866 1022.64 463.393C969.248 456.077 918.488 437.925 871.773 409.441C852.336 397.592 832.452 383.041 810.982 364.958C789.295 346.736 769.085 329.201 749.539 312.243C736.256 300.717 723.708 289.83 711.454 279.386C665.135 239.903 622.707 205.19 572.517 180.238C543.118 165.624 511.578 154.379 478.772 146.82C455.259 141.4 430.126 138.762 399.679 138.511C393.11 138.465 386.42 138.539 379.795 138.732C369.733 139.044 359.323 139.697 348.306 140.39C327.162 141.718 303.193 143.224 277.375 142.381C267.544 142.058 257.513 141.604 247.812 141.162C222.859 140.027 197.057 138.853 172.748 139.902C154.897 140.674 138.014 143.092 122.574 147.089C67.609 161.322 26.2054 189.527 11.8161 222.537L11.3253 222.341C15.0924 213.697 20.6741 205.322 27.9138 197.447C34.867 189.885 43.3881 182.742 53.2356 176.218C72.2117 163.648 96.1381 153.407 122.431 146.599C137.908 142.591 154.828 140.166 172.719 139.394C197.054 138.343 222.867 139.519 247.833 140.654C257.532 141.096 267.562 141.55 277.391 141.873C303.185 142.716 327.136 141.213 348.269 139.884C359.291 139.191 369.704 138.539 379.777 138.226C386.409 138.033 393.105 137.96 399.681 138.005C430.171 138.254 455.342 140.9 478.894 146.327C511.739 153.897 543.322 165.154 572.758 179.788C595.43 191.058 618.404 205.337 642.994 223.438C665.007 239.642 686.421 257.372 711.804 279.008C724.058 289.455 736.606 300.341 749.892 311.867C769.436 328.823 789.645 346.357 811.327 364.577C832.776 382.643 852.638 397.178 872.052 409.014C918.703 437.46 969.392 455.587 1022.71 462.892C1040.7 465.363 1059.36 466.79 1078.19 467.133C1100.93 467.504 1123.44 466.338 1145.11 463.672C1177.15 459.733 1215 453.4 1252.87 436.297C1270.95 428.128 1287.34 417.435 1302.97 403.603C1329.62 380.027 1350.47 350.847 1370.64 322.627C1382.52 306.004 1393.74 290.303 1405.74 276.24C1407.93 273.682 1410.11 271.115 1412.29 268.545C1424.9 253.672 1437.95 238.293 1452.41 224.456C1467.55 209.903 1483.08 198.707 1498.56 191.18C1516.91 182.264 1534.9 178.704 1552.04 180.599C1562.47 181.751 1572.9 184.494 1583.9 188.984C1609.5 199.321 1633.5 218.151 1656.7 236.358C1660.21 239.111 1663.84 241.958 1667.38 244.698C1691.92 263.703 1715.79 285.336 1738.31 308.99C1762.89 334.742 1786.97 364.082 1809.86 396.195C1830.1 424.578 1849.95 455.879 1868.86 489.223L1868.41 489.462Z" fill="#A1A1A1"/>
<path d="M1866.81 471.009C1829.53 397.943 1786.31 336.266 1738.35 287.69C1715.23 264.203 1690.47 243.289 1664.77 225.523C1663.55 224.677 1662.32 223.832 1661.1 222.984C1634.37 204.487 1606.73 185.36 1578.03 176.749C1566.91 173.412 1556.5 171.683 1546.21 171.459C1506.54 170.601 1472.7 198.494 1451.31 222.042C1438.72 235.818 1427.54 250.917 1416.73 265.518C1414.06 269.13 1411.3 272.862 1408.57 276.499C1398.18 290.349 1388.52 306.095 1378.3 322.769C1359.7 353.097 1340.46 384.456 1313.91 409.352C1298.55 423.756 1281.99 434.558 1263.27 442.379C1226.4 457.786 1188.96 461.831 1154 463.908C1132.44 465.188 1109.91 464.97 1087.03 463.261C1068.24 461.813 1049.67 459.338 1031.83 455.904C980.253 446.001 930.167 425.548 882.969 395.114C864.067 382.927 844.738 368.437 822.144 349.514C779.201 313.648 747.314 288.386 718.753 267.606C661.947 226.277 618.59 201.963 573.786 186.305C543.79 175.822 512.281 168.618 480.131 164.89C457.825 162.305 434.154 162.536 403.38 165.647C397.074 166.292 390.622 167.051 384.203 167.907C378.138 168.727 371.978 169.667 365.455 170.66C341.369 174.329 314.068 178.488 282.822 177.711C266.353 177.303 249.531 176.183 233.264 175.101C214.776 173.872 195.659 172.6 177.535 172.427C159.362 172.254 142.376 173.646 127.061 176.566C72.2787 187.006 28.8509 210.127 10.8935 238.413L10.3842 238.116C15.0479 230.767 21.4043 223.71 29.2754 217.141C36.8733 210.797 45.9196 204.878 56.165 199.543C76.067 189.177 100.543 181.035 126.944 176.005C142.302 173.08 159.325 171.683 177.54 171.856C195.68 172.028 214.808 173.301 233.304 174.532C249.566 175.614 266.38 176.734 282.836 177.143C314.026 177.917 341.297 173.763 365.356 170.098C371.882 169.103 378.048 168.166 384.115 167.343C390.543 166.487 397 165.728 403.311 165.08C434.132 161.967 457.844 161.734 480.197 164.326C512.393 168.059 543.946 175.274 573.985 185.771C618.85 201.45 662.252 225.79 719.108 267.154C747.68 287.941 779.578 313.211 822.531 349.087C845.11 367.996 864.418 382.47 883.298 394.644C930.432 425.035 980.444 445.46 1031.94 455.348C1049.76 458.776 1068.31 461.247 1087.07 462.695C1109.92 464.401 1132.42 464.619 1153.96 463.342C1188.87 461.267 1226.24 457.232 1263.03 441.861C1281.68 434.071 1298.19 423.304 1313.49 408.951C1339.98 384.108 1359.2 352.782 1377.78 322.487C1388.01 305.803 1397.67 290.044 1408.08 276.174C1410.81 272.54 1413.57 268.807 1416.24 265.196C1427.06 250.582 1438.24 235.472 1450.85 221.673C1464.82 206.305 1479.45 194.149 1494.36 185.54C1511.82 175.456 1529.28 170.533 1546.23 170.896C1556.57 171.119 1567.03 172.859 1578.2 176.211C1607 184.852 1634.68 204.004 1661.45 222.529C1662.67 223.377 1663.9 224.225 1665.12 225.069C1690.85 242.854 1715.64 263.794 1738.79 287.306C1786.78 335.926 1830.03 397.651 1867.34 470.767L1866.81 471.009Z" fill="#A1A1A1"/>
<path d="M1167.2 463.644C1165.71 463.644 1164.24 463.642 1162.8 463.634C1141.35 463.548 1118.83 461.948 1095.86 458.875C1077.14 456.323 1058.69 452.801 1041.01 448.41C1015.76 442.148 990.41 433.149 965.672 421.663C941.783 410.571 917.724 396.818 894.161 380.781C871.073 365.07 849.508 347.564 833.298 334.067C795.373 302.573 759.288 276.25 726.047 255.825C672.21 222.747 624.232 202.582 575.056 192.366C545.388 186.203 513.559 182.953 482.913 182.953C482.438 182.953 481.966 182.953 481.491 182.955C455.164 183.041 430.168 187.724 407.083 192.772C401.074 194.095 394.858 195.54 388.608 197.072C385.183 197.92 381.753 198.793 378.124 199.718C352.526 206.246 323.512 213.644 288.263 213.037C266.796 212.666 244.869 210.538 223.665 208.479C209.973 207.148 195.818 205.774 182.314 204.944C163.752 203.804 146.67 204.169 131.538 206.036C77.0478 212.75 31.5959 230.79 9.95101 254.294L9.45227 253.875C20.5546 241.821 37.2545 231.384 59.0878 222.852C79.9395 214.705 104.964 208.672 131.453 205.408C146.625 203.539 163.752 203.169 182.357 204.314C195.873 205.144 210.037 206.521 223.734 207.851C244.925 209.911 266.838 212.039 288.276 212.407C323.435 213.014 352.399 205.627 377.954 199.111C381.586 198.184 385.016 197.31 388.444 196.462C394.699 194.931 400.92 193.483 406.934 192.16C430.06 187.104 455.097 182.414 481.488 182.325C512.623 182.221 545.022 185.482 575.196 191.752C600.576 197.026 625.182 204.789 650.414 215.485C674.714 225.787 699.572 238.809 726.403 255.297C759.67 275.737 795.781 302.081 833.731 333.594C849.927 347.084 871.476 364.577 894.54 380.271C942.353 412.811 991.689 435.531 1041.18 447.803C1058.83 452.189 1077.26 455.706 1095.95 458.256C1118.89 461.323 1141.38 462.923 1162.8 463.007C1196.31 463.139 1235.23 462.057 1273.19 447.417C1292.4 440.008 1309.02 429.172 1324 414.294C1350.31 388.163 1367.75 354.626 1384.62 322.19C1393.3 305.506 1401.49 289.747 1410.4 276.105C1413.26 271.735 1416.14 267.232 1418.93 262.877C1428.34 248.164 1438.07 232.953 1449.28 218.893C1462.09 202.717 1475.84 189.596 1490.15 179.895C1506.73 168.648 1523.63 162.356 1540.39 161.193C1550.73 160.474 1561.23 161.208 1572.49 163.437C1602.57 169.395 1632.39 186.703 1662.84 205.436C1689.38 221.77 1715.8 242.58 1739.24 265.62C1765.27 291.138 1789.74 321.075 1811.94 354.598C1831.73 384.463 1849.85 417.338 1865.81 452.311L1865.2 452.565C1830.93 377.46 1788.4 314.711 1738.77 266.064C1715.36 243.057 1688.98 222.278 1662.48 205.972C1632.09 187.272 1602.32 169.997 1572.35 164.06C1561.16 161.843 1550.72 161.114 1540.44 161.827C1509.65 163.968 1477.46 184.37 1449.81 219.279C1438.62 233.314 1428.9 248.512 1419.49 263.21C1416.71 267.568 1413.82 272.072 1410.97 276.443C1402.07 290.059 1393.88 305.806 1385.22 322.474C1376.94 338.389 1368.38 354.847 1358.56 370.667C1347.43 388.603 1336.28 403.016 1324.48 414.736C1309.44 429.68 1292.74 440.564 1273.44 448.009C1256.42 454.576 1238.12 458.916 1217.5 461.283C1200.04 463.276 1182.51 463.644 1167.2 463.644Z" fill="#A1A1A1"/>
<path d="M1209.74 464.917C1196.21 464.917 1183.22 464.145 1171.59 463.363C1150.22 461.925 1127.71 458.941 1104.68 454.492C1086.04 450.838 1067.71 446.272 1050.18 440.917C1002.19 426.282 954.817 401.922 905.343 366.449C883.767 350.982 863.428 334.339 844.449 318.62C806.98 287.677 769.6 262.588 733.343 244.045C680.02 216.775 630.13 202.278 576.335 198.423C545.684 196.226 513.361 197.123 482.858 201.013C457.326 204.268 433.257 212.125 410.787 219.891C405.165 221.844 399.186 223.977 393.018 226.229C391.477 226.795 389.922 227.372 388.346 227.953C362.467 237.532 333.185 248.37 295.604 248.37C294.97 248.37 294.338 248.368 293.699 248.36C268.274 248.114 242.315 244.64 217.208 241.278C207.255 239.944 196.962 238.568 187.085 237.453C167.793 235.28 151.085 234.637 136.003 235.495C81.1497 238.619 34.8489 251.255 8.97796 270.171L8.53491 269.615C21.3245 260.265 39.8178 252.146 62.0092 246.138C83.8371 240.229 109.408 236.308 135.958 234.797C151.082 233.936 167.833 234.579 187.167 236.757C197.054 237.872 207.35 239.251 217.307 240.582C242.39 243.939 268.324 247.41 293.702 247.656C332.065 248.032 361.825 237.014 388.078 227.296C389.651 226.714 391.209 226.138 392.75 225.569C398.923 223.314 404.905 221.181 410.532 219.228C433.039 211.447 457.154 203.58 482.754 200.315C513.305 196.419 545.681 195.52 576.383 197.719C603.042 199.629 628.459 204.139 654.086 211.503C680.479 219.088 706.515 229.528 733.68 243.423C769.982 261.991 807.409 287.111 844.919 318.084C863.889 333.798 884.216 350.431 905.773 365.883C955.181 401.307 1002.49 425.632 1050.4 440.244C1067.9 445.589 1086.21 450.15 1104.82 453.799C1127.81 458.243 1150.29 461.224 1171.63 462.657C1207.55 465.069 1245.76 466.308 1283.34 452.959C1303.12 445.932 1319.86 435.028 1334.51 419.622C1360.61 392.178 1376.85 354.745 1391.18 321.718C1398.39 305.1 1405.21 289.404 1412.72 276.024C1415.43 271.197 1418.16 266.207 1420.8 261.382C1429.06 246.285 1437.59 230.676 1447.7 216.097C1459.39 199.113 1472.25 185.027 1485.93 174.23C1501.63 161.83 1517.99 154.171 1534.55 151.472C1544.9 149.783 1555.43 149.514 1566.76 150.642C1598.39 153.798 1630.53 169.395 1660.55 185.782C1688.27 200.911 1715.64 221.013 1739.69 243.913C1766.45 269.312 1791.11 299.549 1812.97 333.777C1832.52 364.387 1849.78 398.049 1864.27 433.835L1863.59 434.086C1832.8 358.021 1789.78 292.431 1739.18 244.406C1715.17 221.549 1687.86 201.485 1660.19 186.386C1630.24 170.037 1598.19 154.479 1566.68 151.335C1555.43 150.212 1544.96 150.482 1534.67 152.158C1504.1 157.142 1473.43 179.984 1448.31 216.478C1438.23 231.026 1429.7 246.62 1421.45 261.702C1418.81 266.529 1416.08 271.519 1413.37 276.352C1405.87 289.701 1399.06 305.382 1391.86 321.982C1377.5 355.06 1361.23 392.554 1335.05 420.089C1320.32 435.579 1303.49 446.544 1283.6 453.611C1266.34 459.741 1247.72 463.291 1226.67 464.457C1220.98 464.787 1215.32 464.917 1209.74 464.917Z" fill="#A1A1A1"/>
<path d="M1236.44 467.666C1236.25 467.666 1236.05 467.666 1235.86 467.666C1216.74 467.621 1197.98 465.381 1180.39 463.09C1159.04 460.312 1136.54 455.942 1113.51 450.107C1094.96 445.355 1076.74 439.741 1059.36 433.423C1013.29 416.696 967.906 390.863 916.533 352.119C898.032 338.17 879.825 323.15 862.215 308.627C860.013 306.809 857.809 304.993 855.604 303.177C817.941 272.242 779.265 248.385 740.652 232.27C687.777 210.205 634.452 201.114 577.627 204.479C546.469 206.325 514.175 211.371 484.237 219.07C460.616 225.147 439.568 234.896 414.503 247.009C409.423 249.474 403.998 252.136 397.435 255.386L397.069 255.569C384.406 261.882 370.054 269.035 353.957 274.475C335.469 280.722 317.532 283.728 299.14 283.693C270.46 283.624 241.19 278.515 212.887 273.571C205.952 272.359 198.779 271.107 191.855 269.975C171.998 266.732 155.189 265.094 140.468 264.97C86.2644 264.513 37.9766 272.202 7.98832 286.062L7.64343 285.376C22.3325 278.586 42.1469 273.075 64.9431 269.439C87.7818 265.795 113.902 263.987 140.476 264.21C155.239 264.335 172.091 265.975 191.99 269.226C198.919 270.358 206.093 271.61 213.03 272.821C241.299 277.758 270.531 282.862 299.143 282.931C299.27 282.931 299.4 282.931 299.527 282.931C340.453 282.931 371.633 267.39 396.703 254.893L397.071 254.711C403.637 251.458 409.062 248.796 414.145 246.331C439.252 234.197 460.337 224.431 484.033 218.336C514.021 210.622 546.368 205.568 577.579 203.72C605.387 202.074 631.616 203.328 657.771 207.559C685.955 212.117 713.171 219.972 740.97 231.574C779.657 247.72 818.4 271.615 856.124 302.601C858.329 304.417 860.533 306.235 862.735 308.053C880.337 322.571 898.539 337.586 917.024 351.525C968.331 390.22 1013.65 416.018 1059.64 432.717C1076.99 439.027 1095.19 444.632 1113.71 449.378C1136.72 455.206 1159.18 459.568 1180.49 462.341C1218.66 467.313 1256.03 470.762 1293.51 458.532C1313.85 451.894 1330.7 440.922 1345.02 424.984C1370.89 396.195 1385.02 356.304 1397.49 321.105C1403.32 304.627 1408.83 289.061 1415.05 275.98C1417.45 270.947 1419.85 265.742 1422.17 260.706C1429.43 244.962 1436.93 228.684 1446.13 213.336C1456.73 195.538 1468.7 180.484 1481.71 168.595C1496.55 155.045 1512.36 146.025 1528.71 141.789C1538.85 139.163 1549.19 137.883 1560.31 137.883C1560.55 137.883 1560.79 137.883 1561.03 137.886C1595.59 138.059 1631.15 153.087 1658.27 166.159C1687.17 180.088 1715.48 199.479 1740.16 222.237C1767.65 247.519 1792.5 278.053 1814.02 312.992C1833.33 344.346 1849.72 378.798 1862.75 415.396L1861.99 415.642C1842.61 361.187 1805.65 283.528 1739.6 222.788C1714.99 200.081 1686.74 180.736 1657.92 166.84C1630.87 153.803 1595.42 138.818 1561.03 138.648C1549.71 138.584 1539.21 139.859 1528.92 142.525C1498.63 150.375 1469.48 175.657 1446.82 213.715C1437.64 229.027 1430.15 245.287 1422.89 261.013C1420.57 266.051 1418.17 271.26 1415.78 276.295C1409.57 289.343 1404.07 304.889 1398.24 321.349C1385.75 356.611 1371.59 396.579 1345.63 425.48C1331.21 441.523 1314.25 452.57 1293.77 459.251C1276.41 464.911 1257.65 467.666 1236.44 467.666Z" fill="#A1A1A1"/>
<path d="M1257.67 471.243C1253.55 471.243 1249.35 471.116 1245.04 470.862C1226.18 469.752 1207.85 466.423 1189.18 462.817C1167.53 458.637 1145.66 453.045 1122.33 445.722C1103.87 439.876 1085.77 433.218 1068.53 425.927C1024.79 407.461 981.367 380.277 927.723 337.788C914.4 327.236 901.082 316.17 888.203 305.466C881.191 299.641 873.943 293.615 866.762 287.731C828.651 256.588 788.682 233.967 747.966 220.493C694.168 202.689 638.876 199.429 578.926 210.526C547.254 216.389 514.989 225.584 485.624 237.116C462.035 246.38 441.486 259.389 419.729 273.163L418.225 274.115C414.827 276.273 411.391 278.462 407.913 280.677C405.91 281.954 403.894 283.239 401.859 284.534C389.173 292.652 375.471 301.121 359.758 307.64C341.514 315.207 323.469 318.93 304.586 319.021C273.149 319.169 241.084 312.175 210.077 305.405C205.652 304.438 201.073 303.44 196.629 302.493C175.796 298.049 159.372 295.491 144.935 294.44C91.66 290.562 41.3825 293.295 6.99047 301.939L6.77026 301.142C41.2525 292.475 91.6335 289.732 145.002 293.617C159.478 294.671 175.945 297.236 196.818 301.688C201.264 302.637 205.843 303.635 210.271 304.603C240.898 311.289 272.558 318.199 303.578 318.199C303.912 318.199 304.246 318.199 304.583 318.196C344.706 318.003 373.267 301.837 401.385 283.848C403.419 282.553 405.436 281.268 407.438 279.991C410.916 277.774 414.349 275.588 417.75 273.427L419.254 272.474C441.048 258.678 461.632 245.646 485.298 236.352C514.716 224.797 547.036 215.587 578.765 209.713C638.866 198.588 694.306 201.859 748.25 219.711C789.067 233.22 829.128 255.892 867.324 287.104C874.506 292.99 881.756 299.014 888.768 304.841C901.642 315.542 914.957 326.607 928.272 337.15C981.852 379.591 1025.22 406.737 1068.88 425.173C1086.1 432.451 1104.17 439.102 1122.6 444.937C1145.9 452.251 1167.73 457.835 1189.35 462.007C1222.17 468.343 1263.01 476.23 1303.68 464.082C1324.59 457.837 1341.55 446.796 1355.54 430.325C1381.15 400.157 1393.03 357.727 1403.51 320.294C1408.06 304.031 1412.36 288.671 1417.38 275.923C1419.34 270.956 1421.3 265.819 1423.19 260.849C1429.55 244.183 1436.12 226.951 1444.56 210.561C1454.08 191.935 1465.17 175.914 1477.5 162.943C1491.47 148.245 1506.74 137.866 1522.87 132.094C1533.22 128.389 1543.83 126.106 1555.3 125.114C1570.67 123.783 1587.02 125.205 1605.3 129.451C1620.77 133.047 1637.35 138.628 1655.99 146.518C1686.06 159.243 1715.32 177.925 1740.62 200.544C1768.84 225.706 1793.88 256.542 1815.05 292.19C1834.12 324.291 1849.65 359.532 1861.22 396.94L1860.39 397.174C1835.97 318.199 1793.22 248.581 1740.03 201.148C1714.8 178.591 1685.62 159.962 1655.64 147.275C1615.47 130.276 1583.62 123.493 1555.38 125.936C1543.98 126.922 1533.45 129.189 1523.17 132.866C1484.79 146.597 1459.66 182.895 1445.34 210.925C1436.92 227.273 1430.35 244.485 1424 261.131C1422.1 266.103 1420.14 271.243 1418.19 276.212C1413.19 288.922 1408.89 304.265 1404.34 320.507C1393.84 358.021 1381.94 400.541 1356.2 430.846C1342.11 447.446 1325.01 458.576 1303.93 464.871C1289.65 469.137 1274.41 471.243 1257.67 471.243Z" fill="#A1A1A1"/>
<path d="M1276.07 475.341C1248.01 475.341 1221.04 468.441 1197.96 462.54C1176.26 456.988 1154.4 450.051 1131.15 441.333C1112.8 434.401 1094.81 426.696 1077.7 418.43C1026.41 393.681 980.68 358.158 938.908 323.455C930.379 316.37 921.762 309.066 913.432 302.004C901.866 292.197 889.904 282.057 877.918 272.286C839.236 240.835 797.976 219.446 755.286 208.712C700.06 194.829 642.798 197.397 580.227 216.564C548.01 226.432 515.778 239.777 487.012 255.155C464.826 267.014 446.054 281.986 426.182 297.837C424.773 298.96 423.362 300.087 421.942 301.215L421.173 301.829C416.342 305.686 411.347 309.673 406.282 313.675C394.148 323.307 380.785 333.269 365.33 340.88C347.388 349.714 329.301 354.12 310.028 354.349C276.198 354.753 241.718 345.649 208.377 336.845C206.04 336.228 203.713 335.613 201.397 335.006C179.41 329.232 163.371 325.809 149.395 323.904C97.4572 316.829 45.1847 314.605 5.98032 317.802L5.90076 316.916C45.1688 313.711 97.5182 315.938 149.525 323.023C163.541 324.932 179.614 328.363 201.641 334.148C203.957 334.755 206.284 335.369 208.624 335.989C241.902 344.775 276.315 353.856 310.014 353.46C351.869 352.962 381.345 332.309 405.688 312.99C410.753 308.988 415.748 305.001 420.579 301.146L421.348 300.531C422.767 299.401 424.179 298.277 425.587 297.154C445.495 281.275 464.298 266.278 486.559 254.378C515.377 238.972 547.671 225.604 579.943 215.718C609.608 206.632 637.471 201.386 665.122 199.68C695.967 197.778 726.38 200.528 755.519 207.854C798.345 218.621 839.727 240.071 878.517 271.608C890.511 281.384 902.476 291.527 914.045 301.336C922.375 308.399 930.986 315.699 939.513 322.782C981.243 357.447 1026.91 392.932 1078.12 417.635C1095.2 425.888 1113.16 433.583 1131.49 440.505C1154.7 449.21 1176.52 456.138 1198.2 461.681C1231.48 470.193 1272.91 480.788 1313.83 469.64C1335.31 463.789 1352.39 452.679 1366.04 435.675C1391.39 404.088 1400.87 359.047 1409.24 319.305C1412.61 303.338 1415.78 288.256 1419.7 275.871C1421.15 271.29 1422.6 266.557 1424.01 261.978C1429.51 244.071 1435.2 225.551 1442.98 207.793C1451.45 188.323 1461.64 171.33 1473.27 157.29C1486.39 141.446 1501.1 129.709 1517.01 122.403C1527.34 117.66 1537.99 114.371 1549.56 112.347C1565.15 109.623 1582.44 109.714 1600.97 112.619C1617.19 115.164 1634.93 119.96 1653.69 126.88C1684.93 138.402 1715.15 156.373 1741.06 178.851C1770.01 203.898 1795.25 235.03 1816.08 271.389C1834.89 304.236 1849.56 340.27 1859.68 378.488L1858.78 378.707C1837.35 297.725 1795.32 226.983 1740.44 179.512C1714.61 157.107 1684.5 139.194 1653.36 127.711C1613 112.827 1579.1 108.086 1549.72 113.223C1538.24 115.232 1527.67 118.498 1517.41 123.206C1479.57 140.588 1456.51 178.984 1443.84 208.136C1436.07 225.848 1430.39 244.342 1424.9 262.227C1423.49 266.806 1422.04 271.542 1420.59 276.128C1416.68 288.472 1413.51 303.533 1410.15 319.48C1406.13 338.599 1401.56 360.268 1394.94 380.583C1387.35 403.859 1378.14 422.057 1366.77 436.216C1360.2 444.403 1352.65 451.371 1344.33 456.927C1335.38 462.903 1325.21 467.468 1314.09 470.495C1301.37 473.962 1288.61 475.341 1276.07 475.341Z" fill="#A1A1A1"/>
<path d="M1292.65 479.838C1283.37 479.838 1273.65 478.974 1263.39 477.25C1243.17 473.855 1223.82 467.694 1206.75 462.263C1185.23 455.414 1162.76 446.894 1139.97 436.942C1121.73 428.933 1103.86 420.182 1086.87 410.929C1038.09 384.4 996.067 349.125 950.092 309.12C946.007 305.564 941.857 301.938 937.846 298.429C922.048 284.617 905.715 270.335 889.073 256.841C849.749 225.023 807.2 204.867 762.605 196.934C706.353 186.927 645.427 195.561 581.526 222.6C548.737 236.475 516.533 253.967 488.4 273.187C467.216 287.659 449.779 304.721 431.317 322.787C429.442 324.623 427.558 326.464 425.664 328.312C420.95 332.919 415.872 337.863 410.707 342.812C399.875 353.226 386.675 365.093 370.903 374.115C353.248 384.217 335.116 389.308 315.474 389.677C279.517 390.355 242.915 378.958 207.517 367.937L206.169 367.518C188.838 362.124 170.504 356.675 153.86 353.366C103.126 343.282 50.2514 336.281 4.97986 333.653L5.04087 332.703C50.3601 335.334 103.283 342.34 154.061 352.434C170.753 355.753 189.119 361.21 206.477 366.611L207.825 367.03C243.145 378.026 279.673 389.395 315.455 388.722C356.779 387.945 385.319 365.872 410.004 342.134C415.169 337.187 420.242 332.243 424.956 327.639C426.85 325.793 428.733 323.95 430.609 322.116C449.102 304.02 466.572 286.928 487.824 272.408C516.011 253.149 548.275 235.624 581.126 221.724C611.106 209.04 640.609 200.299 668.809 195.748C701.031 190.55 732.651 190.632 762.79 195.992C807.555 203.956 850.261 224.182 889.718 256.11C906.372 269.617 922.714 283.903 938.52 297.723C942.531 301.23 946.68 304.856 950.766 308.411C996.695 348.379 1038.67 383.615 1087.37 410.098C1104.34 419.337 1122.18 428.075 1140.39 436.074C1163.15 446.01 1185.58 454.517 1207.07 461.356C1240.75 472.077 1282.67 485.417 1324.01 475.196C1346.06 469.744 1363.24 458.568 1376.55 441.026C1401.62 407.975 1408.88 358.16 1414.71 318.132C1416.98 302.54 1419.12 287.814 1422.03 275.828C1422.95 272.05 1423.87 268.157 1424.77 264.391C1429.41 244.827 1434.21 224.596 1441.42 205.032C1452.54 174.588 1473.67 133.861 1511.17 112.726C1521.52 106.89 1532.21 102.593 1543.83 99.5919C1574.23 91.6258 1610.43 94.2033 1651.41 107.248C1683.82 117.566 1714.99 134.826 1741.53 157.165C1771.21 182.092 1796.65 213.524 1817.12 250.597C1826.52 267.601 1834.82 285.762 1841.8 304.577C1848.47 322.548 1853.97 341.21 1858.16 360.044L1857.18 360.243C1838.75 277.25 1797.45 205.383 1740.87 157.878C1714.43 135.623 1683.38 118.429 1651.1 108.15C1610.3 95.1631 1574.3 92.5933 1544.09 100.509C1532.55 103.487 1521.95 107.751 1511.67 113.543C1474.43 134.531 1453.42 175.05 1442.36 205.345C1435.17 224.857 1430.38 245.061 1425.74 264.599C1424.84 268.365 1423.92 272.26 1423 276.041C1420.1 287.987 1417.96 302.692 1415.69 318.261C1412.76 338.404 1409.44 361.233 1403.75 382.78C1397.23 407.539 1388.59 426.775 1377.36 441.584C1370.95 450.033 1363.45 457.158 1355.08 462.76C1346.06 468.796 1335.69 473.291 1324.26 476.115C1314.23 478.598 1303.75 479.838 1292.65 479.838Z" fill="#A1A1A1"/>
<path d="M1307.93 484.587C1296.81 484.587 1285.09 483.208 1272.57 480.443C1252.28 475.966 1232.76 468.535 1215.53 461.979C1193.85 453.726 1171.39 443.825 1148.79 432.547C1130.67 423.469 1112.92 413.672 1096.04 403.425C1049.58 375.251 1009.73 338.938 967.547 300.496C965.459 298.594 963.371 296.69 961.278 294.785C941.66 276.928 921.376 258.462 900.23 241.397C860.222 209.175 816.383 190.251 769.931 185.152C711.583 178.745 648.633 193.375 582.825 228.629C549.908 246.262 516.866 268.49 489.786 291.215C469.337 308.373 452.937 327.68 435.574 348.123C433.518 350.543 431.457 352.97 429.38 355.403C425.23 360.271 420.293 366.043 415.126 371.947C405.554 382.91 392.512 396.841 376.473 407.321C359.099 418.674 340.927 424.462 320.916 425.008C304.468 425.401 286.317 422.971 265.423 417.575C247.484 412.943 230.132 406.889 210.93 400.033C193.403 393.697 174.904 387.153 158.308 382.831C109.147 370.027 57.2193 358.816 3.97058 349.501L4.16158 348.503C57.4422 357.82 109.399 369.042 158.586 381.851C175.228 386.185 193.753 392.74 211.302 399.081C243.486 410.576 283.542 424.888 320.887 423.992C363.583 422.824 391.021 397.973 414.311 371.292C419.476 365.393 424.411 359.623 428.557 354.758C430.634 352.325 432.696 349.898 434.749 347.48C452.141 327.005 468.571 307.665 489.085 290.45C516.222 267.68 549.327 245.409 582.308 227.743C648.314 192.382 711.482 177.714 770.053 184.144C792.509 186.61 814.568 192.336 835.611 201.163C858.19 210.632 880.161 223.911 900.914 240.622C922.084 257.705 942.382 276.182 962.01 294.051C964.103 295.958 966.194 297.86 968.282 299.762C1010.43 338.171 1050.24 374.448 1096.61 402.57C1113.47 412.801 1131.19 422.585 1149.28 431.648C1171.86 442.908 1194.28 452.796 1215.93 461.037C1249.95 473.987 1292.3 490.105 1334.18 480.757C1356.86 475.694 1374.16 464.449 1387.06 446.384C1411.91 411.879 1416.33 359.169 1419.89 316.817C1421.16 301.669 1422.36 287.363 1424.36 275.793C1424.77 273.406 1425.18 271.006 1425.59 268.594C1429.31 246.803 1433.16 224.269 1439.84 202.278C1449.39 170.647 1468.49 127.757 1505.32 103.054C1515.59 96.1616 1526.31 90.8594 1538.08 86.8421C1554.46 81.2072 1572.7 78.5586 1592.31 78.9649C1610.21 79.3356 1629.32 82.2483 1649.12 87.6191C1682.7 96.7279 1714.81 113.277 1741.97 135.476C1772.39 160.281 1798.03 192.019 1818.16 229.802C1827.39 247.139 1835.39 265.674 1841.93 284.892C1848.19 303.297 1853.13 322.378 1856.62 341.604L1855.57 341.777C1840.38 258 1798.73 183.088 1741.29 136.248C1714.23 114.146 1682.26 97.6649 1648.82 88.5917C1607.6 77.4031 1569.43 77.1289 1538.44 87.7943C1526.75 91.7812 1516.11 97.0428 1505.92 103.881C1469.35 128.414 1450.36 171.084 1440.86 202.557C1434.19 224.49 1430.35 246.991 1426.63 268.754C1426.22 271.166 1425.81 273.569 1425.4 275.956C1423.41 287.482 1422.21 301.771 1420.94 316.896C1417.38 359.369 1412.94 412.232 1387.93 446.958C1381.71 455.666 1374.27 462.954 1365.83 468.614C1356.74 474.704 1346.17 479.122 1334.42 481.748C1325.93 483.637 1317.14 484.587 1307.93 484.587Z" fill="#A1A1A1"/>
<path d="M1322.28 489.531C1309.62 489.531 1296.2 487.571 1281.74 483.635C1261.28 478.066 1241.64 469.369 1224.31 461.697C1202.42 452.002 1179.97 440.714 1157.6 428.154C1139.61 418.022 1121.98 407.176 1105.2 395.924C1063.87 368.225 1028.56 334.291 991.164 298.363C985.051 292.49 978.729 286.418 972.458 280.448C950.413 259.473 931.588 242.177 911.381 225.953C870.659 193.304 825.533 175.612 777.253 173.367C716.587 170.546 651.605 191.166 584.115 234.653C550.588 256.258 517.575 282.744 491.161 309.235C471.261 329.192 455.705 350.916 439.236 373.915C437.196 376.765 435.148 379.624 433.086 382.486C429.415 387.593 424.555 394.322 419.538 401.069C398.426 429.531 370.844 458.833 326.353 460.331C324.965 460.374 323.573 460.394 322.182 460.394C287.44 460.394 251.971 447.233 215.685 432.537L213.419 431.613C195.446 424.269 178.468 417.334 162.752 412.286C103.526 393.261 46.2476 377.201 2.96313 365.337L3.27353 364.299C46.5687 376.168 103.863 392.23 163.11 411.262C178.868 416.323 195.865 423.268 213.862 430.62L216.125 431.544C253.741 446.778 290.475 460.366 326.313 459.254C370.311 457.771 397.662 428.695 418.617 400.447C423.631 393.705 428.486 386.981 432.158 381.876C434.219 379.012 436.264 376.155 438.305 373.306C454.8 350.271 470.381 328.511 490.344 308.491C516.811 281.944 549.89 255.405 583.484 233.756C614.663 213.665 645.853 198.238 676.186 187.9C710.99 176.038 745.013 170.787 777.306 172.288C825.836 174.543 871.189 192.321 912.102 225.122C932.338 241.372 951.182 258.685 973.249 279.679C979.523 285.649 985.845 291.723 991.959 297.597C1029.31 333.488 1064.6 367.389 1105.84 395.033C1122.6 406.272 1140.2 417.1 1158.17 427.217C1180.51 439.762 1202.92 451.032 1224.78 460.712C1259.11 475.91 1301.82 494.823 1344.34 486.309C1367.58 481.654 1384.98 470.344 1397.55 451.733C1422.09 415.655 1423.57 359.979 1424.75 315.243C1425.14 300.646 1425.5 286.857 1426.67 275.748L1426.7 275.494C1429.33 250.615 1432.04 224.891 1438.26 199.51C1443.65 177.372 1451.15 157.468 1460.56 140.347C1471.17 121.045 1484.26 105.24 1499.45 93.3686C1509.62 85.4253 1520.37 79.115 1532.33 74.0793C1564.64 60.3946 1604.22 58.2818 1646.81 67.9747C1663.95 71.8752 1680.86 77.7843 1697.07 85.5345C1713.37 93.3305 1728.63 102.835 1742.42 113.78C1773.58 138.466 1799.41 170.503 1819.19 209.002C1836.97 243.607 1849.38 283.081 1855.08 323.156L1853.97 323.3C1841.76 237.53 1800.84 161.465 1741.7 114.611C1714.05 92.6651 1681.14 76.9006 1646.55 69.031C1604.21 59.394 1564.87 61.484 1532.79 75.0748C1520.93 80.0723 1510.26 86.3319 1500.17 94.2116C1471.8 116.378 1450.77 152.877 1439.36 199.761C1433.16 225.077 1430.45 250.765 1427.83 275.608L1427.8 275.862C1426.63 286.931 1426.27 300.7 1425.88 315.276C1424.69 360.149 1423.21 415.993 1398.5 452.324C1392.44 461.298 1385.06 468.744 1376.56 474.452C1367.4 480.608 1356.64 484.953 1344.57 487.373C1337.38 488.81 1329.97 489.531 1322.28 489.531Z" fill="#A1A1A1"/>
<path d="M327.178 495.75C311.643 495.75 294.726 492.853 275.633 486.936C256.662 481.057 237.901 472.941 220.45 465.049C217.29 463.611 214.155 462.177 211.04 460.752C195.537 453.66 180.893 446.961 167.207 441.742C112.634 420.942 60.6163 402.247 10.3096 384.172L1.97424 381.175L2.39339 380.106L10.7288 383.103C61.0381 401.183 113.064 419.878 167.647 440.683C181.37 445.914 196.033 452.621 211.555 459.724C214.667 461.148 217.802 462.583 220.959 464.018C256.781 480.219 294.84 495.92 331.752 494.521C377.127 492.713 404.319 458.878 422.937 429.606C427.707 422.12 432.302 414.66 435.772 408.997C437.687 405.876 439.589 402.757 441.486 399.647C457.218 373.859 472.076 349.501 491.618 326.535C517.412 296.225 550.459 265.412 584.676 239.777C616.42 215.993 648.454 197.201 679.89 183.925C715.948 168.697 751.168 160.794 784.571 160.436C834.832 159.72 881.515 176.272 923.303 209.627C946.468 228.139 967.238 248.164 984.503 265.313C993.897 274.645 1003.29 284.211 1012.38 293.462C1044.54 326.213 1077.79 360.075 1115.09 387.503C1131.75 399.758 1149.24 411.633 1167.06 422.793C1189.12 436.575 1211.52 449.226 1233.65 460.394C1268.23 477.85 1311.27 499.574 1354.51 491.865C1378.31 487.621 1395.82 476.245 1408.06 457.085C1432.27 419.373 1430.64 360.647 1429.32 313.46C1428.94 299.506 1428.57 286.324 1429.01 275.712C1430 251.788 1431.5 223.984 1436.7 196.752C1441.07 173.676 1447.68 152.8 1456.33 134.704C1466.12 114.234 1478.66 97.0731 1493.61 83.6956C1503.51 74.8306 1514.61 67.3064 1526.59 61.3286C1543.69 52.7709 1562.88 47.3899 1583.63 45.3381C1603.06 43.4158 1623.55 44.4265 1644.52 48.3397C1662.2 51.6409 1679.64 57.0701 1696.33 64.48C1713.13 71.9357 1728.79 81.2248 1742.88 92.0883C1759.12 104.597 1774.05 119.369 1787.26 135.994C1799.78 151.746 1810.87 169.314 1820.23 188.207C1837.75 223.553 1849.27 263.843 1853.56 304.714L1852.37 304.828C1843.16 217.059 1802.98 139.844 1742.13 92.9796C1714.26 71.4913 1679.52 56.0366 1644.29 49.4621C1600.73 41.3335 1560.22 45.7876 1527.15 62.3419C1515.26 68.2713 1504.25 75.7371 1494.42 84.5311C1466.26 109.737 1447.23 147.561 1437.87 196.958C1432.69 224.116 1431.19 251.872 1430.2 275.757C1429.76 286.331 1430.13 299.493 1430.52 313.429C1431.16 336.708 1431.9 363.095 1429.44 388.603C1426.58 418.202 1419.92 440.798 1409.08 457.682C1403.18 466.92 1395.85 474.526 1387.31 480.285C1378.07 486.507 1367.11 490.78 1354.73 492.987C1348.48 494.102 1342.24 494.607 1336.03 494.607C1298.88 494.607 1262.87 476.43 1233.09 461.402C1210.94 450.216 1188.5 437.547 1166.41 423.746C1148.56 412.57 1131.05 400.678 1114.37 388.405C1076.99 360.921 1043.7 327.023 1011.51 294.242C1002.43 284.993 993.034 275.43 983.646 266.103C966.405 248.974 945.664 228.977 922.542 210.5C880.979 177.323 834.57 160.868 784.589 161.574C706.098 162.417 632.953 205.051 585.413 240.671C551.265 266.255 518.284 297.002 492.546 327.251C473.063 350.149 458.226 374.469 442.518 400.216C440.621 403.326 438.716 406.445 436.801 409.568C433.328 415.233 428.731 422.699 423.958 430.193C416.143 442.481 403.873 460.369 387.622 473.777C379.729 480.288 371.33 485.404 362.658 488.988C352.988 492.982 342.605 495.227 331.802 495.656C330.272 495.719 328.73 495.75 327.178 495.75Z" fill="#A1A1A1"/>
<path d="M332.166 531.103C316.612 531.103 299.729 527.982 280.737 521.613C261.073 515.021 241.633 505.752 225.212 497.553C220.166 495.028 215.131 492.469 210.26 489.993C196.645 483.073 183.784 476.534 171.658 471.196C128.111 452.024 84.8475 433.306 43.0061 415.203C29.166 409.215 14.8564 403.024 0.987061 397.011L1.50702 395.911C15.3763 401.924 29.686 408.115 43.5261 414.103C85.3674 432.207 128.636 450.927 172.186 470.102C184.344 475.455 197.221 481.999 210.852 488.929C215.72 491.405 220.755 493.962 225.795 496.486C259.853 513.485 299.357 531.479 337.185 529.785C383.629 527.657 409.715 490.712 427.256 458.763C431.752 450.579 436.1 442.362 439.385 436.117C441.072 432.912 442.748 429.71 444.422 426.516C459.47 397.783 473.681 370.644 492.893 344.582C517.881 310.687 550.901 275.605 585.866 245.8C634.56 204.471 709.82 154.059 791.831 148.592C843.987 145.022 891.991 160.344 934.504 194.139C953.604 209.329 972.493 226.851 995.753 250.957C1007.51 263.139 1019.17 275.765 1030.45 287.972C1059.8 319.732 1090.15 352.574 1124.34 379.986C1140.9 393.27 1158.27 406.188 1175.96 418.382C1197.38 433.133 1219.77 447.166 1242.51 460.092C1277.44 479.825 1320.92 504.389 1364.68 497.436C1388.67 493.703 1406.8 481.933 1418.57 462.456C1442.44 423.037 1437.32 358.546 1433.58 311.458C1432.53 298.243 1431.54 285.762 1431.34 275.694C1430.91 253.317 1430.94 223.811 1435.13 194.012C1442.35 142.373 1460.06 102.007 1487.76 74.0407C1497.47 64.1878 1508.61 55.6275 1520.86 48.596C1538.28 38.5806 1557.94 31.8436 1579.29 28.5754C1599.41 25.4977 1620.58 25.5459 1642.22 28.7202C1660.48 31.4576 1678.43 36.4196 1695.59 43.4639C1712.91 50.5792 1728.97 59.6449 1743.33 70.4093C1759.94 82.8473 1775.11 97.6697 1788.42 114.468C1801.03 130.387 1812.08 148.204 1821.27 167.427C1838.51 203.517 1849.15 244.619 1852.03 286.291L1850.77 286.369C1844.57 196.597 1805.13 118.229 1742.56 71.3616C1714.19 50.0993 1678.49 35.3784 1642.03 29.9137C1597.09 23.324 1555.41 30.1422 1521.51 49.632C1509.36 56.6052 1498.31 65.0969 1488.68 74.871C1461.16 102.652 1443.56 142.79 1436.38 194.174C1432.21 223.893 1432.17 253.339 1432.6 275.673C1432.8 285.707 1433.79 298.172 1434.84 311.37C1436.77 335.71 1438.96 363.3 1437.71 390.235C1436.25 421.599 1430.35 445.422 1419.66 463.063C1413.91 472.578 1406.64 480.348 1398.05 486.158C1388.74 492.459 1377.58 496.654 1364.89 498.629C1345.2 501.755 1324.02 498.947 1300.12 490.041C1279.34 482.299 1259.44 471.054 1241.88 461.135C1219.1 448.192 1196.68 434.139 1175.23 419.367C1157.51 407.155 1140.12 394.22 1123.53 380.918C1089.27 353.45 1058.89 320.572 1029.51 288.779C1018.24 276.575 1006.57 263.957 994.83 251.785C971.609 227.722 952.755 210.233 933.7 195.078C891.439 161.477 843.74 146.246 791.916 149.793C710.258 155.24 635.247 205.497 586.699 246.701C551.803 276.445 518.852 311.453 493.917 345.278C474.758 371.266 460.568 398.367 445.545 427.057C443.871 430.254 442.194 433.456 440.507 436.661C437.22 442.91 432.869 451.135 428.367 459.327C410.672 491.56 384.324 528.835 337.241 530.991C335.567 531.065 333.871 531.103 332.166 531.103Z" fill="#A1A1A1"/>
<path d="M337.254 566.46C294.754 566.46 250.162 541.474 210.631 519.323C198.484 512.518 187.01 506.088 176.107 500.651L0 412.847L0.612832 411.722L176.719 499.526C187.652 504.976 199.139 511.413 211.302 518.229C252.361 541.236 298.901 567.313 342.618 565.053C390.086 562.602 415.092 522.546 431.574 487.926C436.965 476.603 442.17 465.082 447.205 453.939C460.976 423.466 475.214 391.955 494.164 362.628C509.211 339.341 527.903 314.92 548.219 292.007C570.506 266.87 594.369 243.807 619.139 223.461C646.45 201.031 674.221 182.476 701.675 168.313C732.043 152.651 761.959 142.424 790.6 137.917C847.974 128.889 900.156 142.589 945.693 178.641C983.536 208.598 1015.7 245.643 1046.81 281.469C1073.88 312.652 1101.88 344.895 1133.58 372.458C1170.2 404.291 1209.83 433.67 1251.37 459.772C1286.38 481.766 1329.95 509.14 1374.85 502.987C1412.77 497.792 1434.69 473.505 1441.87 428.736C1447.98 390.655 1442.17 345.482 1437.5 309.186C1435.91 296.817 1434.41 285.133 1433.67 275.659C1429.6 223.428 1432.2 180.312 1441.6 143.849C1447.47 121.099 1456.13 100.819 1467.34 83.574C1479.85 64.3102 1495.93 48.2511 1515.11 35.8436C1531.7 25.1096 1550.4 17.3137 1570.69 12.6717C1590.01 8.25314 1610.35 6.77268 1631.14 8.27092C1672.03 11.2166 1712.04 25.5794 1743.78 48.7107C1760.74 61.075 1776.15 75.9508 1789.56 92.9215C1802.28 109.006 1813.29 127.074 1822.3 146.627C1839.27 183.461 1849.02 225.379 1850.48 267.845L1849.16 267.888C1846.03 177.455 1806.33 95.8977 1742.97 49.7239C1675.68 0.688294 1580.16 -4.7079 1515.85 36.8975C1452.13 78.1118 1425.69 156.18 1434.99 275.565C1435.72 285.009 1437.23 296.677 1438.81 309.031C1443.49 345.406 1449.31 390.675 1443.18 428.929C1439.84 449.764 1433.12 466.509 1423.22 478.701C1417.64 485.555 1410.93 491.156 1403.25 495.346C1395.09 499.806 1385.59 502.8 1375.03 504.247C1370.71 504.839 1366.32 505.136 1361.86 505.136C1345.59 505.136 1328.26 501.197 1309.27 493.218C1287.88 484.229 1267.23 471.258 1250.64 460.836C1209.04 434.696 1169.35 405.279 1132.68 373.4C1100.91 345.779 1072.88 313.498 1045.78 282.281C1014.71 246.501 982.589 209.502 944.841 179.621C899.61 143.816 847.786 130.205 790.807 139.171C675.55 157.308 556.822 268.066 495.283 363.298C476.384 392.544 462.165 424.012 448.412 454.444C443.374 465.592 438.167 477.121 432.771 488.455C421.828 511.439 411.02 527.896 398.758 540.243C391.104 547.947 382.801 554.022 374.078 558.295C364.379 563.047 353.815 565.749 342.679 566.325C340.88 566.414 339.068 566.46 337.254 566.46Z" fill="#A1A1A1"/>
</g>
</svg>
