<svg width="1920" height="353" viewBox="0 0 1920 353" fill="none" xmlns="http://www.w3.org/2000/svg">
<rect width="1920" height="353" fill="#E5E5E5"/>
<g clip-path="url(#clip0_9_100)">
<rect width="1920" height="10049" transform="translate(0 -215.852)" fill="white"/>
<rect width="1920" height="534" transform="translate(0 -123.852)" fill="#043873"/>
<g opacity="0.3">
<path d="M648.673 352.351C639.202 352.351 629.983 352.063 621.124 351.489C602.543 350.284 585.377 347.809 570.102 344.134C553.684 340.185 539.284 334.803 527.299 328.14C503.212 314.747 491.161 298.708 479.506 283.197C477.216 280.151 474.849 277.002 472.445 273.946C456.045 253.118 435.255 234.874 408.892 218.172C356.303 184.853 282.344 156.418 195.009 135.941C94.0064 112.26 -14.5879 100.464 -110.772 102.725C-167.304 104.055 -241.999 116.703 -275.382 138.302C-295.193 151.12 -296.791 165.346 -279.999 179.438L-280.332 179.497C-289.137 172.107 -292.973 164.698 -291.731 157.476C-290.591 150.851 -285.198 144.375 -275.697 138.228C-260.587 128.451 -235.668 119.785 -203.633 113.168C-174.032 107.053 -141.063 103.294 -110.794 102.582C-60.4578 101.4 -6.92279 104.024 48.3233 110.385C98.4032 116.152 147.82 124.709 195.199 135.817C282.586 156.306 356.589 184.757 409.208 218.095C435.585 234.809 456.386 253.063 472.797 273.902C475.204 276.958 477.571 280.108 479.857 283.154C491.502 298.654 503.545 314.682 527.6 328.055C550.862 340.99 582.351 348.826 621.186 351.344C674.966 354.833 740.274 347.537 795.879 331.827C876.011 309.189 931.624 276.237 985.408 244.372C994.836 238.787 1004.58 233.011 1014.23 227.434C1039.29 212.952 1073.22 194.186 1113.55 177.468C1154.77 160.38 1196.65 147.825 1241.6 139.084C1269.12 133.734 1298.28 130.13 1328.27 128.371C1355.97 126.746 1385.3 126.646 1415.43 128.069C1467.11 130.512 1522.78 137.414 1585.64 149.166C1709.42 172.309 1833.05 200.4 1953.12 232.659C2067.25 263.321 2179.18 298.016 2285.8 335.779L2285.55 335.884C2064.53 257.603 1828.99 194.826 1585.48 149.294C1447.91 123.57 1338.69 120.365 1241.77 139.21C1143.17 158.382 1074.29 192.98 1014.54 227.512C1004.89 233.088 995.143 238.863 985.716 244.449C931.917 276.325 876.286 309.287 796.099 331.941C770.187 339.262 741.036 344.972 711.801 348.453C696.357 350.292 681.005 351.495 666.166 352.028C660.252 352.245 654.415 352.351 648.673 352.351Z" fill="#FFE492"/>
<path d="M657.934 344.409C633.781 344.409 611.408 342.629 591.414 339.117C569.118 335.2 549.878 329.131 534.226 321.08C532.841 320.366 531.466 319.629 530.14 318.886C506.309 305.551 493.723 289.721 481.555 274.411C479.093 271.317 476.55 268.116 473.971 265.011C458.607 246.52 440.108 230.223 417.409 215.191C414.613 213.34 411.719 211.486 408.799 209.679C355.436 176.647 280.877 148.572 193.182 128.489C91.4504 105.212 -17.4517 93.9037 -113.464 96.6475C-169.586 98.2683 -243.936 111.122 -277.462 132.555C-297.537 145.39 -299.809 159.644 -284.039 173.777L-284.376 173.833C-292.642 166.426 -296.038 159.003 -294.466 151.772C-293.023 145.132 -287.41 138.642 -277.777 132.482C-262.513 122.722 -237.667 114.046 -205.933 107.395C-176.602 101.246 -143.776 97.3792 -113.497 96.5057C-63.2227 95.0693 -9.62904 97.443 45.793 103.56C95.9937 109.102 145.645 117.448 193.365 128.367C281.111 148.461 355.711 176.553 409.106 209.604C412.027 211.412 414.925 213.268 417.721 215.12C440.434 230.162 458.945 246.468 474.315 264.968C476.898 268.074 479.441 271.274 481.903 274.369C494.068 289.67 506.643 305.489 530.441 318.805C531.763 319.545 533.137 320.283 534.519 320.995C566.865 337.638 611.309 344.409 658.047 344.409C658.304 344.409 658.557 344.409 658.813 344.409C658.52 344.407 658.227 344.409 657.934 344.409ZM667.904 344.309C711.355 343.446 756.192 336.984 794.657 327.371C877.629 306.551 937.261 274.394 994.932 243.295C997.307 242.014 999.681 240.735 1002.06 239.456C1007.27 236.648 1013.45 233.324 1019.76 229.973C1048.06 214.947 1082.32 197.463 1121.77 181.726C1163.74 164.981 1205.68 152.555 1249.97 143.736C1277.18 138.324 1305.94 134.511 1335.44 132.404C1362.78 130.451 1391.67 129.9 1421.3 130.763C1472.49 132.256 1527.53 137.917 1589.57 148.07C1650.06 157.953 1699.78 167.257 1746.05 177.349C1811.59 191.659 1874.02 208.148 1926.45 222.389C2048.34 255.592 2167.93 293.295 2281.91 334.451L2281.66 334.555C2167.69 293.405 2048.11 255.704 1926.24 222.505C1873.82 208.265 1811.4 191.78 1745.87 177.473C1699.62 167.384 1649.91 158.084 1589.43 148.203C1454.29 126.085 1346.47 124.705 1250.14 143.864C1150.15 163.77 1078.95 198.793 1020.06 230.058C1013.74 233.409 1007.57 236.732 1002.35 239.541C999.978 240.818 997.603 242.099 995.229 243.381C937.539 274.489 877.885 306.657 794.855 327.493C774.267 332.638 752.359 336.725 729.738 339.639C708.681 342.348 687.924 343.915 667.904 344.309Z" fill="#FFE492"/>
<path d="M668.145 336.648C665.24 336.648 662.352 336.624 659.487 336.575C635.356 336.162 613.024 334.019 593.113 330.204C571.338 326.03 552.472 319.849 537.043 311.831C535.672 311.116 534.306 310.377 532.987 309.634C509.423 296.364 496.314 280.745 483.64 265.642C480.998 262.494 478.265 259.238 475.495 256.079C459.373 237.651 440.386 221.484 417.442 206.655C414.602 204.821 411.664 202.982 408.699 201.19C354.563 168.445 279.403 140.731 191.35 121.042C88.8926 98.1695 -20.3173 87.3473 -116.161 90.5733C-170.124 92.4181 -244.259 104.539 -279.507 126.79C-299.871 139.646 -302.835 153.938 -288.08 168.121L-288.421 168.173C-296.152 160.743 -299.102 153.303 -297.196 146.06C-295.445 139.398 -289.597 132.891 -279.818 126.717C-264.392 116.979 -239.627 108.301 -208.197 101.618C-179.142 95.4399 -146.466 91.468 -116.194 90.4329C-65.9783 88.7441 -12.326 90.8654 43.2682 96.7387C93.5935 102.056 143.476 110.191 191.533 120.92C279.638 140.622 354.838 168.352 409.007 201.115C411.971 202.908 414.914 204.748 417.753 206.584C440.708 221.422 459.706 237.598 475.835 256.037C478.605 259.197 481.339 262.453 483.98 265.601C496.651 280.696 509.75 296.303 533.284 309.558C534.603 310.301 535.962 311.038 537.332 311.75C600.027 344.333 711.135 340.834 793.433 322.915C879.867 303.93 944.101 272.375 1006.22 241.859L1006.86 241.546C1012.87 238.588 1019.1 235.531 1025.29 232.512C1090.63 200.664 1162.45 167.934 1258.33 148.386C1285.25 142.91 1313.62 138.889 1342.63 136.434C1369.62 134.151 1398.07 133.149 1427.19 133.455C1477.97 133.988 1532.37 138.409 1593.51 146.971C1657.76 155.937 1706.12 164.179 1750.29 173.695C1813.23 187.281 1874.19 204.448 1927.98 219.595C2047.74 253.501 2165.51 291.696 2278.03 333.118L2277.77 333.22C2165.27 291.803 2047.51 253.612 1927.76 219.709C1873.98 204.565 1813.03 187.4 1750.11 173.818C1705.95 164.305 1657.62 156.066 1593.39 147.103C1460.86 128.544 1354.45 128.991 1258.5 148.51C1162.68 168.044 1090.89 200.76 1025.57 232.597C1019.38 235.616 1013.16 238.675 1007.14 241.631L1006.51 241.945C975.549 257.151 943.54 272.875 908.974 286.921C870.128 302.704 832.392 314.518 793.609 323.036C753.033 331.87 708.834 336.648 668.145 336.648Z" fill="#FFE492"/>
<path d="M2273.89 331.882C2162.85 290.199 2046.91 251.517 1929.29 216.912C1924.31 215.458 1919.32 213.996 1914.31 212.529C1863.37 197.609 1810.69 182.181 1754.36 170.162C1699.71 158.535 1644.32 151.425 1597.35 146.004C1467.69 130.948 1362.69 133.221 1266.88 153.155C1168.54 173.679 1092.33 207.755 1031.1 235.137C1027.43 236.78 1023.76 238.426 1020.09 240.074C1017.37 241.291 1014.66 242.507 1011.94 243.723C977.081 259.329 945.368 273.282 910.329 286.014C870.3 300.559 831.718 311.211 792.37 318.58C755.495 325.487 716.103 329.141 679.463 329.143C672.787 329.143 666.21 329.022 659.747 328.777C636.151 327.882 614.306 325.368 594.82 321.304C573.558 316.87 555.066 310.571 539.849 302.582C538.49 301.866 537.134 301.126 535.822 300.381C512.537 287.181 498.918 271.782 485.75 256.89C482.914 253.683 479.979 250.364 477.011 247.144C460.12 228.774 440.642 212.736 417.471 198.114C414.587 196.295 411.601 194.473 408.596 192.696C353.684 160.239 277.926 132.885 189.517 113.589C86.3347 91.1204 -23.1792 80.7874 -118.854 84.4913C-184.261 87.0734 -251.144 102.084 -281.504 120.993C-302.187 133.876 -305.855 148.213 -292.118 162.456L-292.463 162.505C-299.655 155.048 -302.162 147.585 -299.912 140.324C-297.842 133.638 -291.752 127.109 -281.815 120.918C-266.229 111.209 -241.544 102.531 -210.429 95.8239C-181.652 89.6201 -149.145 85.5448 -118.891 84.3509C-68.734 82.4082 -15.0268 84.2786 40.7396 89.908C91.1859 95.0015 141.306 102.927 189.7 113.464C278.165 132.771 353.962 160.141 408.908 192.618C411.916 194.396 414.902 196.22 417.786 198.039C440.972 212.67 460.457 228.716 477.359 247.095C480.327 250.316 483.262 253.633 486.098 256.842C499.259 271.725 512.871 287.115 536.126 300.299C537.438 301.042 538.79 301.781 540.146 302.496C605.596 336.859 716.84 332.567 792.212 318.451C882.138 301.608 950.952 270.806 1011.67 243.629C1014.38 242.412 1017.1 241.196 1019.81 239.98C1023.48 238.333 1027.15 236.686 1030.83 235.043C1065.78 219.414 1100.29 204.226 1138.24 190.23C1181.87 174.134 1223.9 161.966 1266.71 153.03C1293.35 147.487 1321.31 143.257 1349.82 140.46C1376.47 137.843 1404.48 136.391 1433.09 136.142C1483.54 135.702 1537.31 138.884 1597.46 145.868C1644.45 151.292 1699.86 158.404 1754.54 170.039C1810.89 182.062 1863.58 197.494 1914.54 212.417C1919.54 213.884 1924.54 215.346 1929.52 216.8C2047.14 251.408 2163.1 290.094 2274.15 331.782L2273.89 331.882Z" fill="#FFE492"/>
<path d="M2270.01 330.546C2158.33 287.799 2044.22 248.626 1930.82 214.116C1924.04 212.051 1917.1 209.923 1910.38 207.865C1862.31 193.13 1812.6 177.892 1758.61 166.507C1704.69 155.178 1648.84 149.228 1601.31 144.903C1474.81 133.28 1371.2 137.378 1275.26 157.8C1183.75 177.35 1112.05 206.748 1042.72 235.177L1035.1 238.298C1029.09 240.764 1022.87 243.313 1016.74 245.812C947.34 274.079 877.863 300.571 791.132 314.122C770.086 317.41 748.475 319.689 726.894 320.898C703.719 322.196 681.208 322.214 659.982 320.952C636.928 319.581 615.578 316.701 596.525 312.392C575.79 307.702 557.668 301.289 542.667 293.331C541.315 292.611 539.97 291.869 538.67 291.126C515.671 278.004 501.561 262.831 487.916 248.158C484.871 244.884 481.72 241.497 478.54 238.209C460.864 219.896 440.903 203.987 417.512 189.575C414.588 187.774 411.558 185.966 408.505 184.203C352.82 152.035 276.465 125.04 187.693 106.137C83.7814 84.0755 -26.0404 74.229 -121.55 78.4135C-186.36 81.3133 -252.939 96.4291 -283.453 115.174C-304.48 128.089 -308.874 142.481 -296.159 156.796L-296.508 156.843C-303.161 149.353 -305.217 141.862 -302.619 134.579C-300.223 127.865 -293.88 121.311 -283.768 115.1C-268.012 105.424 -243.416 96.7539 -212.631 90.0269C-184.139 83.8004 -151.808 79.6273 -121.594 78.2745C-71.4962 76.0794 -17.734 77.6974 38.2083 83.0829C88.7791 87.9523 139.13 95.6663 187.865 106.013C276.689 124.927 353.087 151.938 408.806 184.125C411.858 185.889 414.892 187.699 417.816 189.499C441.221 203.919 461.194 219.836 478.877 238.16C482.057 241.448 485.208 244.835 488.253 248.11C501.89 262.775 515.993 277.94 538.967 291.047C540.264 291.787 541.608 292.527 542.957 293.247C606.832 327.133 712.964 326.182 790.989 313.991C877.651 300.452 947.098 273.97 1016.47 245.716C1022.6 243.216 1028.82 240.668 1034.83 238.202L1042.45 235.081C1076.48 221.127 1111.67 206.696 1149.89 193.271C1193.18 178.068 1234.13 166.424 1275.08 157.675C1301.44 152.063 1329.01 147.625 1357 144.485C1383.32 141.533 1410.9 139.63 1438.97 138.829C1489.21 137.395 1542.33 139.338 1601.39 144.764C1648.94 149.092 1704.82 155.044 1758.77 166.382C1812.8 177.771 1862.52 193.013 1910.61 207.753C1917.32 209.811 1924.26 211.938 1931.05 214.004C2044.45 248.517 2158.58 287.693 2270.26 330.444L2270.01 330.546Z" fill="#FFE492"/>
<path d="M2266.12 329.211C2155.41 285.989 2043.11 246.325 1932.35 211.321C1924.03 208.691 1915.49 205.956 1907.24 203.311C1861.76 188.734 1814.73 173.661 1762.85 162.854C1709.19 151.72 1653.08 146.977 1605.27 143.806C1482.28 135.524 1380.07 141.448 1283.63 162.449C1199.47 180.853 1130.37 206.936 1063.54 232.159C1056.51 234.813 1049.24 237.557 1042.15 240.216C1033.83 243.338 1027.47 245.711 1021.54 247.906C989.769 259.655 951.942 273.184 912.246 284.438C870.179 296.362 830.157 304.614 789.89 309.668C768.715 312.325 747.196 314.002 725.927 314.648C703.089 315.343 680.976 314.833 660.209 313.13C637.708 311.285 616.856 308.039 598.225 303.483C578.021 298.543 560.276 292.014 545.481 284.082C544.147 283.363 542.81 282.62 541.513 281.874C518.818 268.84 504.235 253.901 490.129 239.455C486.857 236.104 483.475 232.64 480.063 229.275C461.593 211.012 441.144 195.234 417.544 181.036C414.576 179.251 411.502 177.46 408.406 175.711C351.947 143.83 274.992 117.196 185.861 98.6856C81.2272 77.03 -28.9023 67.6726 -124.244 72.335C-178.493 75.0462 -249.348 87.5359 -285.351 109.325C-306.756 122.28 -311.893 136.738 -300.201 151.135L-300.549 151.177C-306.665 143.649 -308.262 136.125 -305.302 128.814C-302.568 122.066 -295.962 115.483 -285.659 109.248C-269.735 99.6116 -245.23 90.9561 -214.786 84.215C-186.58 77.9701 -154.443 73.7019 -124.288 72.1946C-74.2482 69.7471 -20.4274 71.1127 35.6834 76.2543C86.3752 80.8997 136.961 88.4037 186.033 98.5608C275.215 117.081 352.215 143.731 408.707 175.63C411.803 177.379 414.88 179.173 417.848 180.959C441.459 195.165 461.919 210.951 480.401 229.222C483.815 232.589 487.197 236.053 490.469 239.404C504.565 253.843 519.144 268.773 541.813 281.793C543.11 282.538 544.444 283.279 545.778 283.997C598.917 312.49 690.133 322.036 789.776 309.531C880.014 298.206 953.624 272.826 1021.29 247.801C1027.22 245.606 1033.57 243.234 1041.89 240.111C1048.98 237.452 1056.25 234.709 1063.28 232.054C1096.18 219.637 1130.2 206.797 1166.49 194.773C1207.51 181.176 1245.78 170.561 1283.46 162.323C1309.57 156.636 1336.73 151.99 1364.19 148.513C1390.2 145.219 1417.35 142.866 1444.87 141.518C1494.98 139.065 1547.47 139.766 1605.34 143.663C1653.17 146.837 1709.31 151.581 1763.02 162.725C1814.93 173.539 1861.98 188.616 1907.47 203.198C1915.72 205.842 1924.26 208.578 1932.58 211.208C2043.35 246.216 2155.66 285.883 2266.38 329.107L2266.12 329.211Z" fill="#FFE492"/>
<path d="M2262.24 327.875C2152.48 284.176 2042.01 244.019 1933.87 208.525C1924.67 205.506 1915.23 202.337 1906.09 199.273C1862.56 184.676 1817.56 169.583 1767.09 159.199C1713.39 148.198 1657.16 144.688 1609.23 142.706C1491.81 137.719 1388.04 145.697 1292 167.094C1215.53 184.209 1149.98 207.106 1086.58 229.249C1073.78 233.722 1060.54 238.347 1047.67 242.756C1039.79 245.454 1032.82 247.824 1026.33 249.999C996.173 260.104 956.055 273.06 913.186 283.648C870.112 294.286 829.372 301.34 788.639 305.213C744.213 309.437 699.874 309.468 660.42 305.305C638.484 302.989 618.126 299.379 599.912 294.574C580.248 289.385 562.88 282.743 548.286 274.835C546.964 274.115 545.637 273.37 544.348 272.624C521.975 259.689 506.938 244.996 492.399 230.788C488.882 227.351 485.247 223.797 481.579 220.344C462.299 202.13 441.363 186.48 417.572 172.501C414.561 170.731 411.442 168.956 408.302 167.223C351.07 135.63 273.518 109.355 184.028 91.2398C78.6723 69.9911 -31.765 61.1215 -126.942 66.2618C-191.443 69.821 -255.846 84.7667 -287.195 103.45C-309.011 116.452 -314.906 130.985 -304.244 145.478L-304.595 145.517C-310.168 137.943 -311.304 130.379 -307.974 123.037C-304.896 116.25 -298.007 109.634 -287.503 103.372C-271.41 93.7809 -247.001 85.1453 -216.912 78.3984C-189.003 72.1408 -157.067 67.779 -126.993 66.12C-77.012 63.4201 -23.1326 64.5347 33.1505 69.431C83.9668 73.8523 134.787 81.1465 184.196 91.1122C273.738 109.238 351.334 135.528 408.603 167.141C411.743 168.874 414.861 170.651 417.876 172.422C441.678 186.409 462.625 202.066 481.916 220.289C485.584 223.742 489.219 227.297 492.736 230.734C507.268 244.935 522.297 259.621 544.648 272.544C545.938 273.29 547.26 274.031 548.583 274.751C600.81 303.06 690.516 314.396 788.551 305.075C877.924 296.577 955.535 273.531 1026.09 249.893C1032.57 247.717 1039.55 245.349 1047.42 242.651C1060.29 238.242 1073.53 233.618 1086.33 229.146C1149.74 206.998 1215.31 184.096 1291.82 166.974C1317.7 161.207 1344.46 156.353 1371.37 152.544C1397.1 148.903 1423.81 146.099 1450.75 144.212C1500.84 140.702 1552.7 140.165 1609.27 142.567C1657.22 144.551 1713.5 148.062 1767.26 159.075C1817.76 169.467 1862.78 184.565 1906.33 199.168C1915.46 202.232 1924.91 205.4 1934.11 208.419C2042.25 243.916 2152.74 284.075 2262.5 327.778L2262.24 327.875Z" fill="#FFE492"/>
<path d="M2258.35 326.539C2149.58 282.357 2040.92 241.712 1935.4 205.73C1925.71 202.423 1915.73 198.922 1906.09 195.536C1864.15 180.816 1820.78 165.594 1771.33 155.544C1717.41 144.637 1661.13 142.378 1613.19 141.607C1500.21 139.656 1397.88 149.512 1300.38 171.741C1231.99 187.404 1171.04 207.228 1112.08 226.398C1091.81 232.99 1072.66 239.216 1053.19 245.295C1045.27 247.77 1038.05 249.993 1031.13 252.09C986.446 265.611 949.271 275.387 914.133 282.854C870.051 292.222 828.596 298.079 787.398 300.756C771.415 301.794 755.491 302.311 739.857 302.311C712.142 302.311 685.325 300.689 660.637 297.476C615.958 291.661 579.105 280.931 551.101 265.584C549.782 264.856 548.467 264.112 547.192 263.369C525.16 250.546 509.701 236.114 494.752 222.155C490.963 218.618 487.05 214.963 483.104 211.408C463 193.236 441.572 177.716 417.61 163.96C414.554 162.206 411.392 160.446 408.208 158.729C350.203 127.424 272.049 101.509 182.2 83.7866C76.1227 62.9463 -34.6187 54.5631 -129.63 60.1812C-194.399 64.0906 -256.944 78.7527 -288.964 97.5355C-311.223 110.591 -317.899 125.211 -308.277 139.815L-308.633 139.85C-313.656 132.224 -314.323 124.615 -310.611 117.234C-307.174 110.402 -299.997 103.749 -289.268 97.4575C-273.007 87.9187 -248.704 79.3114 -218.981 72.5646C-191.373 66.297 -159.661 61.8502 -129.685 60.0408C-79.7631 57.0886 -25.825 57.9507 30.6266 62.6032C81.5675 66.8018 132.618 73.8862 182.368 83.659C272.269 101.392 350.466 127.322 408.508 158.646C411.692 160.364 414.854 162.124 417.914 163.879C441.891 177.643 463.329 193.171 483.441 211.35C487.387 214.905 491.304 218.562 495.089 222.098C510.031 236.05 525.482 250.477 547.496 263.288C548.771 264.03 550.082 264.774 551.401 265.5C603.694 294.161 689.689 306.96 787.335 300.614C880.288 294.573 962.619 272.638 1030.9 251.977C1037.82 249.88 1045.04 247.658 1052.96 245.183C1072.43 239.104 1091.58 232.879 1111.85 226.287C1170.81 207.113 1231.78 187.286 1300.19 171.617C1325.88 165.761 1352.24 160.699 1378.56 156.57C1404.05 152.571 1430.32 149.317 1456.64 146.899C1506.84 142.289 1558.06 140.511 1613.21 141.464C1661.19 142.235 1717.51 144.497 1771.5 155.417C1820.99 165.473 1864.37 180.703 1906.33 195.428C1915.98 198.815 1925.95 202.316 1935.64 205.621C2041.16 241.606 2149.83 282.255 2258.61 326.44L2258.35 326.539Z" fill="#FFE492"/>
<path d="M2254.47 325.204C2145.15 279.907 2041.28 239.913 1936.93 202.934C1926.97 199.406 1917.17 195.803 1906.79 191.989C1866.22 177.077 1824.26 161.659 1775.58 151.89C1720.98 140.987 1662.23 140.08 1617.15 140.508C1509.31 141.399 1408.43 153.135 1308.75 176.389C1248.94 190.409 1193.72 207.245 1140.32 223.528C1112.25 232.085 1085.74 240.166 1058.71 247.836C1050.68 250.115 1043.23 252.191 1035.92 254.183C990.63 266.514 952.231 275.371 915.071 282.058C869.967 290.175 827.797 294.833 786.152 296.299C764.754 297.052 743.503 296.91 722.988 295.878C701.268 294.785 680.361 292.688 660.85 289.646C617.603 282.904 581.626 271.697 553.915 256.336C552.607 255.607 551.303 254.861 550.035 254.118C528.373 241.427 512.526 227.27 497.2 213.579C493.111 209.926 488.883 206.149 484.629 202.476C463.681 184.344 441.771 168.953 417.643 155.424C414.54 153.686 411.333 151.941 408.113 150.24C349.335 119.223 270.584 93.6674 180.375 76.3381C97.1142 60.4097 11.2515 52.0988 -67.4847 52.0988C-89.7436 52.0988 -111.416 52.7624 -132.32 54.1053C-196.308 58.2969 -258.461 73.0115 -290.668 91.5929C-313.399 104.709 -320.885 119.428 -312.315 134.157L-312.674 134.188C-317.148 126.503 -317.334 118.841 -313.231 111.418C-309.427 104.536 -301.938 97.8392 -290.975 91.5135C-274.546 82.0342 -250.356 73.4624 -221.015 66.7226C-193.318 60.3601 -162.669 55.9487 -132.386 53.9663C-82.5218 50.7616 -28.5251 51.3728 28.0987 55.7799C79.1605 59.7532 130.45 66.6262 180.537 76.209C270.796 93.5483 349.595 119.118 408.41 150.153C411.634 151.855 414.844 153.601 417.947 155.34C442.086 168.877 464.008 184.275 484.966 202.415C489.22 206.088 493.452 209.865 497.541 213.519C512.86 227.205 528.699 241.356 550.343 254.037C551.611 254.779 552.915 255.525 554.219 256.252C606.04 284.977 690.561 299.52 786.123 296.156C882.82 292.751 970.302 271.873 1035.72 254.064C1043.02 252.072 1050.47 249.996 1058.5 247.719C1085.53 240.052 1112.03 231.969 1140.1 223.413C1193.51 207.129 1248.73 190.288 1308.56 176.264C1359.89 164.292 1410.25 155.567 1462.53 149.589C1512.96 143.823 1563.54 140.806 1617.15 140.364C1647.74 140.073 1672.7 140.578 1695.69 141.95C1725.38 143.723 1751.57 146.932 1775.75 151.761C1824.48 161.538 1866.46 176.965 1907.05 191.884C1917.43 195.698 1927.23 199.3 1937.18 202.828C2041.54 239.808 2145.42 279.805 2254.74 325.105L2254.47 325.204Z" fill="#FFE492"/>
<path d="M2250.58 323.868C2142.27 278.075 2040.17 237.604 1938.45 200.138C1928.39 196.431 1918.47 192.612 1907.97 188.57C1868.61 173.423 1827.91 157.758 1779.82 148.235C1724.77 137.383 1666.09 137.817 1621.11 139.406C1519.35 142.879 1419.91 156.496 1317.12 181.033C1266.48 193.181 1218.26 207.083 1171.63 220.529C1134.76 231.156 1099.95 241.196 1064.23 250.372C1056.16 252.448 1048.24 254.433 1040.71 256.271C995.335 267.337 954.544 275.509 916.009 281.254C869.868 288.134 826.984 291.597 784.907 291.838C763.498 291.96 742.331 291.211 722.006 289.611C700.7 287.932 680.196 285.307 661.063 281.807C619.3 274.169 584.195 262.486 556.726 247.082C555.436 246.355 554.139 245.607 552.875 244.86C531.62 232.323 515.429 218.465 499.769 205.064C495.339 201.272 490.755 197.35 486.15 193.537C464.345 175.439 441.947 160.179 417.676 146.881C414.529 145.158 411.279 143.429 408.014 141.743C348.463 111.014 269.111 85.8187 178.544 68.8821C71.0268 48.86 -40.3338 41.4523 -135.016 48.0233C-198.176 52.483 -259.915 67.2358 -292.301 85.606C-315.546 98.7919 -323.863 113.621 -316.359 128.493L-316.718 128.52C-320.632 120.768 -320.331 113.047 -315.821 105.573C-311.633 98.6345 -303.825 91.8891 -292.605 85.5251C-276.015 76.1139 -251.946 67.5846 -223 60.8591C-195.622 54.4979 -165.222 50.0114 -135.082 47.883C-85.2731 44.4273 -31.2214 44.7846 25.571 48.9479C76.7574 52.6999 128.277 59.3631 178.701 68.7531C269.324 85.6981 348.719 110.909 408.304 141.657C411.572 143.343 414.826 145.073 417.973 146.797C442.258 160.102 464.664 175.37 486.479 193.475C491.089 197.288 495.669 201.21 500.102 205.003C515.755 218.399 531.939 232.251 553.179 244.779C554.443 245.525 555.74 246.272 557.026 246.998C609.393 276.362 690.32 292.238 784.899 291.694C861.642 291.254 942.866 279.958 1040.52 256.147C1048.04 254.309 1055.95 252.326 1064.02 250.25C1099.73 241.075 1134.55 231.039 1171.4 220.411C1218.04 206.964 1266.27 193.059 1316.93 180.908C1368.75 168.536 1418.3 159.172 1468.42 152.276C1519.18 145.291 1569.12 141.033 1621.08 139.26C1666.1 137.668 1724.85 137.235 1779.99 148.104C1828.13 157.639 1868.85 173.311 1908.23 188.465C1918.73 192.507 1928.65 196.325 1938.71 200.03C2040.43 237.498 2142.53 277.972 2250.85 323.767L2250.58 323.868Z" fill="#FFE492"/>
<path d="M2246.7 322.532C2139.39 276.242 2039.07 235.291 1939.98 197.343C1929.93 193.49 1919.99 189.487 1909.48 185.249C1871.24 169.831 1831.69 153.888 1784.07 144.581C1728.5 133.768 1669.91 135.548 1625.08 138.306C1529.32 144.084 1434.13 159.138 1325.5 185.68C1284.75 195.68 1244.93 206.649 1206.43 217.257C1159.66 230.141 1115.49 242.312 1069.75 252.911C1061.51 254.823 1053.35 256.658 1045.51 258.362C999.316 268.393 957.265 275.619 916.949 280.452C894.368 283.159 872.076 285.12 850.693 286.281C827.884 287.519 805.332 287.889 783.663 287.382C739.699 286.351 698.522 281.839 661.281 273.972C621.061 265.475 586.832 253.317 559.546 237.832C558.263 237.099 556.977 236.351 555.721 235.608C534.92 223.255 518.439 209.726 502.504 196.644C497.679 192.683 492.692 188.588 487.676 184.604C464.992 166.535 442.107 151.404 417.712 138.343C414.52 136.634 411.223 134.921 407.918 133.252C347.593 102.809 267.644 77.9744 176.718 61.4335C68.4825 41.8211 -43.1822 34.9013 -137.707 41.9473C-238.918 49.6088 -337.542 82.7119 -320.395 122.834L-320.758 122.857C-325.048 112.82 -322.535 102.933 -313.29 93.466C-304.848 84.8205 -290.995 76.684 -272.114 69.2849C-254.56 62.4048 -233.499 56.4648 -209.522 51.6294C-186.717 47.0309 -161.908 43.6333 -137.78 41.8069C-88.0299 38.0989 -33.9196 38.2052 23.045 42.1246C74.356 45.654 126.11 52.1073 176.872 61.3058C267.849 77.8581 347.846 102.707 408.207 133.167C411.516 134.838 414.813 136.55 418.008 138.261C442.414 151.327 465.311 166.467 488.006 184.543C493.022 188.527 498.009 192.622 502.834 196.584C518.765 209.662 535.239 223.186 556.028 235.531C557.281 236.274 558.564 237.023 559.846 237.754C612.289 267.513 691.784 285.086 783.685 287.241C861.487 289.063 947.071 279.578 1045.33 258.24C1053.17 256.536 1061.32 254.702 1069.56 252.791C1115.29 242.194 1159.46 230.025 1206.22 217.142C1244.73 206.533 1284.55 195.562 1325.3 185.561C1433.98 159.007 1529.21 143.948 1625.02 138.166C1655.14 136.312 1680.08 135.72 1703.52 136.302C1733.47 137.047 1759.87 139.713 1784.23 144.453C1831.9 153.771 1871.47 169.723 1909.74 185.15C1920.25 189.387 1930.18 193.39 1940.24 197.241C2039.33 235.192 2139.66 276.144 2246.96 322.437L2246.7 322.532Z" fill="#FFE492"/>
<path d="M2242.81 321.196C2136.53 274.401 2037.97 232.974 1941.51 194.546C1931.53 190.57 1921.67 186.406 1911.23 181.994C1874.02 166.281 1835.54 150.032 1788.31 140.925C1731.53 130.022 1670.22 133.579 1629.04 137.204C1517.27 146.92 1417.11 169.509 1333.87 190.326C1303.96 197.839 1274.12 205.797 1245.25 213.492C1187.36 228.93 1132.68 243.511 1075.28 255.451C1066.83 257.208 1058.44 258.891 1050.31 260.455C1003.22 269.5 959.904 275.779 917.899 279.647C870.282 284.033 824.705 285.136 782.426 282.924C738.992 280.651 698.307 275.002 661.506 266.132C622.905 256.83 589.552 244.197 562.365 228.584C561.097 227.851 559.818 227.101 558.569 226.355C538.285 214.229 521.599 201.072 505.459 188.347C500.171 184.176 494.701 179.866 489.205 175.67C465.297 157.375 442.591 142.802 417.753 129.805C414.518 128.112 411.18 126.416 407.827 124.761C346.722 94.6072 266.172 70.1325 174.887 53.9829C65.9335 34.7818 -46.0391 28.3483 -140.402 35.8694C-241.976 44.0725 -338.586 76.7262 -324.435 117.175L-324.798 117.193C-328.308 107.158 -325.271 97.2801 -315.773 87.8348C-307.068 79.1807 -293.133 71.0358 -274.352 63.6281C-256.838 56.7197 -235.887 50.7357 -212.078 45.8394C-189.409 41.177 -164.647 37.6816 -140.476 35.729C-90.7805 31.7686 -36.6152 31.6239 20.5179 35.298C71.9534 38.6047 123.942 44.8482 175.041 53.8539C266.381 70.012 346.975 94.5008 408.109 124.673C411.462 126.329 414.803 128.027 418.042 129.72C442.895 142.723 465.609 157.304 489.527 175.606C495.023 179.802 500.494 184.114 505.781 188.284C521.917 201.005 538.6 214.159 558.869 226.278C560.119 227.024 561.394 227.773 562.661 228.506C615.511 258.857 693.573 278.133 782.47 282.784C862.199 286.956 949.754 279.609 1050.14 260.327C1058.27 258.765 1066.67 257.083 1075.1 255.326C1132.49 243.389 1187.16 228.811 1245.05 213.374C1273.91 205.679 1303.75 197.72 1333.67 190.206C1389.64 176.209 1436.2 165.867 1480.2 157.661C1531.98 148.002 1580.64 141.265 1628.95 137.065C1658.41 134.473 1684.08 133.299 1707.43 133.477C1737.51 133.707 1764.02 136.101 1788.47 140.797C1835.77 149.916 1874.26 166.175 1911.49 181.898C1921.94 186.308 1931.8 190.472 1941.77 194.446C2038.24 232.875 2136.8 274.304 2243.09 321.101L2242.81 321.196Z" fill="#FFE492"/>
<path d="M2238.93 319.859C2133.67 272.558 2036.88 230.653 1943.04 191.749C1933.2 187.669 1923.46 183.36 1913.15 178.797C1876.92 162.768 1839.47 146.193 1792.56 137.269C1735.16 126.392 1674.01 131.393 1633 136.102C1531.74 147.632 1441.41 169.585 1342.25 194.972C1324.36 199.568 1306.27 204.311 1288.78 208.899C1221.49 226.545 1151.92 244.79 1080.8 257.989C1072.16 259.594 1063.51 261.127 1055.1 262.545C1007.69 270.531 961.846 276.013 918.841 278.839C870.124 282.041 823.811 281.915 781.176 278.466C738.351 275.002 698.16 268.214 661.718 258.291C624.84 248.249 592.355 235.142 565.167 219.336C563.911 218.601 562.643 217.85 561.401 217.104C541.729 205.262 524.937 192.533 508.698 180.223C502.846 175.788 496.797 171.202 490.718 166.739C465.876 148.463 442.698 134.015 417.775 121.27C414.503 119.597 411.117 117.915 407.717 116.273C345.85 86.4028 264.707 62.2884 173.055 46.533C63.3869 27.7431 -48.8897 21.7974 -143.099 29.7921C-241.449 38.2292 -339.842 69.7371 -328.48 111.514L-328.843 111.528C-331.573 101.493 -328.011 91.6267 -318.261 82.2027C-309.296 73.5388 -295.277 65.3867 -276.598 57.9706C-242.134 44.2897 -193.505 33.9681 -143.18 29.6517C-93.5432 25.4403 -39.3193 25.0432 17.986 28.4719C69.5461 31.5575 121.766 37.5897 173.201 46.4025C264.905 62.1664 346.096 86.2965 408.003 116.181C411.407 117.824 414.792 119.506 418.068 121.181C443.002 133.933 466.191 148.386 491.041 166.67C497.119 171.134 503.172 175.72 509.024 180.155C525.259 192.462 542.047 205.189 561.709 217.025C562.947 217.77 564.215 218.521 565.472 219.255C619.864 250.879 694.478 271.305 781.246 278.326C861.591 284.826 953.675 279.473 1054.95 262.415C1063.35 260.997 1071.99 259.465 1080.63 257.861C1151.73 244.667 1221.29 226.424 1288.56 208.782C1306.06 204.193 1324.15 199.45 1342.04 194.854C1385.44 183.741 1435.95 170.995 1486.08 160.353C1538.52 149.222 1586.54 141.245 1632.89 135.968C1662.07 132.617 1687.74 130.878 1711.35 130.654C1741.12 130.371 1768.49 132.554 1792.71 137.143C1813.72 141.14 1834.87 147.106 1857.37 155.381C1877.23 162.688 1895.63 170.83 1913.42 178.703C1923.72 183.265 1933.46 187.574 1943.3 191.652C2037.15 230.558 2133.94 272.464 2239.2 319.767L2238.93 319.859Z" fill="#FFE492"/>
<path d="M2235.04 318.523C2130.82 270.711 2035.8 228.329 1944.57 188.954C1934.9 184.785 1925.33 180.345 1915.2 175.646C1879.92 159.283 1843.44 142.364 1796.8 133.616C1753.22 125.467 1700.93 125.921 1636.96 135.003C1547.51 147.63 1467.56 168.751 1382.9 191.115C1372.36 193.9 1361.47 196.778 1350.62 199.621C1346.37 200.737 1342.12 201.856 1337.88 202.973C1257.22 224.199 1173.81 246.149 1086.32 260.53C1077.47 261.985 1068.59 263.367 1059.9 264.638C1011.45 271.718 964.307 276.224 919.797 278.031C869.955 280.053 822.898 278.7 779.941 274.009C737.783 269.405 698.087 261.479 661.956 250.449C626.935 239.759 595.322 226.18 567.992 210.087C566.746 209.352 565.49 208.599 564.255 207.851C545.33 196.381 528.593 184.165 512.401 172.352C505.847 167.567 499.064 162.62 492.253 157.804C466.451 139.541 442.803 125.217 417.822 112.731C414.502 111.072 411.077 109.407 407.632 107.78C344.981 78.1995 263.237 54.4438 171.226 39.0826C60.8473 20.7053 -51.7408 15.246 -145.793 23.7143C-242.336 32.479 -340.59 64.245 -332.519 105.855L-332.885 105.866C-334.831 95.8295 -330.749 85.9744 -320.746 76.5745C-311.516 67.9006 -297.417 59.7386 -278.837 52.3168C-244.52 38.6076 -196.059 28.1328 -145.877 23.5768C-96.2953 19.1129 -42.0165 18.4635 15.4574 21.6483C67.1421 24.5098 119.6 30.3321 171.373 38.9521C263.435 54.3232 345.23 78.0917 407.907 107.688C411.351 109.315 414.785 110.982 418.104 112.641C443.096 125.135 466.759 139.463 492.568 157.734C499.383 162.549 506.162 167.498 512.72 172.282C528.904 184.093 545.642 196.306 564.559 207.772C565.794 208.519 567.047 209.271 568.293 210.007C623.865 242.728 697.083 264.811 780.036 273.869C861.924 282.811 956.038 279.659 1059.77 264.502C1068.45 263.231 1077.33 261.85 1086.17 260.397C1173.64 246.021 1257.03 224.076 1337.67 202.853C1341.92 201.734 1346.16 200.617 1350.41 199.501C1361.26 196.658 1372.15 193.779 1382.69 190.996C1467.37 168.628 1547.35 147.501 1636.83 134.868C1665.73 130.765 1691.39 128.463 1715.27 127.829C1745.16 127.037 1772.64 128.941 1796.96 133.487C1817.85 137.405 1838.73 143.398 1860.81 151.808C1880.28 159.228 1898.18 167.528 1915.48 175.554C1925.62 180.251 1935.18 184.69 1944.84 188.857C2036.08 228.234 2131.1 270.618 2235.32 318.431L2235.04 318.523Z" fill="#FFE492"/>
<path d="M2231.16 317.188C2136.03 272.634 2040.12 228.549 1946.09 186.158C1936.52 181.867 1927.03 177.257 1916.99 172.378C1884.33 156.505 1847.3 138.514 1801.05 129.962C1756.95 121.827 1704.58 123.116 1640.92 133.902C1565.23 146.683 1498.24 165.478 1427.33 185.375C1405.12 191.606 1382.15 198.05 1358.99 204.267C1318.56 215.142 1274.82 226.649 1228.97 237.129C1179.87 248.354 1135.01 256.838 1091.83 263.069C1082.76 264.377 1073.63 265.61 1064.68 266.728C1015.2 272.915 966.785 276.436 920.768 277.193C869.827 278.03 822.026 275.46 778.688 269.55C698.659 258.501 628.713 235.384 570.795 200.838C569.561 200.101 568.315 199.347 567.087 198.599C549.123 187.635 532.678 176.069 516.777 164.882C509.291 159.617 501.553 154.172 493.767 148.873C466.983 130.613 442.859 116.416 417.848 104.195C414.481 102.55 411.011 100.901 407.526 99.2911C344.113 69.9953 261.768 46.6011 169.398 31.6327C58.3047 13.6667 -54.5875 8.69663 -148.485 17.6371C-245.615 26.9378 -341.407 58.2826 -336.56 100.196L-336.926 100.201C-338.088 90.162 -333.478 80.3183 -323.23 70.9425C-313.733 62.2573 -299.553 54.0868 -281.079 46.6593C-263.675 39.6615 -243.047 33.5428 -219.769 28.472C-197.169 23.5502 -173.218 19.8577 -148.577 17.4981C-99.0504 12.7833 -44.713 11.8814 12.9295 14.821C64.7387 17.4627 117.427 23.0737 169.537 31.5009C261.962 46.4778 344.355 69.8861 407.805 99.1961C411.289 100.807 414.766 102.458 418.134 104.102C443.155 116.331 467.29 130.534 494.085 148.799C501.871 154.1 509.61 159.545 517.095 164.811C532.997 175.996 549.438 187.562 567.395 198.521C568.619 199.27 569.868 200.023 571.099 200.76C628.973 235.279 698.857 258.378 778.809 269.415C861.165 280.646 959.98 279.67 1064.57 266.592C1073.51 265.473 1082.64 264.243 1091.7 262.935C1188.25 249.006 1276.58 226.257 1358.78 204.149C1381.94 197.933 1404.9 191.489 1427.11 185.259C1498.04 165.357 1565.04 146.559 1640.77 133.771C1704.52 122.969 1757 121.68 1801.2 129.833C1821.92 133.663 1842.49 139.667 1864.09 148.185C1883.13 155.696 1900.49 164.132 1917.28 172.288C1927.32 177.168 1936.8 181.776 1946.37 186.064C2040.4 228.457 2136.31 272.542 2231.44 317.097L2231.16 317.188Z" fill="#FFE492"/>
<path d="M2227.27 315.852C2133.6 271.052 2039.51 226.475 1947.62 183.361C1938.35 179.024 1929.15 174.333 1919.4 169.367C1887.54 153.124 1851.43 134.713 1805.29 126.305C1760.67 118.184 1708.2 120.309 1644.87 132.797C1578.53 145.862 1517.57 164.31 1458.63 182.153C1429.07 191.099 1398.5 200.35 1367.36 208.911C1318.2 222.436 1276.84 232.753 1237.2 241.381C1188.31 252.021 1142.56 259.945 1097.35 265.605C1088.07 266.768 1078.69 267.848 1069.48 268.817C1021.46 273.861 974.314 276.413 929.209 276.415C926.703 276.415 924.212 276.406 921.72 276.39C869.574 276.061 821.033 272.258 777.446 265.089C756.407 261.609 735.804 257.192 716.212 251.96C697.797 247.042 679.701 241.25 662.425 234.744C631.343 223.04 602.287 208.922 573.605 191.587C572.374 190.841 571.146 190.094 569.926 189.344C553.284 179.116 537.54 168.424 522.316 158.084C513.526 152.116 504.439 145.943 495.287 139.935C467.107 121.425 443.235 107.766 417.877 95.6524C414.466 94.0231 410.952 92.3896 407.423 90.7958C343.241 61.7906 260.298 38.7567 167.569 24.1811C55.7651 6.62766 -57.4349 2.14537 -151.179 11.558C-246.487 21.155 -342.155 52.7381 -340.598 94.5336L-340.964 94.535C-341.69 75.0673 -321.754 56.5554 -283.315 41.0013C-265.94 33.9709 -245.421 27.8083 -222.323 22.6808C-199.848 17.6923 -175.944 13.9034 -151.271 11.4191C-101.803 6.45182 -47.4065 5.29899 10.4045 7.99319C62.3384 10.4137 115.261 15.8149 167.705 24.0478C260.492 38.6333 343.482 61.6814 407.705 90.7036C411.234 92.2988 414.755 93.9338 418.166 95.5631C443.536 107.684 467.418 121.347 495.605 139.864C504.758 145.874 513.849 152.046 522.635 158.015C537.859 168.353 553.6 179.043 570.238 189.269C571.458 190.019 572.682 190.766 573.913 191.511C634.86 228.347 701.483 252.372 777.589 264.959C882.999 282.298 994.447 276.554 1069.38 268.681C1078.59 267.712 1087.96 266.633 1097.24 265.47C1201.22 252.45 1296.1 228.343 1367.15 208.796C1398.29 200.238 1428.85 190.987 1458.4 182.043C1517.37 164.197 1578.33 145.743 1644.71 132.672C1673.04 127.084 1698.69 123.652 1723.1 122.183C1753.22 120.371 1780.92 121.715 1805.44 126.179C1826.1 129.944 1846.48 135.996 1867.72 144.68C1886.44 152.331 1903.35 160.948 1919.7 169.283C1929.44 174.248 1938.63 178.937 1947.9 183.272C2039.79 226.386 2133.88 270.962 2227.56 315.763L2227.27 315.852Z" fill="#FFE492"/>
<path d="M2223.39 314.516L1949.15 180.566C1940.19 176.192 1931.3 171.432 1921.88 166.393C1890.81 149.766 1855.58 130.921 1809.53 122.653C1765 114.658 1710.94 117.701 1648.83 131.698C1589.13 145.153 1534.68 163.047 1482.02 180.352C1447.7 191.632 1412.2 203.295 1375.74 213.56C1266.13 244.413 1170.34 262.636 1074.28 270.91C1034.43 274.341 995.114 276.069 956.99 276.069C945.434 276.069 933.995 275.91 922.676 275.592C869.299 274.095 820.018 269.061 776.207 260.632C735.602 252.819 698.457 241.79 662.659 226.912C634.072 215.032 606.669 200.869 576.423 182.34C560.458 172.562 545 162.402 530.051 152.577C496.217 130.342 461.233 107.351 417.921 87.116C351.485 56.0803 264.281 31.7418 165.737 16.7309C53.2257 -0.408489 -60.282 -4.40441 -153.872 5.48046C-244.483 15.0505 -342.829 45.2284 -344.639 88.8744L-345.006 88.8715C-344.196 69.3627 -323.637 50.8536 -285.553 35.3449C-251.119 21.3223 -204.388 10.6675 -153.967 5.34291C-104.554 0.124679 -50.0997 -1.28056 7.87616 1.16833C59.9346 3.36622 113.092 8.55893 165.873 16.599C214.633 24.0265 260.943 33.8036 303.519 45.6594C346.45 57.6146 385.036 71.5308 418.199 87.0224C461.53 107.264 496.525 130.261 530.366 152.501C545.315 162.325 560.773 172.484 576.734 182.261C620.863 209.296 683.438 242.621 776.372 260.502C882.951 281.007 997.155 277.403 1074.19 270.768C1170.21 262.5 1265.95 244.284 1375.52 213.443C1411.97 203.182 1447.46 191.519 1481.78 180.242C1534.45 162.934 1588.92 145.036 1648.65 131.573C1710.86 117.552 1765.04 114.506 1809.69 122.522C1830.31 126.224 1850.49 132.329 1871.4 141.187C1889.8 148.985 1906.26 157.792 1922.18 166.308C1931.59 171.347 1940.49 176.104 1949.44 180.477L2223.68 314.427L2223.39 314.516Z" fill="#FFE492"/>
<path d="M2221.18 304.219C2151.35 266.922 2091.43 236.658 2032.62 208.977C2004.08 195.53 1974.92 182.295 1945.97 169.638C1937.21 165.809 1928.54 161.737 1919.35 157.425C1896.27 146.587 1872.4 135.38 1844.93 127.064C1830.18 122.59 1815.98 119.387 1801.52 117.271C1757.14 110.713 1705.07 115.049 1646.75 130.161C1616.57 137.97 1589.09 146.856 1566.19 154.519C1541.95 162.631 1518.03 171.578 1494.9 180.229C1461.66 192.665 1427.28 205.523 1390.33 216.566C1367.84 223.306 1345.05 229.328 1322.58 234.467C1277.62 244.748 1229.36 253.219 1179.15 259.645C1148.13 263.572 1116.95 266.54 1086.5 268.465C1060.26 270.119 1033.96 271.073 1008.35 271.301C970.012 271.644 932.661 270.335 897.333 267.407C859.769 264.293 824.221 259.323 791.677 252.633C762.658 246.668 735.247 239.157 707.881 229.669C656.885 212.003 616.21 191.577 586.473 175.755C571.865 167.946 557.601 159.983 543.806 152.281C504.084 130.103 466.564 109.155 419.614 90.4951C381.321 75.3764 337.631 62.3294 289.746 51.7142C252.948 43.5565 212.926 36.8848 170.793 31.8835C160.758 30.6938 150.531 29.585 140.408 28.5909C96.8206 24.3185 47.752 21.5364 -5.43133 20.3212C-59.0506 19.0677 -105.441 20.1524 -147.244 23.6407C-170.877 25.5975 -193.773 28.6675 -215.307 32.7641C-291.328 47.2277 -340.143 71.5081 -345.889 97.7155L-346.347 97.6999C-344.815 90.7134 -340.319 83.8319 -332.988 77.2439C-326.022 70.9862 -316.456 64.9512 -304.555 59.3062C-282.069 48.6429 -251.276 39.4088 -215.508 32.6039C-193.942 28.5002 -171.009 25.426 -147.339 23.4663C-105.492 19.9752 -59.0653 18.889 -5.40203 20.1439C47.8106 21.3591 96.9048 24.1441 140.521 28.4194C150.656 29.4148 160.886 30.5237 170.929 31.7148C213.095 36.7189 253.15 43.3963 289.977 51.5611C337.895 62.1833 381.621 75.2417 419.932 90.3703C466.913 109.041 504.439 129.995 544.176 152.179C557.967 159.881 572.231 167.843 586.836 175.65C616.558 191.465 657.214 211.881 708.181 229.535C735.518 239.013 762.9 246.517 791.886 252.476C855.577 265.568 928.4 271.843 1008.33 271.124C1033.93 270.896 1060.2 269.941 1086.43 268.289C1116.86 266.364 1148.01 263.399 1179 259.475C1229.19 253.053 1277.41 244.587 1322.34 234.313C1344.8 229.178 1367.58 223.159 1390.04 216.425C1426.98 205.387 1461.35 192.531 1494.58 180.1C1517.71 171.447 1541.63 162.498 1565.89 154.383C1588.8 146.716 1616.29 137.826 1646.5 130.012C1672.46 123.283 1697.6 118.635 1721.22 116.195C1750.24 113.197 1777.31 113.503 1801.68 117.105C1816.19 119.228 1830.42 122.44 1845.21 126.923C1872.72 135.253 1896.6 146.466 1919.7 157.311C1928.89 161.622 1937.56 165.694 1946.31 169.52C1975.27 182.179 2004.43 195.416 2032.98 208.865C2091.79 236.549 2151.71 266.816 2221.55 304.115L2221.18 304.219Z" fill="#FFE492"/>
<path d="M2218.97 293.918C2154.22 255.991 2093.46 224.254 2033.19 196.893C2003.81 183.529 1973.39 170.682 1942.79 158.709C1934.67 155.533 1926.66 152.232 1918.17 148.738C1892.76 138.275 1866.48 127.455 1837.05 119.97C1822.19 116.174 1807.95 113.531 1793.51 111.889C1738.22 105.598 1682.06 117.515 1644.67 128.619C1618.19 136.464 1594 145.333 1569.49 154.489C1548.05 162.504 1527.87 171.125 1506.51 180.252C1474.8 193.799 1442.02 207.808 1404.92 219.57C1382.9 226.588 1359.92 232.655 1336.62 237.604C1293.22 246.824 1245.7 253.983 1191.33 259.494C1160.9 262.576 1129.75 264.773 1098.72 266.019C1072.54 267.059 1046.41 267.43 1021.04 267.12C983.313 266.663 946.431 264.61 911.417 261.018C874.645 257.245 839.559 251.732 807.136 244.632C778.728 238.412 751.3 230.696 723.281 221.042C672.395 203.534 628.804 184.124 596.517 169.17C584.565 163.634 572.803 158.064 561.426 152.676C516.121 131.219 473.328 110.95 421.307 93.8743C382.428 81.1123 338.778 70.3213 291.578 61.802C255.865 55.3558 218.012 50.5261 175.861 47.0364C166.133 46.2324 156.237 45.5078 146.45 44.8824C103.464 42.15 57.5864 41.1162 2.08012 40.0471C-37.931 39.2374 -90.3082 38.7042 -140.626 41.7983C-164.457 43.2361 -187.493 45.7332 -209.1 49.2173C-285.172 61.4872 -336.776 82.9217 -347.145 106.557L-347.688 106.521C-344.939 100.254 -339.37 94.1068 -331.144 88.2491C-323.303 82.6678 -313 77.3163 -300.524 72.3391C-276.814 62.8839 -245.274 54.8198 -209.312 49.0202C-187.665 45.5291 -164.585 43.0277 -140.714 41.587C-90.3485 38.4887 -37.931 39.0233 2.10575 39.833C57.6304 40.9021 103.522 41.9358 146.538 44.6697C156.332 45.2965 166.236 46.0211 175.975 46.8251C218.166 50.3191 256.056 55.153 291.809 61.6063C339.057 70.1342 382.743 80.9336 421.662 93.7084C473.72 110.797 516.531 131.071 561.851 152.537C573.224 157.924 584.986 163.494 596.938 169.028C629.218 183.977 672.791 203.379 723.647 220.879C751.633 230.523 779.032 238.231 807.407 244.443C871.161 258.403 943.049 265.96 1021.06 266.904C1046.4 267.213 1072.51 266.843 1098.66 265.804C1129.66 264.559 1160.79 262.365 1191.19 259.284C1245.51 253.779 1293 246.625 1336.36 237.414C1359.63 232.471 1382.58 226.412 1404.57 219.401C1441.64 207.649 1474.41 193.646 1506.11 180.106C1527.48 170.975 1547.66 162.352 1569.12 154.333C1593.63 145.172 1617.83 136.299 1644.34 128.447C1668.58 121.247 1692.48 116.069 1715.39 113.051C1743.17 109.393 1769.51 108.932 1793.67 111.68C1808.16 113.329 1822.45 115.981 1837.36 119.788C1866.84 127.288 1893.14 138.117 1918.58 148.589C1927.06 152.082 1935.08 155.381 1943.19 158.556C1973.8 170.533 2004.22 183.384 2033.62 196.753C2093.89 224.12 2154.68 255.864 2219.43 293.799L2218.97 293.918Z" fill="#FFE492"/>
<path d="M2216.76 283.618C2156.16 244.545 2096.31 212.225 2033.77 184.811C2003.53 171.528 1971.85 159.071 1939.62 147.783C1932.73 145.369 1925.63 142.808 1918.77 140.332C1890.45 130.103 1861.16 119.526 1829.18 112.877C1814.17 109.735 1799.88 107.65 1785.51 106.506C1730.33 102.112 1677.34 115.268 1642.59 127.077C1619.05 135.049 1597.52 144.084 1576.7 152.824L1572.8 154.46C1553.9 162.388 1536.17 171.083 1517.4 180.29C1487.5 194.951 1456.59 210.109 1419.51 222.573C1397.93 229.879 1374.77 235.992 1350.67 240.742C1308.64 249.025 1261.88 254.935 1203.5 259.342C1173.31 261.621 1142.17 263.045 1110.93 263.572C1084.81 263.996 1058.84 263.783 1033.73 262.937C957.701 260.386 886.663 251.535 822.587 236.63C794.887 230.187 767.44 222.267 738.681 212.415C690.012 195.778 646.725 178.676 606.563 162.586C601.177 160.43 595.85 158.287 590.563 156.161C535.709 134.113 483.899 113.287 423.011 97.2578C383.26 86.793 339.654 78.2595 293.41 71.8927C259.46 67.219 222.665 64.0455 180.932 62.1907C171.527 61.7753 161.96 61.4335 152.496 61.1755C128.687 60.5374 103.434 60.4338 76.6981 60.3247C55.2233 60.2367 33.0193 60.146 9.58787 59.7759C-35.6665 59.0002 -86.9555 58.1225 -134.016 59.9602C-158.298 60.9089 -181.473 62.8317 -202.9 65.6762C-278.943 75.7723 -333.339 94.3637 -348.409 115.408L-349.028 115.342C-345.057 109.793 -338.417 104.38 -329.298 99.2544C-320.577 94.3524 -309.541 89.6815 -296.497 85.3722C-271.549 77.1308 -239.254 70.2393 -203.112 65.4408C-181.637 62.5892 -158.415 60.6621 -134.086 59.7121C-86.9774 57.8729 -35.6628 58.7521 9.60985 59.5277C33.0266 59.8964 55.2306 59.9886 76.6981 60.0765C103.445 60.1857 128.705 60.2892 152.536 60.9287C162.008 61.1882 171.585 61.53 180.998 61.9454C222.783 63.8016 259.621 66.9793 293.619 71.6601C339.918 78.034 383.571 86.5775 423.366 97.0537C484.31 113.097 536.145 133.933 591.021 155.991C596.308 158.117 601.639 160.258 607.021 162.416C647.175 178.503 690.448 195.6 739.102 212.232C767.832 222.073 795.25 229.985 822.917 236.42C886.909 251.306 957.855 260.145 1033.78 262.693C1058.87 263.538 1084.81 263.751 1110.9 263.327C1142.1 262.799 1173.22 261.377 1203.37 259.101C1261.69 254.698 1308.41 248.795 1350.37 240.524C1374.43 235.784 1397.54 229.682 1419.08 222.389C1456.12 209.941 1487.01 194.791 1516.89 180.138C1535.67 170.927 1553.41 162.228 1572.33 154.294L1576.22 152.658C1597.05 143.914 1618.59 134.873 1642.17 126.893C1677.02 115.045 1730.2 101.851 1785.63 106.265C1800.07 107.415 1814.41 109.507 1829.48 112.662C1861.53 119.325 1890.85 129.913 1919.21 140.154C1926.06 142.63 1933.16 145.19 1940.04 147.602C1972.29 158.897 2003.98 171.361 2034.24 184.65C2096.81 212.076 2156.68 244.408 2217.3 283.494L2216.76 283.618Z" fill="#FFE492"/>
<path d="M2214.55 273.316C2158.91 233.653 2098.28 199.81 2034.34 172.729C2003.26 159.53 1970.32 147.462 1936.45 136.858C1931.56 135.327 1926.55 133.737 1921.7 132.2C1889.69 122.046 1856.59 111.544 1821.33 105.787C1806.19 103.29 1791.86 101.765 1777.52 101.125C1722.5 98.6685 1672.65 113.043 1640.52 125.534C1620.57 133.251 1602.57 141.832 1585.15 150.132C1582.14 151.568 1579.13 153.002 1576.11 154.43C1559.55 162.274 1544.06 171.037 1527.66 180.314C1499.79 196.085 1470.96 212.392 1434.1 225.579C1412.45 233.323 1389.76 239.31 1364.71 243.884C1312.32 253.452 1259.97 256.992 1215.67 259.196C1185.7 260.685 1154.57 261.337 1123.14 261.13C1097.1 260.939 1071.29 260.14 1046.42 258.759C972.673 254.674 902.565 244.538 838.045 228.632C811.199 222.016 783.737 213.891 754.084 203.793C724.131 193.618 696.218 183.826 669.222 174.357C650.876 167.921 633.545 161.842 616.621 156.01C552.647 133.963 494.049 114.578 424.729 100.645C384.124 92.4847 340.563 86.2058 295.253 81.9844C262.779 78.9584 228.066 77.4851 186.014 77.3447C176.942 77.3192 167.701 77.3603 158.552 77.4681C144.655 77.6425 130.277 78.0069 115.06 78.394C85.8582 79.1356 52.7537 79.9765 17.0955 79.5057C3.5166 79.3256 -10.3371 79.0718 -23.7364 78.8251C-58.2002 78.1912 -93.8365 77.5361 -127.41 78.1218C-152.065 78.5528 -175.383 79.9028 -196.708 82.1347C-272.622 90.0826 -329.807 105.832 -349.681 124.265L-350.358 124.156C-345.155 119.329 -337.446 114.652 -327.447 110.255C-317.844 106.032 -306.075 102.043 -292.474 98.4005C-266.265 91.3815 -233.22 85.6627 -196.905 81.861C-175.53 79.6234 -152.16 78.2692 -127.45 77.8382C-93.8402 77.2511 -58.1892 77.9076 -23.7071 78.5415C-10.3114 78.7882 3.54225 79.042 17.1175 79.2221C52.7428 79.6929 85.8215 78.8534 115.009 78.1118C130.233 77.7247 144.614 77.3603 158.527 77.1859C167.687 77.0781 176.935 77.037 186.018 77.0625C228.129 77.2015 262.893 78.679 295.422 81.7093C340.786 85.9363 384.406 92.2223 425.062 100.394C456.375 106.687 488.106 114.661 522.067 124.768C552.472 133.816 582.047 143.717 617.105 155.798C634.029 161.632 651.36 167.711 669.709 174.147C696.702 183.615 724.615 193.406 754.561 203.581C784.184 213.668 811.617 221.785 838.43 228.394C902.862 244.279 972.87 254.4 1046.51 258.48C1071.36 259.859 1097.14 260.656 1123.14 260.848C1154.54 261.055 1185.64 260.404 1215.56 258.915C1259.81 256.716 1312.1 253.179 1364.39 243.629C1389.37 239.067 1412.01 233.096 1433.6 225.372C1470.39 212.208 1499.2 195.913 1527.05 180.155C1543.46 170.873 1558.95 162.106 1575.54 154.253C1578.55 152.825 1581.56 151.391 1584.57 149.956C1602 141.651 1620.02 133.064 1639.99 125.337C1660.9 117.21 1682.34 110.958 1703.73 106.755C1729.07 101.777 1753.92 99.7888 1777.59 100.847C1792 101.49 1806.4 103.022 1821.6 105.529C1856.95 111.302 1890.1 121.816 1922.15 131.983C1927 133.52 1932.01 135.11 1936.89 136.64C1970.79 147.252 2003.75 159.332 2034.86 172.541C2068.81 186.921 2102.06 203.304 2133.68 221.236C2161.63 237.085 2189.05 254.563 2215.17 273.183L2214.55 273.316Z" fill="#FFE492"/>
<path d="M2212.33 263.011C2160.84 222.211 2101.15 187.771 2034.92 160.646C2002.98 147.531 1968.79 135.852 1933.29 125.932C1931.6 125.46 1929.91 124.988 1928.22 124.514C1891.3 114.185 1853.13 103.505 1813.49 98.6967C1798.13 96.8334 1783.75 95.8678 1769.55 95.743C1714.75 95.2637 1668.02 110.839 1638.47 123.988C1621.08 131.681 1605.64 140.112 1590.71 148.266C1587.02 150.282 1583.2 152.366 1579.44 154.397C1565.09 162.131 1551.75 170.924 1537.62 180.234C1511.94 197.17 1485.38 214.68 1448.71 228.582C1427.49 236.625 1404.61 242.658 1378.76 247.025C1327.84 255.628 1276.13 257.887 1227.84 259.047C1198.06 259.761 1166.94 259.639 1135.34 258.685C1109.4 257.877 1083.75 256.494 1059.11 254.577C987.871 249.047 918.694 237.626 853.507 220.632C827.401 213.827 800.705 205.736 769.499 195.169C710.189 175.141 666.148 161.035 626.701 149.431C548.243 126.353 488.362 112.776 426.48 104.033C385.051 98.1791 341.534 94.1562 297.129 92.0746C266.322 90.6311 233.628 90.7601 191.125 92.4972C182.416 92.8574 173.505 93.2813 164.638 93.7592C156.262 94.2172 147.754 94.7419 138.745 95.2963C105.479 97.3453 67.7725 99.668 24.6177 99.2341C1.8714 99.0058 -21.3622 98.3805 -43.83 97.7764C-69.3645 97.0901 -95.7675 96.3797 -120.8 96.2832C-145.899 96.1868 -169.359 96.9639 -190.512 98.5946C-266.174 104.424 -326.154 117.335 -350.956 133.13L-351.659 132.964C-345.218 128.86 -336.439 124.92 -325.568 121.251C-315.074 117.709 -302.58 114.404 -288.429 111.425C-260.942 105.636 -227.137 101.09 -190.673 98.2812C-169.462 96.6477 -145.95 95.8678 -120.793 95.9642C-95.7382 96.0606 -69.3206 96.771 -43.775 97.4588C-21.3145 98.0628 1.90802 98.6882 24.6359 98.9165C67.7139 99.3489 105.38 97.0291 138.609 94.9829C147.623 94.4271 156.138 93.9038 164.517 93.4444C173.395 92.9665 182.314 92.5426 191.03 92.181C233.599 90.4425 266.348 90.3121 297.221 91.7598C341.688 93.8443 385.267 97.8728 426.755 103.735C488.721 112.49 548.664 126.081 627.192 149.179C666.653 160.787 710.71 174.897 770.034 194.931C801.218 205.489 827.885 213.572 853.962 220.369C919.061 237.34 988.135 248.745 1059.26 254.267C1083.87 256.181 1109.49 257.561 1135.4 258.369C1166.96 259.322 1198.04 259.444 1227.78 258.731C1276 257.572 1327.62 255.319 1378.43 246.736C1404.18 242.385 1426.98 236.373 1448.12 228.358C1484.71 214.486 1511.25 196.994 1536.91 180.077C1551.04 170.761 1564.39 161.961 1578.76 154.216C1582.53 152.186 1586.35 150.102 1590.03 148.086C1604.97 139.925 1620.42 131.488 1637.84 123.782C1657.12 115.201 1677.34 108.413 1697.93 103.606C1722.05 97.9749 1746.15 95.2254 1769.56 95.4282C1783.85 95.553 1798.29 96.5243 1813.73 98.3961C1853.5 103.222 1891.73 113.916 1928.7 124.26C1930.39 124.734 1932.08 125.208 1933.77 125.678C1969.31 135.61 2003.54 147.303 2035.51 160.432C2101.8 187.581 2161.54 222.048 2213.07 262.877L2212.33 263.011Z" fill="#FFE492"/>
<path d="M1246.07 258.9C1244.01 258.9 1241.99 258.898 1239.99 258.894C1210.37 258.846 1179.26 257.952 1147.54 256.237C1121.69 254.812 1096.2 252.845 1071.79 250.393C1036.91 246.896 1001.9 241.871 967.733 235.457C934.739 229.263 901.51 221.584 868.966 212.629C837.078 203.856 807.293 194.08 784.906 186.543C732.525 168.957 682.687 154.258 636.777 142.853C562.419 124.383 496.155 113.122 428.235 107.418C387.261 103.976 343.3 102.161 300.973 102.161C300.317 102.161 299.665 102.161 299.009 102.163C262.647 102.211 228.125 104.826 196.24 107.645C187.941 108.383 179.357 109.19 170.724 110.045C165.994 110.519 161.256 111.007 156.244 111.523C120.89 115.168 80.8164 119.299 32.1325 118.96C2.48324 118.753 -27.7999 117.565 -57.0865 116.415C-75.9965 115.672 -95.5477 114.905 -114.198 114.441C-139.835 113.804 -163.427 114.009 -184.327 115.051C-259.586 118.8 -322.362 128.873 -352.256 141.998L-352.945 141.764C-337.611 135.033 -314.546 129.205 -284.391 124.441C-255.592 119.892 -221.029 116.523 -184.444 114.701C-163.49 113.657 -139.835 113.45 -114.139 114.089C-95.4707 114.553 -75.9085 115.322 -56.9912 116.065C-27.723 117.215 2.54184 118.403 32.1508 118.609C80.7101 118.947 120.714 114.823 156.009 111.184C161.025 110.666 165.763 110.179 170.497 109.705C179.137 108.85 187.729 108.042 196.035 107.303C227.975 104.48 262.556 101.861 299.005 101.811C342.006 101.753 386.755 103.574 428.43 107.075C463.483 110.02 497.467 114.355 532.316 120.327C565.878 126.08 600.21 133.351 637.268 142.559C683.215 153.972 733.089 168.682 785.503 186.28C807.872 193.812 837.635 203.581 869.49 212.344C935.527 230.514 1003.67 243.201 1072.02 250.054C1096.4 252.503 1121.85 254.467 1147.67 255.891C1179.35 257.604 1210.41 258.497 1239.99 258.544C1286.28 258.617 1340.03 258.013 1392.46 249.839C1418.99 245.701 1441.95 239.65 1462.64 231.342C1498.98 216.751 1523.06 198.024 1546.36 179.911C1558.35 170.595 1569.67 161.795 1581.97 154.178C1585.92 151.737 1589.9 149.223 1593.74 146.791C1606.74 138.575 1620.18 130.082 1635.67 122.23C1653.36 113.197 1672.35 105.871 1692.11 100.454C1715.01 94.1736 1738.36 90.6598 1761.5 90.0104C1775.79 89.6091 1790.29 90.0189 1805.83 91.2639C1847.38 94.5905 1888.57 104.256 1930.62 114.716C1967.28 123.837 2003.77 135.457 2036.14 148.323C2072.1 162.572 2105.89 179.289 2136.56 198.008C2163.88 214.685 2188.91 233.042 2210.95 252.571L2210.11 252.713C2162.78 210.774 2104.03 175.735 2035.49 148.571C2003.16 135.724 1966.73 124.12 1930.13 115.015C1888.15 104.573 1847.04 94.9266 1805.64 91.6113C1790.19 90.3734 1775.77 89.9664 1761.57 90.3649C1719.04 91.5602 1674.59 102.952 1636.4 122.446C1620.94 130.283 1607.51 138.77 1594.52 146.977C1590.68 149.41 1586.69 151.926 1582.75 154.366C1570.47 161.97 1559.15 170.763 1547.18 180.07C1535.75 188.957 1523.93 198.147 1510.37 206.981C1494.99 216.996 1479.6 225.045 1463.3 231.589C1442.52 239.934 1419.46 246.011 1392.8 250.169C1369.29 253.836 1344.02 256.259 1315.55 257.581C1291.43 258.694 1267.22 258.9 1246.07 258.9Z" fill="#FFE492"/>
<path d="M1304.82 259.61C1286.14 259.61 1268.19 259.179 1252.14 258.742C1222.62 257.939 1191.52 256.273 1159.73 253.789C1133.98 251.748 1108.66 249.199 1084.45 246.208C1018.18 238.036 952.74 224.434 884.41 204.626C854.61 195.989 826.518 186.695 800.306 177.918C748.555 160.639 696.929 146.629 646.853 136.275C573.206 121.047 504.301 112.952 430.002 110.799C387.667 109.573 343.025 110.073 300.896 112.246C265.633 114.064 232.39 118.451 201.356 122.787C193.591 123.878 185.333 125.069 176.814 126.327C174.685 126.643 172.538 126.965 170.362 127.289C134.619 132.638 94.1755 138.69 42.271 138.69C41.3953 138.69 40.5233 138.689 39.6403 138.684C4.52426 138.547 -31.3282 136.607 -66.0045 134.73C-79.7519 133.985 -93.9683 133.217 -107.609 132.594C-134.254 131.38 -157.33 131.022 -178.16 131.501C-253.921 133.245 -317.869 140.301 -353.601 150.864L-354.213 150.553C-336.549 145.332 -311.007 140.799 -280.357 137.444C-250.21 134.144 -214.892 131.955 -178.223 131.111C-157.334 130.63 -134.199 130.989 -107.496 132.206C-93.8401 132.828 -79.62 133.598 -65.869 134.341C-31.2256 136.216 4.59388 138.154 39.6439 138.292C92.6294 138.501 133.732 132.349 169.992 126.922C172.164 126.597 174.315 126.275 176.444 125.958C184.97 124.699 193.232 123.508 201.004 122.417C232.089 118.072 265.395 113.679 300.753 111.856C342.948 109.681 387.664 109.179 430.067 110.407C466.887 111.473 501.992 113.991 537.387 118.104C573.84 122.339 609.799 128.169 647.318 135.928C697.457 146.296 749.149 160.323 800.955 177.618C827.156 186.393 855.23 195.681 885.004 204.309C953.242 224.09 1018.58 237.673 1084.75 245.833C1108.92 248.817 1134.21 251.364 1159.92 253.402C1191.67 255.883 1222.72 257.548 1252.2 258.348C1301.8 259.695 1354.57 260.387 1406.48 252.933C1433.8 249.009 1456.91 242.92 1477.15 234.317C1513.19 218.993 1535.63 198.09 1555.42 179.648C1565.38 170.368 1574.79 161.603 1585.17 154.132C1588.92 151.436 1592.69 148.65 1596.33 145.956C1607.74 137.526 1619.53 128.809 1633.48 120.669C1649.63 111.185 1667.39 103.32 1686.28 97.2902C1707.97 90.3661 1730.56 86.0894 1753.43 84.5821C1767.73 83.6391 1782.28 83.4888 1797.92 84.1184C1841.61 85.881 1886 94.5903 1927.46 103.741C1965.75 112.189 2003.54 123.414 2036.77 136.201C2073.73 150.384 2107.78 167.268 2137.98 186.382C2164.98 203.474 2188.82 222.271 2208.83 242.254L2207.89 242.394C2165.36 199.919 2105.94 163.294 2036.06 136.477C2002.9 123.713 1965.18 112.51 1926.97 104.078C1885.6 94.9491 1841.33 86.261 1797.82 84.5055C1782.27 83.8787 1767.81 84.0291 1753.61 84.9649C1711.38 87.7485 1669.02 100.503 1634.33 120.881C1620.4 129.005 1608.62 137.713 1597.23 146.135C1593.59 148.83 1589.82 151.617 1586.07 154.315C1575.71 161.769 1566.31 170.526 1556.36 179.795C1536.53 198.266 1514.06 219.203 1477.89 234.578C1457.55 243.228 1434.3 249.351 1406.83 253.297C1383 256.72 1357.28 258.702 1328.21 259.353C1320.36 259.538 1312.53 259.61 1304.82 259.61Z" fill="#FFE492"/>
<path d="M1341.7 261.146C1341.43 261.146 1341.17 261.146 1340.9 261.146C1314.5 261.12 1288.58 259.869 1264.28 258.59C1234.81 257.039 1203.73 254.599 1171.92 251.34C1146.29 248.687 1121.13 245.552 1097.13 242.024C1033.5 232.684 970.818 218.258 899.865 196.624C874.312 188.835 849.166 180.447 824.844 172.338C821.803 171.322 818.758 170.309 815.713 169.295C763.695 152.021 710.277 138.699 656.947 129.7C583.92 117.379 510.269 112.303 431.786 114.181C388.752 115.212 344.15 118.03 302.801 122.329C270.177 125.722 241.106 131.166 206.489 137.93C199.472 139.307 191.979 140.793 182.914 142.608L182.409 142.71C164.92 146.235 145.098 150.23 122.865 153.267C97.33 156.755 72.5575 158.434 47.1549 158.414C7.54311 158.376 -32.8821 155.523 -71.9735 152.762C-81.5513 152.086 -91.4588 151.387 -101.022 150.754C-128.447 148.944 -151.662 148.029 -171.994 147.96C-246.857 147.704 -313.55 151.998 -354.968 159.737L-355.444 159.355C-335.157 155.563 -307.79 152.486 -276.305 150.455C-244.762 148.42 -208.686 147.411 -171.983 147.536C-151.593 147.605 -128.319 148.521 -100.835 150.336C-91.2646 150.969 -81.3571 151.668 -71.7757 152.344C-32.7318 155.101 7.64204 157.951 47.1585 157.989C47.3344 157.989 47.5139 157.989 47.6898 157.989C104.215 157.989 147.278 149.311 181.903 142.333L182.412 142.231C191.481 140.414 198.974 138.928 205.994 137.551C240.67 130.776 269.792 125.323 302.519 121.919C343.937 117.612 388.612 114.79 431.72 113.757C470.126 112.839 506.352 113.539 542.476 115.901C581.402 118.447 618.992 122.833 657.387 129.311C710.819 138.327 764.329 151.67 816.431 168.973C819.476 169.987 822.521 171.002 825.562 172.017C849.873 180.124 875.012 188.509 900.542 196.292C971.405 217.899 1033.99 232.305 1097.52 241.63C1121.48 245.153 1146.61 248.283 1172.2 250.933C1203.97 254.187 1235 256.624 1264.43 258.172C1317.15 260.948 1368.75 262.874 1420.53 256.045C1448.62 252.338 1471.9 246.211 1491.67 237.312C1527.39 221.236 1546.91 198.961 1564.13 179.306C1572.19 170.104 1579.8 161.412 1588.39 154.108C1591.7 151.298 1595.01 148.391 1598.22 145.579C1608.24 136.787 1618.61 127.698 1631.32 119.127C1645.95 109.189 1662.49 100.783 1680.46 94.1437C1700.96 86.5772 1722.79 81.5405 1745.37 79.1753C1759.37 77.7091 1773.66 76.9944 1789.01 76.9944C1789.34 76.9944 1789.68 76.9944 1790.01 76.9958C1837.74 77.0922 1886.86 85.4839 1924.32 92.7838C1964.22 100.562 2003.33 111.389 2037.41 124.097C2075.37 138.215 2109.7 155.265 2139.42 174.775C2166.09 192.283 2188.74 211.521 2206.72 231.958L2205.68 232.095C2178.92 201.687 2127.86 158.322 2036.65 124.405C2002.65 111.725 1963.63 100.923 1923.82 93.1638C1886.47 85.8838 1837.51 77.5162 1790.01 77.4212C1774.37 77.3858 1759.87 78.0976 1745.66 79.5865C1703.83 83.9695 1663.56 98.0871 1632.27 119.339C1619.59 127.889 1609.24 136.969 1599.22 145.75C1596.02 148.564 1592.7 151.472 1589.39 154.284C1580.83 161.569 1573.22 170.25 1565.17 179.442C1547.92 199.132 1528.37 221.45 1492.51 237.588C1472.6 246.547 1449.17 252.716 1420.88 256.446C1396.91 259.607 1371 261.146 1341.7 261.146Z" fill="#FFE492"/>
<path d="M1371.03 263.142C1365.34 263.142 1359.53 263.071 1353.58 262.929C1327.53 262.31 1302.22 260.451 1276.43 258.437C1246.53 256.103 1216.33 252.981 1184.11 248.891C1158.61 245.627 1133.61 241.909 1109.8 237.838C1049.39 227.526 989.41 212.346 915.32 188.62C896.919 182.729 878.526 176.549 860.737 170.572C851.053 167.319 841.043 163.954 831.124 160.669C778.487 143.279 723.285 130.647 667.049 123.123C592.746 113.181 516.381 111.361 433.581 117.557C389.837 120.832 345.275 125.966 304.718 132.405C272.137 137.578 243.756 144.843 213.707 152.534L211.63 153.066C206.936 154.271 202.191 155.493 197.387 156.73C194.621 157.443 191.836 158.16 189.026 158.884C171.505 163.417 152.58 168.146 130.878 171.786C105.681 176.012 80.7579 178.09 54.6774 178.141C11.2588 178.224 -33.0283 174.318 -75.8534 170.538C-81.9649 169.998 -88.289 169.441 -94.4263 168.912C-123.2 166.43 -145.884 165.002 -165.823 164.415C-239.404 162.25 -308.845 163.776 -356.345 168.603L-356.649 168.157C-309.024 163.318 -239.441 161.786 -165.732 163.956C-145.737 164.544 -122.995 165.976 -94.1662 168.462C-88.0253 168.992 -81.7011 169.55 -75.5859 170.09C-33.2847 173.824 10.4417 177.682 53.2851 177.682C53.7468 177.682 54.2085 177.682 54.6738 177.681C110.088 177.573 149.535 168.546 188.37 158.501C191.181 157.778 193.965 157.06 196.732 156.347C201.535 155.109 206.276 153.888 210.974 152.681L213.051 152.149C243.151 144.446 271.58 137.168 304.267 131.978C344.897 125.527 389.536 120.384 433.358 117.104C516.366 110.891 592.937 112.718 667.441 122.686C723.816 130.23 779.146 142.89 831.901 160.319C841.819 163.605 851.833 166.969 861.517 170.223C879.299 176.199 897.688 182.377 916.078 188.264C990.08 211.964 1049.98 227.122 1110.28 237.417C1134.06 241.481 1159.02 245.194 1184.48 248.453C1216.65 252.537 1246.81 255.655 1276.67 257.985C1321.99 261.523 1378.4 265.927 1434.57 259.143C1463.45 255.656 1486.88 249.491 1506.19 240.294C1541.57 223.448 1557.97 199.755 1572.45 178.852C1578.74 169.771 1584.68 161.193 1591.61 154.075C1594.31 151.302 1597.02 148.433 1599.63 145.658C1608.41 136.352 1617.49 126.729 1629.15 117.577C1642.3 107.176 1657.61 98.2301 1674.64 90.987C1693.94 82.7796 1715.03 76.9842 1737.3 73.7611C1751.6 71.6923 1766.25 70.4175 1782.1 69.8631C1803.32 69.12 1825.91 69.9141 1851.16 72.285C1872.52 74.2929 1895.42 77.4096 1921.17 81.8154C1962.7 88.921 2003.11 99.3532 2038.04 111.983C2077.02 126.034 2111.61 143.253 2140.85 163.159C2167.18 181.084 2188.64 200.763 2204.61 221.651L2203.47 221.782C2169.74 177.682 2110.7 138.808 2037.23 112.321C2002.39 99.7247 1962.09 89.3222 1920.68 82.2379C1865.2 72.7458 1821.21 68.9584 1782.21 70.3225C1766.46 70.8727 1751.92 72.1389 1737.72 74.1922C1684.72 81.8593 1650 102.128 1630.22 117.78C1618.59 126.909 1609.52 136.52 1600.75 145.815C1598.13 148.592 1595.42 151.462 1592.72 154.237C1585.81 161.334 1579.88 169.901 1573.6 178.971C1559.1 199.919 1542.66 223.662 1507.11 240.584C1487.65 249.854 1464.03 256.069 1434.92 259.584C1415.19 261.966 1394.15 263.142 1371.03 263.142Z" fill="#FFE492"/>
<path d="M1396.43 265.431C1357.68 265.431 1320.43 261.578 1288.56 258.283C1258.58 255.183 1228.4 251.309 1196.28 246.441C1170.93 242.57 1146.09 238.268 1122.46 233.652C1051.62 219.832 988.461 199.996 930.767 180.618C918.987 176.661 907.086 172.583 895.581 168.64C879.606 163.163 863.085 157.501 846.531 152.045C793.106 134.483 736.119 122.539 677.158 116.545C600.884 108.793 521.796 110.227 435.376 120.93C390.88 126.44 346.363 133.892 306.634 142.479C275.991 149.101 250.065 157.462 222.618 166.313C220.672 166.94 218.723 167.569 216.762 168.199L215.7 168.542C209.028 170.696 202.128 172.922 195.134 175.157C178.374 180.535 159.919 186.098 138.572 190.348C113.792 195.281 88.8111 197.741 62.192 197.869C15.4683 198.094 -32.153 193.011 -78.2024 188.095C-81.4304 187.75 -84.6437 187.407 -87.8424 187.068C-118.21 183.843 -140.363 181.932 -159.665 180.869C-231.399 176.918 -303.595 175.676 -357.742 177.461L-357.852 176.966C-303.617 175.177 -231.315 176.42 -159.485 180.376C-140.128 181.443 -117.928 183.359 -87.5053 186.589C-84.3066 186.928 -81.0933 187.271 -77.8616 187.617C-31.9001 192.523 15.6296 197.594 62.1737 197.373C119.981 197.095 160.692 185.562 194.313 174.774C201.308 172.539 208.207 170.313 214.879 168.16L215.942 167.817C217.902 167.186 219.851 166.558 221.797 165.931C249.292 157.065 275.262 148.69 306.007 142.045C345.809 133.442 390.411 125.978 434.984 120.458C475.955 115.384 514.439 112.454 552.629 111.501C595.23 110.439 637.235 111.975 677.48 116.066C736.629 122.078 793.784 134.056 847.359 151.666C863.924 157.126 880.449 162.789 896.428 168.267C907.933 172.21 919.826 176.287 931.602 180.242C989.237 199.599 1052.32 219.414 1123.03 233.208C1146.63 237.817 1171.43 242.113 1196.75 245.979C1228.81 250.84 1258.95 254.708 1288.89 257.803C1334.86 262.557 1392.07 268.472 1448.6 262.247C1478.26 258.98 1501.84 252.777 1520.69 243.282C1555.71 225.643 1568.81 200.492 1580.37 178.301C1585.01 169.384 1589.4 160.963 1594.81 154.047C1596.81 151.489 1598.82 148.846 1600.76 146.289C1608.36 136.29 1616.22 125.948 1626.96 116.032C1638.66 105.16 1652.73 95.6709 1668.79 87.8308C1686.91 78.9839 1707.24 72.43 1729.21 68.3504C1743.48 65.7016 1758.18 63.8653 1774.16 62.7351C1795.69 61.2136 1819.58 61.2646 1845.17 62.8868C1867.57 64.3077 1892.07 66.9863 1917.99 70.8503C1961.14 77.2838 2002.86 87.3189 2038.66 99.8711C2078.65 113.857 2113.51 131.241 2142.27 151.544C2168.25 169.886 2188.52 190.008 2202.49 211.348L2201.24 211.47C2171.64 166.25 2113.6 126.748 2037.8 100.24C2002.12 87.7287 1960.53 77.7262 1917.53 71.314C1861.79 63.0031 1814.97 60.3557 1774.39 63.2243C1758.53 64.346 1743.93 66.1695 1729.77 68.7985C1677.49 78.5047 1645.65 99.9448 1628.15 116.223C1617.43 126.114 1609.58 136.441 1601.99 146.428C1600.05 148.985 1598.04 151.629 1596.04 154.19C1590.65 161.083 1586.26 169.493 1581.63 178.398C1576.06 189.074 1569.76 201.174 1560.61 212.518C1550.13 225.516 1537.4 235.677 1521.71 243.584C1512.64 248.155 1502.21 252.046 1490.71 255.149C1478.35 258.485 1464.3 261.035 1448.95 262.725C1431.38 264.661 1413.75 265.431 1396.43 265.431Z" fill="#FFE492"/>
<path d="M1419.33 267.942C1406.52 267.942 1393.1 267.46 1378.92 266.497C1351 264.601 1324.28 261.161 1300.7 258.128C1270.98 254.303 1239.94 249.546 1208.46 243.989C1183.27 239.516 1158.6 234.63 1135.12 229.463C1067.75 214.649 1009.71 194.952 946.214 172.612C940.572 170.627 934.841 168.602 929.301 166.643C907.482 158.93 884.923 150.955 861.938 143.42C807.626 125.653 748.859 114.398 687.267 109.968C609.575 104.38 525.427 109.201 437.172 124.3C391.884 132.048 347.407 141.815 308.55 152.548C279.293 160.629 255.209 170.156 229.711 180.244C227.121 181.269 224.519 182.297 221.903 183.33C215.392 185.902 208.379 188.663 201.245 191.426C186.285 197.242 168.053 203.868 146.27 208.906C121.886 214.547 96.8426 217.39 69.7142 217.596C20.052 217.974 -30.5005 211.61 -79.3895 205.456L-81.2509 205.222C-105.188 202.21 -130.51 199.167 -153.498 197.32C-223.569 191.689 -296.596 187.779 -359.123 186.312L-359.039 185.781C-296.446 187.25 -223.353 191.163 -153.22 196.799C-130.166 198.653 -104.8 201.7 -80.8258 204.716L-78.9645 204.95C-30.1817 211.09 20.2682 217.438 69.6886 217.062C126.763 216.629 166.181 204.303 200.274 191.048C207.408 188.286 214.414 185.525 220.925 182.954C223.541 181.923 226.142 180.894 228.733 179.87C254.275 169.765 278.402 160.221 307.755 152.112C346.685 141.358 391.247 131.573 436.618 123.811C478.026 116.728 518.773 111.847 557.722 109.306C602.225 106.403 645.896 106.449 687.523 109.442C749.35 113.889 808.334 125.183 862.829 143.012C885.831 150.554 908.402 158.532 930.232 166.248C935.772 168.207 941.503 170.232 947.145 172.217C1010.58 194.535 1068.56 214.211 1135.81 228.999C1159.25 234.158 1183.89 239.037 1209.04 243.504C1240.48 249.052 1271.46 253.803 1301.14 257.621C1347.66 263.608 1405.56 271.057 1462.65 265.35C1493.1 262.305 1516.84 256.064 1535.22 246.269C1569.85 227.814 1579.87 199.997 1587.92 177.645C1591.06 168.938 1594.02 160.715 1598.03 154.023C1599.3 151.913 1600.58 149.739 1601.81 147.636C1608.22 136.712 1614.86 125.414 1624.81 114.49C1640.17 97.4898 1669.35 74.7479 1721.14 62.9459C1735.45 59.6874 1750.2 57.2881 1766.25 55.612C1808.24 51.1638 1858.23 52.603 1914.84 59.8873C1959.61 65.6486 2002.64 75.2868 2039.3 87.7609C2080.3 101.68 2115.43 119.232 2143.71 139.933C2156.69 149.428 2168.15 159.57 2177.8 170.076C2187.01 180.111 2194.61 190.532 2200.38 201.049L2199.04 201.16C2173.59 154.817 2116.53 114.686 2038.39 88.1593C2001.87 75.732 1959 66.1307 1914.4 60.3907C1858.06 53.139 1808.33 51.704 1766.61 56.1239C1750.68 57.7872 1736.03 60.1681 1721.84 63.4025C1670.41 75.1223 1641.39 97.7478 1626.1 114.665C1616.18 125.56 1609.56 136.842 1603.15 147.752C1601.91 149.855 1600.64 152.03 1599.37 154.142C1595.37 160.812 1592.41 169.024 1589.28 177.717C1585.23 188.965 1580.64 201.713 1572.79 213.744C1563.77 227.57 1551.84 238.311 1536.33 246.581C1527.48 251.299 1517.12 255.277 1505.56 258.406C1493.1 261.776 1478.78 264.286 1462.99 265.863C1449.14 267.25 1434.67 267.942 1419.33 267.942Z" fill="#FFE492"/>
<path d="M1440.44 270.594C1425.08 270.594 1408.89 269.824 1391.6 268.279C1363.58 265.78 1336.62 261.63 1312.83 257.969C1282.88 253.361 1251.87 247.832 1220.64 241.535C1195.62 236.465 1171.1 230.995 1147.79 225.273C1083.62 209.54 1028.59 189.263 970.323 167.797C967.44 166.735 964.556 165.672 961.665 164.608C934.57 154.637 906.555 144.325 877.349 134.796C822.092 116.803 761.544 106.236 697.387 103.389C616.8 99.8113 529.857 107.98 438.967 127.666C393.504 137.513 347.868 149.925 310.466 162.614C282.224 172.196 259.573 182.977 235.592 194.392C232.752 195.743 229.905 197.099 227.036 198.457C221.306 201.176 214.487 204.399 207.349 207.695C194.129 213.817 176.117 221.596 153.964 227.448C129.969 233.788 104.87 237.02 77.2325 237.325C54.5155 237.544 29.4463 236.187 0.588436 233.174C-24.1877 230.588 -48.154 227.207 -74.6742 223.379C-98.8824 219.841 -124.432 216.186 -147.354 213.773C-215.252 206.623 -286.971 200.363 -360.516 195.162L-360.252 194.605C-286.664 199.807 -214.904 206.073 -146.969 213.226C-123.985 215.646 -98.3988 219.306 -74.1613 222.847C-29.7093 229.266 25.6137 237.258 77.1922 236.757C136.161 236.105 174.058 222.229 206.224 207.33C213.358 204.036 220.173 200.814 225.9 198.097C228.769 196.739 231.616 195.383 234.452 194.033C258.473 182.6 281.165 171.8 309.499 162.188C346.978 149.472 392.701 137.037 438.252 127.172C529.417 107.426 616.661 99.2356 697.555 102.826C728.571 104.203 759.038 107.4 788.101 112.329C819.285 117.617 849.63 125.032 878.294 134.364C907.533 143.903 935.566 154.22 962.677 164.198C965.567 165.263 968.455 166.325 971.338 167.387C1029.55 188.835 1084.53 209.092 1148.57 224.795C1171.86 230.508 1196.33 235.972 1221.32 241.033C1252.5 247.32 1283.47 252.842 1313.37 257.443C1360.37 264.675 1418.86 273.675 1476.69 268.455C1508.02 265.628 1531.91 259.349 1549.73 249.261C1584.05 229.993 1590.16 200.56 1595.07 176.911C1596.83 168.452 1598.49 160.463 1601.24 154.003C1601.81 152.67 1602.38 151.33 1602.95 149.983C1608.08 137.815 1613.4 125.232 1622.63 112.952C1635.82 95.2893 1662.2 71.3393 1713.06 57.5451C1727.25 53.6966 1742.05 50.7358 1758.32 48.4926C1780.93 45.346 1806.13 43.8671 1833.21 44.0939C1857.93 44.301 1884.33 45.9274 1911.67 48.9265C1958.05 54.0128 2002.4 63.2539 2039.92 75.6501C2081.93 89.5011 2117.33 107.223 2145.14 128.322C2157.9 138.002 2168.94 148.352 2177.97 159.084C2186.62 169.361 2193.45 180.016 2198.26 190.752L2196.82 190.848C2175.84 144.067 2118.3 102.236 2038.97 76.0811C2001.61 63.7389 1957.45 54.5361 1911.27 49.4696C1854.32 43.2219 1801.61 43.0687 1758.81 49.0243C1742.66 51.2506 1727.97 54.1887 1713.9 58.0073C1663.39 71.7066 1637.15 95.5332 1624.04 113.108C1614.83 125.355 1609.52 137.92 1604.39 150.072C1603.82 151.419 1603.25 152.761 1602.69 154.094C1599.94 160.53 1598.29 168.509 1596.53 176.955C1591.6 200.672 1585.47 230.191 1550.93 249.582C1542.34 254.444 1532.07 258.514 1520.41 261.674C1507.86 265.075 1493.26 267.542 1477.02 269.008C1465.3 270.063 1453.16 270.594 1440.44 270.594Z" fill="#FFE492"/>
<path d="M1460.27 273.355C1442.77 273.355 1424.24 272.26 1404.27 270.062C1376.01 266.953 1348.88 262.096 1324.95 257.812C1294.71 252.398 1263.71 246.095 1232.81 239.082C1207.97 233.424 1183.62 227.368 1160.44 221.085C1103.36 205.617 1054.59 186.668 1002.94 166.607C994.499 163.327 985.768 159.936 977.106 156.603C946.658 144.89 920.658 135.232 892.749 126.172C836.507 107.941 774.182 98.0619 707.5 96.8084C623.711 95.233 533.961 106.747 440.748 131.03C394.442 143.095 348.847 157.884 312.365 172.677C284.881 183.821 263.395 195.952 240.649 208.795C237.831 210.386 235.002 211.982 232.155 213.581C227.084 216.432 220.372 220.19 213.443 223.957C184.285 239.85 146.19 256.213 84.7408 257.049C82.8245 257.073 80.9009 257.085 78.981 257.085C30.9969 257.085 -17.9911 249.735 -68.1076 241.529L-71.2366 241.013C-96.0604 236.912 -119.51 233.04 -141.216 230.221C-223.015 219.597 -302.125 210.63 -361.907 204.005L-361.479 203.425C-301.682 210.053 -222.55 219.021 -140.721 229.649C-118.957 232.475 -95.4815 236.354 -70.6248 240.459L-67.4993 240.975C-15.5472 249.481 35.1886 257.069 84.6858 256.448C145.454 255.62 183.23 239.384 212.172 223.61C219.097 219.845 225.802 216.09 230.873 213.24C233.72 211.641 236.545 210.045 239.363 208.454C262.145 195.592 283.664 183.441 311.236 172.261C347.792 157.438 393.479 142.618 439.876 130.53C482.939 119.311 526.017 110.696 567.912 104.924C615.98 98.3001 662.971 95.3677 707.573 96.2057C774.599 97.4649 837.239 107.392 893.746 125.709C921.695 134.782 947.721 144.45 978.198 156.173C986.863 159.507 995.595 162.898 1004.04 166.178C1055.63 186.22 1104.37 205.151 1161.33 220.587C1184.48 226.863 1208.79 232.909 1233.6 238.559C1264.45 245.563 1295.4 251.857 1325.6 257.262C1373.01 265.749 1432.01 276.31 1490.73 271.555C1522.82 268.956 1546.87 262.64 1564.23 252.248C1598.11 232.102 1600.15 201.013 1601.79 176.032C1602.32 167.881 1602.83 160.182 1604.45 153.978L1604.48 153.836C1608.11 139.944 1611.85 125.58 1620.45 111.407C1627.89 99.0446 1638.25 87.9303 1651.25 78.3702C1665.91 67.592 1683.98 58.7663 1704.96 52.1372C1719 47.7017 1733.86 44.178 1750.37 41.3661C1794.99 33.7245 1849.66 32.5447 1908.49 37.9572C1932.16 40.1353 1955.51 43.4349 1977.9 47.7627C2000.41 52.1159 2021.49 57.4235 2040.54 63.5351C2083.57 77.3194 2119.24 95.2089 2146.56 116.707C2171.12 136.03 2188.26 158.073 2196.14 180.45L2194.6 180.531C2177.74 132.637 2121.23 90.1622 2039.54 63.9987C2001.35 51.7444 1955.9 42.9415 1908.13 38.5471C1849.64 33.1658 1795.31 34.3328 1751.01 41.9219C1734.62 44.7125 1719.89 48.2079 1705.95 52.608C1666.77 64.9857 1637.73 85.3666 1621.97 111.547C1613.4 125.683 1609.66 140.028 1606.04 153.9L1606 154.042C1604.39 160.223 1603.88 167.911 1603.35 176.05C1601.7 201.108 1599.66 232.291 1565.53 252.578C1557.16 257.59 1546.96 261.747 1535.23 264.935C1522.58 268.372 1507.72 270.798 1491.04 272.15C1481.11 272.952 1470.88 273.355 1460.27 273.355Z" fill="#FFE492"/>
<path d="M85.8798 276.827C64.4233 276.827 41.0578 275.209 14.6879 271.905C-11.5136 268.622 -37.4256 264.091 -61.5275 259.683C-65.8913 258.881 -70.2222 258.08 -74.5238 257.284C-95.9363 253.324 -116.162 249.583 -135.064 246.669C-210.437 235.054 -282.281 224.615 -351.762 214.522L-363.274 212.848L-362.696 212.251L-351.183 213.925C-281.699 224.021 -209.843 234.46 -134.456 246.078C-115.502 248.999 -95.2512 252.744 -73.813 256.71C-69.5151 257.505 -65.1842 258.307 -60.824 259.108C-11.3487 268.155 41.2154 276.922 92.1966 276.141C154.866 275.131 192.422 256.238 218.136 239.892C224.724 235.712 231.07 231.546 235.863 228.384C238.508 226.641 241.135 224.9 243.755 223.163C265.483 208.763 286.005 195.162 312.994 182.337C348.62 165.412 394.262 148.206 441.521 133.891C485.365 120.61 529.608 110.117 573.026 102.704C622.828 94.2001 671.471 89.7873 717.605 89.5874C787.024 89.1875 851.499 98.43 909.215 117.055C941.209 127.393 969.895 138.575 993.74 148.151C1006.71 153.362 1019.69 158.703 1032.24 163.869C1076.66 182.157 1122.59 201.066 1174.1 216.382C1197.11 223.225 1221.27 229.856 1245.88 236.088C1276.35 243.783 1307.29 250.848 1337.85 257.084C1385.61 266.832 1445.05 278.962 1504.77 274.657C1537.64 272.288 1561.84 265.935 1578.74 255.237C1612.18 234.178 1609.92 201.385 1608.1 175.036C1607.57 167.244 1607.06 159.883 1607.67 153.957C1609.04 140.598 1611.11 125.073 1618.28 109.866C1624.33 96.9808 1633.45 85.3234 1645.4 75.2188C1658.92 63.7883 1676.25 54.2055 1696.89 46.7354C1710.57 41.7852 1725.9 37.5837 1742.45 34.2457C1766.06 29.4671 1792.57 26.4623 1821.22 25.3166C1848.06 24.2432 1876.35 24.8075 1905.32 26.9927C1929.74 28.8361 1953.82 31.8677 1976.88 36.0055C2000.08 40.1687 2021.71 45.3557 2041.17 51.4219C2063.6 58.407 2084.22 66.6555 2102.47 75.9391C2119.75 84.735 2135.07 94.5447 2148 105.095C2172.19 124.832 2188.11 147.33 2194.03 170.152L2192.39 170.216C2179.67 121.206 2124.18 78.0888 2040.13 51.9196C2001.64 39.9205 1953.66 31.2906 1905 27.6194C1844.84 23.0804 1788.9 25.5676 1743.21 34.8115C1726.79 38.1225 1711.58 42.2914 1698.01 47.202C1659.12 61.277 1632.83 82.3981 1619.9 109.981C1612.75 125.147 1610.68 140.645 1609.31 153.983C1608.71 159.887 1609.21 167.237 1609.75 175.019C1610.64 188.018 1611.66 202.752 1608.26 216.996C1604.31 233.524 1595.12 246.141 1580.15 255.57C1572 260.728 1561.88 264.975 1550.07 268.191C1537.32 271.665 1522.18 274.052 1505.08 275.284C1496.45 275.907 1487.83 276.189 1479.26 276.189C1427.93 276.189 1378.2 266.039 1337.08 257.647C1306.48 251.401 1275.49 244.326 1244.99 236.62C1220.33 230.379 1196.14 223.739 1173.1 216.885C1121.48 201.538 1075.5 182.609 1031.04 164.305C1018.49 159.14 1005.52 153.8 992.557 148.592C968.744 139.027 940.099 127.861 908.163 117.543C850.759 99.0171 786.661 89.8284 717.631 90.2226C609.223 90.6934 508.199 114.5 442.539 134.39C395.376 148.677 349.825 165.846 314.277 182.737C287.368 195.523 266.875 209.103 245.181 223.48C242.561 225.218 239.93 226.959 237.285 228.703C232.488 231.866 226.139 236.035 219.547 240.22C208.753 247.082 191.807 257.07 169.361 264.557C158.46 268.193 146.86 271.05 134.882 273.051C121.527 275.281 107.186 276.535 92.2662 276.775C90.1521 276.81 88.0233 276.827 85.8798 276.827Z" fill="#FFE492"/>
<path d="M92.7689 296.569C71.2867 296.569 47.9689 294.826 21.7381 291.27C-5.4196 287.589 -32.2696 282.413 -54.9499 277.834C-61.9188 276.425 -68.8732 274.995 -75.6003 273.613C-94.4041 269.749 -112.167 266.097 -128.915 263.117C-189.06 252.411 -248.813 241.959 -306.602 231.85C-325.717 228.506 -345.481 225.049 -364.637 221.691L-363.919 221.077C-344.763 224.435 -324.999 227.892 -305.884 231.236C-248.095 241.345 -188.335 251.798 -128.186 262.506C-111.394 265.495 -93.609 269.149 -74.7832 273.019C-68.0597 274.401 -61.1054 275.829 -54.1438 277.239C-7.10506 286.731 47.4559 296.779 99.7012 295.833C163.847 294.644 199.876 274.014 224.102 256.174C230.313 251.604 236.318 247.015 240.854 243.528C243.184 241.739 245.5 239.951 247.812 238.167C268.594 222.122 288.223 206.968 314.757 192.415C349.269 173.488 394.875 153.898 443.167 137.255C510.42 114.177 614.364 86.0272 727.634 82.9742C799.669 80.9805 865.969 89.5367 924.685 108.407C951.066 116.89 977.154 126.674 1009.28 140.135C1025.52 146.937 1041.63 153.988 1057.21 160.804C1097.74 178.539 1139.65 196.878 1186.88 212.185C1209.75 219.603 1233.74 226.816 1258.17 233.625C1287.76 241.862 1318.68 249.698 1350.09 256.916C1398.34 267.935 1458.38 281.651 1518.82 277.769C1551.95 275.684 1576.99 269.112 1593.25 258.236C1626.22 236.224 1619.15 200.213 1613.98 173.919C1612.53 166.54 1611.16 159.57 1610.89 153.948C1610.29 141.452 1610.34 124.977 1616.12 108.337C1626.09 79.5016 1650.55 56.9611 1688.81 41.3446C1702.22 35.8428 1717.61 31.0627 1734.52 27.1363C1758.59 21.5437 1785.74 17.7818 1815.23 15.9568C1843.02 14.2382 1872.26 14.2651 1902.14 16.0376C1927.36 17.5662 1952.16 20.337 1975.85 24.2705C1999.78 28.2438 2021.96 33.306 2041.8 39.3169C2064.73 46.2623 2085.68 54.5391 2104.06 63.9192C2121.49 72.8086 2136.75 82.7573 2149.44 93.4915C2173.26 113.644 2187.94 136.596 2191.92 159.865L2190.18 159.909C2181.62 109.78 2127.15 66.0192 2040.73 39.8487C2001.55 27.9758 1952.23 19.7556 1901.88 16.7041C1839.81 13.0244 1782.25 16.8317 1735.42 27.7149C1718.64 31.6087 1703.39 36.3505 1690.08 41.8083C1652.07 57.3212 1627.77 79.7341 1617.85 108.427C1612.09 125.022 1612.04 141.465 1612.63 153.937C1612.91 159.539 1614.27 166.5 1615.72 173.869C1618.39 187.461 1621.42 202.867 1619.69 217.908C1617.67 235.422 1609.52 248.724 1594.76 258.575C1586.82 263.888 1576.78 268.227 1564.91 271.472C1552.05 274.99 1536.64 277.332 1519.11 278.435C1491.92 280.181 1462.66 278.613 1429.65 273.64C1400.96 269.316 1373.47 263.037 1349.21 257.499C1317.76 250.271 1286.79 242.424 1257.16 234.175C1232.69 227.356 1208.67 220.133 1185.76 212.705C1138.44 197.367 1096.48 179.008 1055.9 161.255C1040.33 154.44 1024.23 147.394 1008.01 140.597C975.934 127.16 949.894 117.395 923.575 108.932C865.207 90.1692 799.328 81.664 727.751 83.6449C614.969 86.6866 511.369 114.75 444.317 137.759C396.121 154.368 350.61 173.916 316.172 192.804C289.71 207.316 270.111 222.449 249.362 238.469C247.05 240.254 244.734 242.042 242.404 243.832C237.864 247.322 231.855 251.915 225.637 256.489C201.198 274.488 164.807 295.302 99.7782 296.506C97.4662 296.547 95.1248 296.569 92.7689 296.569Z" fill="#FFE492"/>
<path d="M99.7962 316.312C41.0986 316.312 -20.49 302.36 -75.0876 289.991C-91.8651 286.19 -107.712 282.6 -122.771 279.564L-366 230.534L-365.154 229.906L-121.925 278.936C-106.825 281.979 -90.9601 285.574 -74.1606 289.379C-17.4525 302.227 46.8254 316.788 107.205 315.526C172.765 314.158 207.302 291.79 230.067 272.458C237.512 266.136 244.701 259.702 251.655 253.48C270.675 236.464 290.34 218.868 316.512 202.492C337.294 189.489 363.111 175.852 391.17 163.057C421.952 149.02 454.91 136.142 489.121 124.781C526.842 112.256 565.197 101.895 603.116 93.9864C645.058 85.2402 686.377 79.5299 725.934 77.0129C805.176 71.972 877.247 79.6221 940.14 99.7534C992.407 116.481 1036.83 137.167 1079.79 157.172C1117.19 174.585 1155.85 192.59 1199.64 207.981C1250.21 225.757 1304.95 242.162 1362.33 256.737C1410.68 269.018 1470.85 284.304 1532.86 280.869C1585.24 277.967 1615.52 264.406 1625.43 239.406C1633.87 218.142 1625.84 192.917 1619.4 172.65C1617.2 165.743 1615.13 159.219 1614.11 153.928C1608.49 124.763 1612.07 100.686 1625.06 80.3254C1633.16 67.6215 1645.12 56.2974 1660.6 46.6678C1677.89 35.9108 1700.09 26.9434 1726.59 20.0151C1749.5 14.0212 1775.33 9.66795 1803.36 7.07585C1830.04 4.60853 1858.12 3.78184 1886.84 4.61846C1943.32 6.26333 1998.57 14.2835 2042.41 27.2001C2065.84 34.1043 2087.12 42.4109 2105.65 51.8874C2123.21 60.869 2138.42 70.9581 2150.86 81.8767C2174.3 102.445 2187.76 125.852 2189.79 149.565L2187.96 149.589C2183.64 99.0912 2128.81 53.5493 2041.3 27.7659C1948.36 0.384312 1816.43 -2.62893 1727.6 20.6036C1639.61 43.6177 1603.08 87.2112 1615.93 153.876C1616.94 159.149 1619.02 165.665 1621.21 172.563C1627.67 192.875 1635.71 218.153 1627.24 239.514C1622.62 251.149 1613.35 260.499 1599.67 267.307C1591.97 271.134 1582.7 274.262 1572.1 276.602C1560.82 279.092 1547.7 280.764 1533.12 281.572C1527.16 281.902 1521.09 282.068 1514.93 282.068C1492.45 282.068 1468.52 279.869 1442.29 275.414C1412.74 270.394 1384.23 263.151 1361.32 257.331C1303.86 242.734 1249.05 226.308 1198.4 208.507C1154.51 193.083 1115.81 175.058 1078.37 157.626C1035.47 137.647 991.099 116.986 938.964 100.301C876.492 80.3069 804.915 72.7065 726.22 77.7134C567.032 87.8408 403.053 149.688 318.058 202.866C291.956 219.197 272.317 236.769 253.322 253.762C246.364 259.987 239.172 266.425 231.719 272.753C216.605 285.588 201.678 294.778 184.743 301.672C174.172 305.974 162.704 309.366 150.657 311.753C137.261 314.406 122.671 315.914 107.289 316.236C104.805 316.286 102.302 316.312 99.7962 316.312Z" fill="#FFE492"/>
</g>
</g>
<defs>
<clipPath id="clip0_9_100">
<rect width="1920" height="10049" fill="white" transform="translate(0 -215.852)"/>
</clipPath>
</defs>
</svg>
